<?xml version="1.0" encoding="UTF-8"?>
<svg xmlns="http://www.w3.org/2000/svg" version="1.1" viewBox="0 0 118.6 42.2">
  <defs>
    <style>
      .cls-1 {
        fill: #fff;
      }

      .cls-2 {
        fill: #231f20;
      }

      .cls-3 {
        fill: #292929;
      }
    </style>
  </defs>
  <!-- Generator: Adobe Illustrator 28.7.1, SVG Export Plug-In . SVG Version: 1.2.0 Build 142)  -->
  <g>
    <g id="Capa_2">
      <g id="Layer_2">
        <g>
          <g>
            <g>
              <path class="cls-3" d="M13.5,36.2H5.1l-1.2,2.8H0l6.5-14.8h5.5l6.6,14.8h-3.8l-1.2-2.8ZM12.6,34.2l-3.4-7.7-3.3,7.7h6.7Z"/>
              <path class="cls-3" d="M29.1,35.1h3.2v.4l-.2,1.6c-.4,1.4-2.3,2.2-5.8,2.2s-4.3-.3-5.1-1.1c-.8-.7-1.3-2.1-1.3-4.2s.4-3.5,1.3-4.2c.8-.7,2.5-1.1,4.9-1.1s3.9.3,4.8.8c.8.5,1.2,1.5,1.2,3h-3.2c0-1.2-.9-1.8-2.7-1.8s-2.1.2-2.4.6-.5,1.3-.5,2.8.2,2.3.5,2.7c.4.4,1.3.6,2.7.6s1.8-.1,2.1-.4c.3-.3.5-.8.5-1.7h0Z"/>
              <path class="cls-3" d="M43,35.7h3.3v.4c0,2-2,3-6,3s-4.5-.3-5.3-1c-.8-.7-1.2-2.2-1.2-4.5s.4-3.4,1.3-4.1c.9-.7,2.6-1,5.1-1s4,.3,4.9,1c.8.7,1.2,2,1.2,4v.8h-9.2c0,.2,0,.4,0,.5,0,1,.2,1.7.6,2s1.2.5,2.5.5,2,0,2.3-.3c.4-.2.5-.6.5-1.3h0ZM43,32.8v-.4c0-.8-.2-1.4-.6-1.6-.4-.2-1.2-.4-2.4-.4s-2,.1-2.4.4c-.4.3-.5.9-.5,1.9h5.9Z"/>
              <path class="cls-3" d="M47.8,28.7h3.3l-.2,1.5h0c.8-1.1,2-1.6,3.7-1.6,2.4,0,3.6,1.1,3.6,3.4v.7h-3.1c0-.3,0-.5,0-.5,0-1.1-.6-1.6-1.7-1.6-1.6,0-2.4.8-2.4,2.4v6.1h-3.3v-10.4h0Z"/>
            </g>
            <g>
              <path class="cls-3" d="M60.1,39.1v-14.8h10.5c2.5,0,4.2.3,5,.8s1.3,1.6,1.3,3.1-1.1,2.9-3.2,3.2h0c2.4.3,3.7,1.5,3.7,3.6s-.5,2.6-1.4,3.2-2.6.9-4.9.9h-11.1,0ZM64.1,30.5h5c1.6,0,2.6-.1,3.1-.4s.7-.8.7-1.7-1-1.8-2.9-1.8h-5.8v3.9h0ZM64.1,36.7h5.9c1.4,0,2.3-.2,2.7-.4s.7-.8.7-1.7-.2-1.5-.7-1.7-1.6-.3-3.4-.3h-5.2v4.2h0Z"/>
              <path class="cls-3" d="M79.1,28.7h3.3l-.2,1.5h0c.8-1.1,2-1.6,3.7-1.6,2.4,0,3.6,1.1,3.6,3.4v.7h-3.1c0-.3,0-.5,0-.5,0-1.1-.6-1.6-1.7-1.6-1.6,0-2.4.8-2.4,2.4v6.1h-3.3v-10.4h0Z"/>
              <path class="cls-3" d="M94.7,31.7h-3.3c0-1.2.4-2.1,1.1-2.5.8-.4,2.3-.6,4.5-.6s4.1.3,5,.8c.9.5,1.3,1.5,1.3,2.9v6.8h-3.3l.2-1.4h0c-.6,1-2.1,1.5-4.3,1.5-3.3,0-4.9-1.1-4.9-3.2s1.7-3.2,5.1-3.2,3.6.4,4.1,1.2h0v-1.7c0-.8-.2-1.3-.6-1.6-.4-.3-1.1-.4-2.3-.4-1.7,0-2.5.5-2.5,1.5h0ZM96.8,34.4c-1.8,0-2.8.5-2.8,1.4s.2,1.1.6,1.3c.4.2,1.2.3,2.4.3,2,0,3-.5,3-1.5s-1.1-1.5-3.2-1.5h0Z"/>
              <path class="cls-3" d="M118.6,28.7v9.5c0,1.5-.4,2.6-1.3,3.1-.9.6-2.6.8-5,.8s-3.9-.2-4.7-.7c-.8-.4-1.2-1.3-1.2-2.6h3.2c0,.6.2,1,.5,1.2s1.1.3,2.2.3c2,0,3-.6,3-1.7v-2.1h0c-.6,1-1.9,1.5-4,1.5s-3.5-.3-4.2-1c-.8-.7-1.1-2-1.1-3.8s.4-3,1.1-3.6c.8-.7,2.1-1,4.1-1s3.6.5,4.3,1.6h0l-.2-1.5h3.3,0ZM112.2,30.4c-1.2,0-2.1.2-2.4.5s-.5,1.1-.5,2.4.2,2.2.5,2.5c.4.4,1.2.5,2.5.5s2.1-.2,2.5-.6c.4-.4.6-1.2.6-2.5s-.2-2-.6-2.4-1.2-.5-2.5-.5h0Z"/>
            </g>
          </g>
          <g>
            <path class="cls-2" d="M70.6,11.5c0,6.4-5.2,11.5-11.5,11.5s-11.5-5.1-11.5-11.5S52.7,0,59.1,0s11.5,5.2,11.5,11.5Z"/>
            <path class="cls-1" d="M68,10.5h-2s0,0,0,0c-.4-3-2.8-5.4-5.7-5.9-2.7-1.2-5.5-1-7.3.8-1.3,1.3-1.7,3.2-1.4,5.1h-1.4c-.5,0-1,.4-1,1s.4,1,1,1h2c0,0,0,.2,0,.2.5,3,2.9,5.3,5.9,5.7,2.6,1,5.3.8,7-.9,1.3-1.3,1.7-3.1,1.4-5h1.5c.5,0,1-.4,1-1s-.4-1-1-1h0Z"/>
            <path class="cls-3" d="M54,6.4c-.7.7-1.1,1.8-1.1,3s.2,1.8.6,2.7v.2c0,0,0,.2,0,.2.4,2.4,2.3,4.2,4.7,4.6h.2s.2,0,.2,0c2.2.9,4.2.6,5.5-.6,1.2-1.2,1.4-3.3.6-5.4v-.2c0,0,0-.2,0-.2-.3-2.4-2.2-4.3-4.5-4.7h-.2s-.2-.1-.2-.1c-2.2-1-4.4-.8-5.7.5h0Z"/>
            <path class="cls-3" d="M64.6,11.5c0,3-2.5,5.5-5.5,5.5s-5.5-2.5-5.5-5.5,2.5-5.5,5.5-5.5,5.5,2.5,5.5,5.5Z"/>
          </g>
        </g>
      </g>
    </g>
  </g>
</svg>