<?xml version="1.0" encoding="UTF-8"?>
<svg xmlns="http://www.w3.org/2000/svg" version="1.1" viewBox="0 0 2500 2500">
  <defs>
    <style>
      .cls-1 {
        fill: #292929;
        fill-rule: evenodd;
      }
    </style>
  </defs>
  <!-- Generator: Adobe Illustrator 28.7.1, SVG Export Plug-In . SVG Version: 1.2.0 Build 142)  -->
  <g>
    <g id="Capa_1">
      <g id="Capa_1-2" data-name="Capa_1">
        <path class="cls-1" d="M1862.8,1085.6c0-142-253.2-262.8-572.9-266.9l-3.5-17.1c-.4-9.2-6.7-16.6-14.5-17.1h-25.6c-7.5,0-14.5,8.8-18.5,17.1l-3.5,17.1c-319.3,4.1-569.4,124.9-569.4,266.9s191.1,232.3,447.9,262.8l-11,56.2c-3.5,8.8,0,12.9,7.5,12.9h315.8c7.5,0,11-4.1,11-12.9l-14.5-56.2c260.7-30,451.8-137.8,451.8-262.8h-.4ZM1378,1193l-73.5-318.5c238.7,8.8,425.9,77.4,425.9,163.7s-150.6,137.8-352.7,154.9h.4ZM783,1038.1c0-86.2,187.2-154.9,429.8-163.7l-73.5,318.5c-205.7-17.1-356.3-81.6-356.3-154.9Z"/>
        <path class="cls-1" d="M111.9,1585.7h-60.7l30.3-106.4,30.3,106.4h0ZM17.3,1655h13.5l15.8-52.5h70.8l14.6,52.5h14.6l-56.2-192.6h-15.8l-57.3,192.6h.1ZM164.6,1575c0-24.6,11.2-49.3,29.3-49.3s27,24.6,27,49.3h-56.2ZM226.5,1631.9c-5.7,6.1-19.1,10.7-28.1,10.7-22.5,0-33.7-23.1-33.7-54h69.7v-9.2c0-37-11.2-69.3-40.5-69.3s-43.8,30.9-43.8,73.9,13.5,73.9,47.2,73.9,20.2-3.1,29.3-7.8v-18.5h0v.2ZM248,1545.6c0-15.3,0-21.6-1.1-32.3h12.4v27.7h1.1c4.5-15.3,12.4-30.9,25.9-30.9s6.7,1.5,9,1.5v18.5c-2.3-1.5-5.7-1.5-9-1.5-20.2,0-25.9,30.9-25.9,57.1v69.3h-12.4v-109.4h0ZM309.8,1584.2c0-32.3,12.4-58.6,33.7-58.6s34.9,26.2,34.9,58.6-12.4,58.6-34.9,58.6-33.7-26.2-33.7-58.6ZM296.3,1584.2c0,38.4,14.6,73.9,47.2,73.9s48.4-35.5,48.4-73.9-14.6-73.9-48.4-73.9-47.2,35.5-47.2,73.9ZM480.8,1584.2c0,27.7-5.7,58.6-30.3,58.6s-30.3-32.3-30.3-58.6,7.8-58.6,30.3-58.6,30.3,30.9,30.3,58.6ZM407.7,1712.1h12.4v-81.7h1.1c5.7,18.5,15.8,27.7,31.4,27.7,28.1,0,42.8-32.3,42.8-73.9s-12.4-73.9-42.8-73.9-29.3,21.6-32.6,29.2v-26.2h-12.4v198.8h.1ZM589.9,1621.2c0,10.7,0,21.6,1.1,33.8h-12.4v-26.2h-1.1c-3.4,13.9-11.2,29.2-32.6,29.2s-34.9-23.1-34.9-54v-90.9h12.4v86.3c0,26.2,6.7,43.1,24.7,43.1s30.3-27.7,30.3-50.8v-78.5h12.4v107.9h0v.2ZM624.7,1575c0-24.6,11.2-49.3,30.3-49.3s25.9,24.6,25.9,49.3h-56.2ZM687.7,1631.9c-6.7,6.1-20.2,10.7-29.3,10.7-22.5,0-33.7-23.1-33.7-54h70.8v-9.2c0-37-12.4-69.3-41.7-69.3s-42.8,30.9-42.8,73.9,12.4,73.9,46.1,73.9,21.3-3.1,30.3-7.8v-18.5h0v.2ZM712.4,1545.6c0-15.3,0-21.6-1.1-32.3h12.4v27.7h1.1c4.5-15.3,12.4-30.9,25.9-30.9s6.7,1.5,9,1.5v18.5c-2.3-1.5-5.7-1.5-9-1.5-20.2,0-25.9,30.9-25.9,57.1v69.3h-12.4v-109.4h0ZM820.4,1528.6h-23.6v90.9c0,12.4,3.4,23.1,14.6,23.1s7.8-1.5,11.2-3.1l1.1,13.9c-3.4,1.5-10.1,4.6-15.8,4.6-22.5,0-23.6-21.6-23.6-47.9v-81.7h-20.2v-15.3h20.2v-33.8l12.4-6.1v40.1h23.6v15.3h.1ZM841.7,1584.2c0-32.3,12.4-58.6,34.9-58.6s33.7,26.2,33.7,58.6-12.4,58.6-33.7,58.6-34.9-26.2-34.9-58.6ZM828.2,1584.2c0,38.4,14.6,73.9,48.4,73.9s47.2-35.5,47.2-73.9-14.6-73.9-47.2-73.9-48.4,35.5-48.4,73.9ZM937.3,1633.6c7.8,6.1,16.9,9.2,27,9.2s22.5-9.2,22.5-24.6c0-33.8-49.5-27.7-49.5-69.3s16.9-38.4,33.7-38.4,15.8,1.5,24.7,6.1l-1.1,15.3c-6.7-4.6-15.8-6.1-22.5-6.1-13.5,0-22.5,4.6-22.5,23.1,0,26.2,50.6,23.1,50.6,69.3s-20.2,40.1-36,40.1-19.1-1.5-28.1-6.1l1.1-18.5h0v-.2ZM1119.6,1576.5h-34.9l17.9-75.6,16.9,75.6h.1ZM1026.2,1655h38.3l11.2-41.6h52.9l10.1,41.6h41.7l-54-192.6h-46.1l-54,192.6h-.1ZM1256.7,1550.2c-4.5-1.5-7.8-1.5-12.4-1.5-16.9,0-25.9,17-25.9,44.7v61.7h-37.1v-144.9h33.7v26.2c6.7-17,15.8-29.2,31.6-29.2s7.8,1.5,12.4,1.5l-2.3,41.6v-.2ZM1296.1,1581.1c0-20,7.8-35.5,21.3-35.5s22.5,17,22.5,33.8-10.1,37-22.5,37-21.3-12.4-21.3-35.5v.2ZM1374.9,1510.1h-32.6v26.2c-7.8-17-20.2-29.2-36-29.2-32.6,0-47.2,32.3-47.2,75.6s17.9,72.4,47.2,72.4,25.9-7.8,34.9-24.6v7.8c0,27.7-11.2,41.6-31.4,41.6s-24.7-4.6-36-12.4l-1.1,40.1c12.8,5,26,7.6,39.4,7.8,42.8,0,63-18.5,63-77.1v-127.9h0v-.3ZM1418.7,1568.7c1.1-17,6.7-29.2,20.2-29.2s20.2,12.4,20.2,29.2h-40.5ZM1491.8,1596.4v-9.2c0-41.6-14.6-80.2-52.9-80.2s-56.2,27.7-56.2,75.6,25.9,75.6,60.7,75.6,27-3.1,38.2-9.2v-35.5c-9.6,7.1-20.5,10.9-31.4,10.9-17.9,0-29.3-7.8-31.4-27.7h73.1v-.2ZM1503.2,1510.1h33.7v26.2c7.8-20,21.3-29.2,38.2-29.2,29.3,0,40.5,27.7,40.5,57.1v90.9h-37.1v-71c0-26.2-6.7-35.5-15.8-35.5-15.8,0-22.5,13.9-22.5,44.7v61.7h-37.1v-144.9h0v-.2ZM1621.2,1510.1h21.4v-32.3l36-13.9v46.2h24.7v35.5h-24.7v52.5c0,18.5,3.4,26.2,14.7,26.2s6.7,0,11.2-1.5l1.1,32.3c-6.7,1.5-13.5,3.1-23.6,3.1-31.4,0-39.4-20.1-39.4-54v-58.6h-21.4v-35.6ZM1716.8,1510.1h37.1v144.9h-37.1v-144.9ZM1753.9,1487h-37.1v-35.5h37.1v35.5ZM1773.1,1510.1h32.6v26.2h1.1c6.7-20,21.3-29.2,38.2-29.2,28.2,0,39.4,27.7,39.4,57.1v90.9h-36v-71c0-26.2-6.7-35.5-16.9-35.5-14.6,0-22.5,13.9-22.5,44.7v61.7h-36v-144.9h0v-.2ZM1924.9,1608.8c0-13.9,10.1-18.5,22.5-18.5h14.6c0,17-7.8,33.8-22.5,33.8s-14.6-4.6-14.6-15.5v.2ZM1998,1655c-1.1-12.4-2.3-23.1-2.3-33.8v-54c0-44.7-22.5-60.1-49.5-60.1s-29.3,3.1-41.7,10.7v33.8c10.1-7.8,22.5-10.7,33.7-10.7s23.6,4.6,23.6,24.6c-5.5-2-11.2-3-16.9-3.1-19.1,0-54,6.1-54,49.3s19.1,46.2,39.4,46.2,24.7-7.8,33.7-26.2c0,7.8,1.1,15.3,1.1,23.1h32.6v.2ZM2036.2,1618.1c28.2-33.8,60.7-71,60.7-97s-7.8-24.6-19.1-24.6-28.1,6.1-37.1,13.9l-1.1-40.1c20.2-10.7,32.6-12.4,41.7-12.4,31.4,0,54,18.5,54,57.1s-30.3,75.6-42.8,90.9l-10.1,12.4h55v37h-101.2v-37h0v-.2ZM2197.1,1622.7c-16.9,0-17.9-33.8-17.9-64.7s1.1-64.7,17.9-64.7,17.9,33.8,17.9,64.7-1.1,64.7-17.9,64.7ZM2197.1,1658.2c46.1,0,54-49.3,54-100.2s-7.8-100.2-54-100.2-54,50.8-54,100.2,7.8,100.2,54,100.2ZM2313,1622.7c-16.9,0-17.9-33.8-17.9-64.7s1.1-64.7,17.9-64.7,17.9,33.8,17.9,64.7c1.1,30.9-1.1,64.7-17.9,64.7ZM2313,1658.2c47.2,0,55-49.3,55-100.2s-7.8-100.2-55-100.2-54,50.8-54,100.2,7.8,100.2,54,100.2ZM2428.8,1622.7c-16.9,0-19.1-33.8-19.1-64.7s2.3-64.7,19.1-64.7,17.9,33.8,17.9,64.7-1.1,64.7-17.9,64.7ZM2428.8,1658.2c46.1,0,54-49.3,54-100.2s-7.8-100.2-54-100.2-55.2,50.8-55.2,100.2,7.8,100.2,55.2,100.2Z"/>
      </g>
    </g>
  </g>
</svg>