<?xml version="1.0" encoding="UTF-8"?>
<svg xmlns="http://www.w3.org/2000/svg" version="1.1" viewBox="0 0 889.2 143">
  <defs>
    <style>
      .cls-1 {
        fill: #1d1d1b;
      }

      .cls-2 {
        fill: #00a299;
      }

      .cls-3 {
        fill: #008b84;
      }
    </style>
  </defs>
  <!-- Generator: Adobe Illustrator 28.7.1, SVG Export Plug-In . SVG Version: 1.2.0 Build 142)  -->
  <g>
    <g id="Layer_1">
      <path id="Fill-1" class="cls-3" d="M774.7,38.4c-4.8-1.8-7.3-7.1-5.6-11.9,1.8-4.8,7.1-7.3,11.9-5.6-10.1-3.7-21.3,1.5-24.9,11.6-3.7,10.1,1.5,21.3,11.6,24.9l95.6,34.8-82.3,30c-10.1,3.7-21.3-1.5-24.9-11.6-3.7-10.1,1.5-21.3,11.6-24.9-15.4,5.6-23.3,22.6-17.7,37.9s22.6,23.3,37.9,17.7l89.8-32.7c9-3.3,13.7-13.3,10.4-22.3-1.8-5-5.7-8.7-10.4-10.4l-103.1-37.5"/>
      <path id="Fill-2" class="cls-2" d="M863.4,50.8l-82.3-30c-10.1-3.7-21.3,1.5-24.9,11.6-3.7,10.1,1.5,21.3,11.6,24.9-15.4-5.6-23.3-22.6-17.7-37.9,5.6-15.4,22.6-23.3,37.9-17.7l89.8,32.7c9,3.3,13.7,13.3,10.4,22.3-1.8,5-5.7,8.7-10.4,10.4l-103.1,37.5c-4.8,1.8-7.3,7.1-5.6,11.9s7.1,7.3,11.9,5.6c-10.1,3.7-21.3-1.5-24.9-11.6-3.7-10.1,1.5-21.3,11.6-24.9l95.6-34.8"/>
      <path id="Fill-3" class="cls-1" d="M30.1,69.7h-13.8v23.8h14.5c8.5,0,13-4.5,13-12.1s-5-11.7-13.8-11.7h0ZM27.6,37.1h-11.3v19.9h11.9c8.1,0,11.7-4,11.7-10.4s-4.6-9.5-12.3-9.5h0ZM0,24.2h28.4c17,0,28.5,6.9,28.5,20.8s-6.6,15.3-14.7,17.3v.2c12.5,1.7,19.1,10.6,19.1,20.4,0,15.2-12.3,23.7-28.7,23.7H0V24.2ZM210.8,70.4h27c-.7-6.8-5.9-12.3-13.5-12.3s-12.9,5.9-13.5,12.3h0ZM253.9,77.2c0,1.3,0,2.8-.2,4.3h-43c0,8,6.8,14.8,15,14.8s9.1-2.3,11.6-6l13.4,4.9c-4.5,7.5-12.6,13.3-25.1,13.3s-30.8-12.6-30.8-31.4,10.9-30.4,29.7-30.4,29.4,14.2,29.4,30.4h0ZM697.3,64.3c-.4-4.1-3-6.5-6.6-6.5s-5.9,2.5-5.9,5.1,1.8,5.3,11.6,8.7c12.2,4,16.7,10.1,16.7,18.5s-8.1,18.6-22.3,18.6-21.7-7.7-22.3-18.9h14.6c.4,4.6,2.8,7.8,8.1,7.8s6.6-2.8,6.6-6.2-2.8-6.4-11.5-9.3c-10.9-3.5-16.5-8.9-16.5-18s8.5-17.3,20.9-17.3,19.9,7.4,21.1,17.5h-14.4,0ZM620.6,70.4h27c-.7-6.8-5.9-12.3-13.5-12.3s-12.9,5.9-13.5,12.3h0ZM663.7,77.2c0,1.3,0,2.8-.2,4.3h-43c0,8,6.8,14.8,15,14.8s9.1-2.3,11.6-6l13.4,4.9c-4.5,7.5-12.6,13.3-25.2,13.3s-30.8-12.6-30.8-31.4,10.9-30.4,29.7-30.4,29.5,14.2,29.5,30.4h0ZM541.3,19.6h16.3v36.3h.5c4-6.4,10.5-9,17-9,12.9,0,22,8.6,22,26.4v33.2h-16.3v-32.2c0-8.6-4.1-13-10.9-13s-12.3,4.9-12.3,14.7v30.5h-16.3V19.6h0ZM499.9,93.6c8.1,0,14.7-6.6,14.7-16.2s-6.4-16.4-14.6-16.4-14.9,8.2-14.9,16.3,4.6,16.3,14.7,16.3h0ZM529.9,104.7c0,21.5-9.7,32.8-31,32.8s-24-6.6-27.8-17.7l15-5.4c1.2,5.6,5.3,9.9,13.8,9.9s14.9-6.2,14.9-17.4v-7.4h-.4c-3.9,4.6-9.5,8.3-18.5,8.3-15,0-27.3-11.7-27.3-30.4s12-30.5,28-30.5,14.6,4.7,17.5,8.8h.6v-7h15.2v56h0ZM460.2,106.5h-16.2v-7.2h-.4c-4.7,6.9-10.6,9.2-16.9,9.2-9.4,0-21-5.8-21-25.5v-34.3h16.3v32.2c0,8.4,4,13,10.3,13s11.6-4.9,11.6-14.6v-30.7h16.3v57.8h0ZM378,71.5h-31.7v35h-17.3V24.2h17.3v32.4h31.7V24.2h17.3v82.3h-17.3v-35h0ZM301.1,62.7c-2-.4-4.5-.7-7.7-.7-9.7,0-14.5,6-14.5,16.4v28.1h-16.3v-57.8h15.9v8.9h.4c3.1-5.7,9.2-10.6,16.9-10.6s3.7.1,5.3.5v15.2h0ZM161,82.8l-3.7,3.6v20.2h-16.3V19.6h16.3v48.6l18.4-19.5h19.8l-23.2,23.8,26.7,34h-19.7l-18.2-23.8h0ZM99.1,94.3c7.7,0,14.5-6.8,14.5-16.5s-6.3-16.8-14.4-16.8-15,8.3-15,16.7,4.7,16.7,14.8,16.7ZM129.1,106.5h-15.7v-7.2h-.5c-3.7,4.9-9.4,9.2-18.8,9.2s-26.3-9.1-26.3-30.9,12.8-30.4,27.5-30.4,14.5,4.5,17.6,9h.5v-7.5h15.7v57.8h0Z"/>
    </g>
  </g>
</svg>