<?xml version="1.0" encoding="UTF-8"?>
<svg xmlns="http://www.w3.org/2000/svg" version="1.1" viewBox="0 0 2500 2500">
  <defs>
    <style>
      .cls-1 {
        fill: #a7a8aa;
      }

      .cls-1, .cls-2 {
        fill-rule: evenodd;
      }
    </style>
  </defs>
  <!-- Generator: Adobe Illustrator 28.7.1, SVG Export Plug-In . SVG Version: 1.2.0 Build 142)  -->
  <g>
    <g id="Capa_1">
      <g>
        <path class="cls-2" d="M773,1156.5c65.8,0,105.8,11.6,125.9,36.3,11,13.4,16.5,31.3,16.6,54,0,12.6-1.5,26.6-4.7,42.2l-45.1,217.7c-6.2,30.1-10,53.2-9.9,72.2,0,6.1.6,11.7,1.5,17h-123.3c0-1.3-.2-2.6-.2-4,0-9,.6-18.5,1.4-28.4l1.3-17.8h-6.8l-2.7,4.2c-22.1,35.6-72.4,57.6-115.5,57.6s-61.3-9.1-76-27.2c-16.3-19.9-20.1-51.2-11.6-92.8,16.8-81.3,53.8-115.7,146.5-136.5l61.5-14c36.5-8.1,54.1-24.2,60.6-55.7,3.6-17.3,1.6-30.6-5.7-39.7-6.9-8.4-17.8-12.6-32.7-12.6-33,0-50.5,17-61.3,59.4h-110c29.6-114.3,131.2-131.8,190.3-131.8h0ZM771.7,1380.7s-2.5,2.3-7.3,4.2c-7.8,3-25.1,5.8-35.8,8.5-8.3,2.1-17.6,4.5-27.7,8.7-26.9,11.4-40.7,30-47.9,64.3-4.2,20.1-1.7,36.5,7.1,47.3,6.6,8.1,16.4,12.4,28.1,12.4,48.1,0,63.1-46,70.3-80.6l13.4-64.7h-.3l-13.1,64.7,13.1-64.7h.1ZM1213.7,1557.5c-26-31.9-31.1-82.2-13.2-171.7,39.2-194.9,113.2-229.3,177.7-229.3s76.8,11.3,82.2,65.1l.9,8.4h8.9s10.5-50.6,12.8-61.9h119.8l-89,427.8c-21.1,102.2-86.7,153.1-207.1,153.1s-128.1-65.8-130.6-86.1c-.9-7.7,1.6-30.5,1.6-30.5h116.6c0,10.5.8,25.8,4.4,30.1,4.8,6,8.8,12.9,27.3,12.9s48.1-7.1,59.5-62.5l19.8-96h-9.5l-2.7,4.5c-23.9,41.3-68.4,62.2-115.2,62.2s-49.9-8.5-64.3-26.2h0ZM1332.7,1376.3c-13.1,63.4-12.5,87.8.3,103.6,6.4,7.8,15.9,11.6,29.1,11.6,36.4,0,54.2-22.1,72.7-111.4,13.2-63.9,14.6-104.5,1.9-120.1-6.2-7.6-15.3-11.3-27.8-11.3-37.6,0-57.7,38.4-76.2,127.6h0ZM1794.9,1168.2c-4.3,20.6-85.6,414.1-88.5,427.8h-129.7l88.6-427.8h129.6ZM2033.1,1025.5c-4.3,21-115.1,556.6-118.1,570.5h-129.7c4.3-21,115.2-556.6,118.1-570.5h129.7ZM2241.1,1025.5c-4.4,21-115.2,556.6-118.1,570.5h-129.6c4.4-21,115.2-556.6,118.1-570.5h129.7,0ZM1232.2,1156.5c-42.5,0-93.1,29.7-117.8,77.5l-2.6,4.9h-9.5s11.4-55.1,14.6-70.9h-134.5c.9,5.3,1.4,10.9,1.5,17,0,13.7-1.9,29.6-5.3,48.6-24,116.2-71.7,346.5-75,362.2h129.7c8.3-40.2,48.8-236,48.8-236,12.2-58.9,46.8-86.4,108.6-86.4s20.1.6,29.3,2c2.9-13.9,21-101.4,24.6-118.9h-12.6.2ZM158.7,1573.7c-32.4-39.8-33.8-112.9-4.9-252.4,46.1-223.1,112.9-298.4,264.4-298.4s103,14.4,126.3,42.9c15,18.4,22.6,43.5,22.8,75,0,17.2-2,36.3-6.3,57.1l-6.2,29.8h-127.7s9.5-60.9,9.4-74.3c0-15.1-.7-23.3-6.4-30.9-6-7.9-14.9-14.2-28.9-14.2-56.4,0-75,53.8-107.1,209.1-25,120.6-33.9,175.9-14.6,199.6,7.3,8.9,18.3,13.3,33.8,13.3,44.4,0,62-38.1,84.3-144.1h128.6c-2.5,12.3-6.7,32.6-6.7,32.6-27,130.7-103.7,197-227.8,197s-109.4-13.4-132.9-42.2h0ZM2268.6,1025.1h38.9l-1.3,6.2h-16l-11.5,55.8h-6.9l11.5-55.8h-16l1.3-6.2ZM2354.6,1025.1h12.1l-12.8,62h-6.9l10.6-51.1c.5-2.6,1.2-5.2,1.6-7.8h-.2c-1.5,3.6-2.6,5.9-3.6,8.3l-23.4,50.6h-8.2l-2.4-51.3c-.1-2.5-.2-5-.2-7.6h-.2c-.6,2.6-.9,5.4-1.5,8l-10.5,50.9h-6.9l12.8-62h12.2l2.1,48.4c.1,2.6,0,5.2-.6,9.2h.2c1.1-3.1,2.1-6.2,3.5-9.3l22.3-48.3h0Z"/>
        <path class="cls-1" d="M1806,1117.7c10.2-235.1-273.3-411.6-537.9-356.7-264.5,54.8-392.3,285.1-425.7,356.2h43.3c57.9-97.4,116.5-173,216.4-201.1,63.5-17.9,113.3-13.8,236.1,54.7,56.5,31.6,184.5,126.4,321.9,145.4,59.7,8.2,145.9,1.6,145.9,1.6h0Z"/>
      </g>
    </g>
  </g>
</svg>