<?xml version="1.0" encoding="UTF-8"?>
<svg xmlns="http://www.w3.org/2000/svg" version="1.1" viewBox="0 0 2500 2500">
  <defs>
    <style>
      .cls-1 {
        fill: #a7a8aa;
      }

      .cls-1, .cls-2 {
        fill-rule: evenodd;
      }

      .cls-2 {
        fill: #292929;
      }
    </style>
  </defs>
  <!-- Generator: Adobe Illustrator 28.7.1, SVG Export Plug-In . SVG Version: 1.2.0 Build 142)  -->
  <g>
    <g id="Capa_1">
      <g>
        <path class="cls-2" d="M230,1078.3c13.2,0,20.8,10.7,20.8,25.5s-2.2,26.7-2.2,41.4,2.2,21.4,2.2,32.1c0,18.7-14.2,28.1-27.4,28.1s-26.3-10.7-25.2-32.1c0-12,1-17.4-5.4-26.7-7.6-9.3-18.6-12-28.5-12-41.7,0-46,49.5-46,89.6s4.4,87,47.1,87,19.7-1.3,26.3-9.3c7.6-9.3,7.6-17.4,7.6-29.4s0-17.4,4.4-25.5,12-10.7,20.8-10.7c20.8,0,30.7,18.8,30.7,42.8,0,61.5-47.1,89.6-92,89.6s-59.2-10.7-80-38.9c-19.7-25.5-28.5-69.6-28.5-105.8s5.4-72.3,19.7-100.4c17.5-30.8,47.1-48.2,77.8-48.2s41.7,9.3,57,29.4c-1-16.1,7.6-26.7,20.8-26.7h0ZM338.5,1202.7c0,18.7-14.2,26.7-28.5,26.7s-29.6-14.7-29.6-34.8c0-41.4,46.1-48.2,71.2-48.2s39.5,1.3,53.7,12c19.7,13.4,21.9,37.5,21.9,61.5v76.4c0,5.4-1,18.7,5.4,18.7h7.6c11,0,16.4,10.7,16.4,22.8,0,22.8-18.6,30.8-33.9,30.8s-31.7-6.6-37.3-25.5c-16.4,17.4-36.1,25.5-57,25.5-29.6,0-59.2-20.1-59.2-60.2,0-96.3,103-46.8,103-100.4s-12-22.8-23-22.8-11,1.3-11,9.3v8.1h.1ZM372.4,1271c-9.8,12-48.2,6.6-48.2,28.1s9.8,18.7,18.6,18.7c19.7,0,29.6-14.7,29.6-38.9v-8.1h-.1ZM500.5,1228.2c0-5.4,1-28.1-5.4-28.1s-6.6,2.7-11,2.7c-11,0-15.3-10.7-15.3-22.8s5.4-28.1,16.4-28.1c9.8,1.3,16.4,4,23,4s14.2-2.7,21.9-4c9.8,0,11,8.1,11,17.4v30.8c5.4-33.5,25.2-52.2,53.7-52.2s43.9,21.4,43.9,50.9-11,40.2-28.5,40.2-23-10.7-23-26.7,1-10.7,3.2-16.1c-37.3-2.7-38.3,58.8-38.3,90.9s-1,28.1,6.6,28.1,6.6-2.7,11-2.7c11,0,14.2,10.7,14.2,22.8s-5.4,28.1-16.4,28.1c-17.5,0-30.7-4-44.9-4s-25.2,4-37.3,4-16.4-12-16.4-28.1,4.4-22.8,15.3-22.8,7.6,2.7,11,2.7c6.6,0,5.4-22.8,5.4-28.1v-58.8h-.1ZM682.4,1228.2c0-5.4,1-28.1-5.4-28.1s-7.6,2.7-11,2.7c-11,0-15.4-10.7-15.4-22.8s5.4-28.1,16.4-28.1c9.8,1.3,16.4,4,23,4s14.2-2.7,21.9-4c9.8,0,9.8,8.1,9.8,17.4v30.8c6.6-33.5,26.3-52.2,54.8-52.2s43.9,21.4,43.9,50.9-11,40.2-28.5,40.2-24.1-10.7-24.1-26.7,2.2-10.7,4.4-16.1c-37.3-2.7-38.3,58.8-38.3,90.9s-1,28.1,6.6,28.1,6.6-2.7,11-2.7c11,0,14.2,10.7,14.2,22.8s-5.4,28.1-16.4,28.1c-17.5,0-30.7-4-44.9-4s-25.2,4-37.3,4-16.4-12-16.4-28.1,4.4-22.8,15.4-22.8,6.6,2.7,11,2.7c6.6,0,5.4-22.8,5.4-28.1v-58.8h-.1ZM895.1,1268.3c-6.6,0-15.3-2.7-15.3,9.3,0,22.8,15.3,40.2,33.9,40.2,28.5,0,26.3-32.1,52.6-32.1s21.9,9.3,21.9,25.5-11,32.1-21.9,41.4c-16.4,12-35.1,16.1-53.7,16.1-53.7,0-87.6-44.1-87.6-109.7s32.9-112.4,86.6-112.4,41.7,5.4,55.9,21.4c16.4,17.4,24.1,45.5,24.1,71s-2.2,29.4-21.9,29.4h-74.6ZM925.6,1224.2c5.4,0,11,1.3,11-6.6s-3.2-13.4-6.6-17.4c-5.4-5.4-11-8.1-17.5-8.1-9.8,0-16.4,2.7-23,10.7-3.2,4-8.8,10.7-8.8,16s11,5.4,14.2,5.4h30.7ZM1080.2,1287c0,5.4-1,28.1,6.6,28.1s6.6-2.7,11-2.7c11,0,14.2,10.7,14.2,22.8s-5.4,28.1-19.7,28.1-27.4-4-40.5-4-25.2,4-36.1,4-18.6-12-18.6-28.1,3.2-22.8,14.2-22.8,7.6,2.7,11,2.7c7.6,0,6.6-22.8,6.6-28.1v-73.5c0-14.7,0-16-11-16s-20.8-4-20.8-21.4,5.4-24,18.6-24,13.1,1.3,13.1-13.4c1-44.1,32.9-62.9,65.8-62.9s24.1,2.7,33.9,9.3c11,6.6,19.7,20.1,19.7,36.2s-9.8,30.8-25.2,30.8-21.9-9.3-21.9-24,1-6.6,2.2-10.7c-2.2-1.3-3.2-1.3-6.6-1.3-12,0-16.4,9.3-16.4,22.8s1,13.4,12,13.4,23,1.3,23,21.4-6.6,24-20.8,24-14.2-1.3-14.2,16v73.5h0Z"/>
        <path class="cls-2" d="M1293.9,1254.9c0,66.9-27.4,113.8-85.4,113.8s-87.6-42.8-87.6-111.1,30.7-111.1,87.6-111.1,85.4,42.8,85.4,108.4h0ZM1208.3,1197.4c-27.4,0-33.9,33.5-33.9,60.2s6.6,60.2,30.7,60.2,21.9-4,27.4-17.4c5.6-13.4,7.6-29.4,7.6-42.8,0-26.7-5.4-60.2-31.7-60.2h-.1Z"/>
        <path class="cls-2" d="M1318,1228.2c0-5.4,1-28.1-6.6-28.1s-6.6,2.7-11,2.7c-11,0-14.2-10.7-14.2-22.8s5.4-28.1,30.7-28.1c6.6,1.3,13.2,4,20.8,4s15.3-2.7,23-4c11,0,8.8,12,8.8,22.8v96.3c0,8.1,0,22.8,4.4,30.8,3.2,6.6,11,12,18.6,12s18.6-5.4,24.1-16.1c6.6-13.4,7.6-26.7,7.6-41.4v-28.1c0-5.4,1-28.1-6.6-28.1s-6.6,2.7-11,2.7c-11,0-14.2-10.7-14.2-22.8s5.4-28.1,28.5-28.1c6.6,1.3,13.1,4,20.8,4s15.3-2.7,23-4c12,0,11,9.3,11,20.1v115.1c0,5.4-1.2,28.1,5.4,28.1s6.6-2.7,11-2.7c11,0,15.3,10.7,15.3,22.8s-6.6,28.1-19.7,28.1-16.4-4-24.1-4-14.2,4-20.8,4c-12,0-12-13.4-12-21.4v-8.1c-12,22.8-36.1,34.8-58.1,34.8s-37.3-8.1-47.1-25.5c-8.8-17.4-7.6-41.6-7.6-61.5v-53.4h0ZM1552.4,1228.2c0-5.4,1.2-28.1-6.6-28.1s-6.6,2.7-11,2.7c-11,0-14.2-10.7-14.2-22.8s5.4-28.1,16.4-28.1c9.8,1.3,16.4,4,23,4s14.2-2.7,21.9-4c9.8,0,9.8,8.1,9.8,17.4v30.8c6.6-33.5,26.3-52.2,54.8-52.2s42.7,21.4,42.7,50.9-9.8,40.2-28.5,40.2-23-10.7-23-26.7,2.2-10.7,4.4-16.1c-37.3-2.7-38.3,58.8-38.3,90.9s-1,28.1,6.6,28.1,6.6-2.7,11-2.7c11,0,14.2,10.7,14.2,22.8s-5.4,28.1-16.4,28.1c-18.6,0-31.7-4-44.9-4s-25.2,4-37.3,4-16.4-12-16.4-28.1,3.2-22.8,14.2-22.8,7.6,2.7,11,2.7c7.6,0,6.6-22.8,6.6-28.1v-58.8h0ZM2459.7,1208.9c0,4.1-3.2,8.1-3.2,8.1l-180.7,219.4c-6.6,9.3-11,4-8.8-2.7,4.4-10.7,11-22.8,17.5-49.5,9.8-38.9,9.8-71,5.4-89.6-3.2-17.4-20.8-53.6-59.2-53.6s-63.6,54.9-62.5,74.9c1,13.4,0,33.5,17.5,52.2,13.1,13.4,25.2,9.3,28.5,8.1,3.2,0,9.8-5.4,9.8,8.1s-11,33.5-17.5,42.8c-7.6,8.1-31.8,30.8-66.8,30.8s-46.1-10.7-63.6-36.2c-13.2-18.7-21.9-40.2-29.6-71-15.3-56.1-17.5-97.7-17.5-141.8s3.2-84.3,17.5-140.5c6.6-29.4,18.6-56.3,29.6-73.7,16.4-25.5,42.7-36.2,63.6-36.2,35.1,0,59.2,22.8,66.8,32.1,6.6,8.1,17.5,26.7,17.5,42.8s-6.6,6.6-9.8,6.6c-3.2-1.3-15.3-5.4-28.5,8.1-17.5,18.7-16.4,40.2-17.5,52.2-1,21.4,13.1,74.9,62.5,74.9s55.9-34.8,59.2-53.6c4.4-18.7,4.4-50.9-5.4-88.4-6.6-28.1-13.1-38.7-17.5-50.9-2.2-5.4,2.2-12,8.8-2.7l180.7,219.4s3.2,4,3.2,9.3h0v.4Z"/>
        <path class="cls-1" d="M1827.1,1222.1c0,5.4,4.4,9.3,4.4,9.3l191.7,224.8c5.4,5.4,6.6,0,5.4-4-1.2-2.7-2.2-4-7.6-14.7-52.6-92.3-51.5-215.5-51.5-215.5,0,0-1-123.2,51.5-214.1,5.4-10.7,6.6-12,7.6-16.1,1-4,0-9.3-5.4-4l-191.7,224.8s-4.4,4-4.4,9.3h0Z"/>
      </g>
    </g>
  </g>
</svg>