<?xml version="1.0" encoding="UTF-8"?>
<svg xmlns="http://www.w3.org/2000/svg" version="1.1" viewBox="0 0 2500 784">
  <defs>
    <style>
      .cls-1 {
        fill: #292929;
      }
    </style>
  </defs>
  <!-- Generator: Adobe Illustrator 28.7.1, SVG Export Plug-In . SVG Version: 1.2.0 Build 142)  -->
  <g>
    <g id="Capa_1">
      <g>
        <path class="cls-1" d="M1301.6,218.1h-72.4l-40.8,66.2h72.4l40.9-66.2ZM1489.4,392.3c-37.9,3.1-104.9,37.1-141.4,111.2s-36.6,119.9-36.6,119.9c0,0,19.2-21.1,48.8-43.2s51.5-29.9,51.5-29.9c0,0,5.5-27.2,19.1-55.7,13.3-27.7,34.3-56.5,60.3-63.1,52.7-13.3,27.5,83-11.3,145.8-20.8,33.7-94.7,130.7-158.3,130.7s-75.9-61.3-62.4-118.6c13.4-57.3,31.9-130.1,124.7-262.4s193.2-210.7,251.3-243.7c59.7-33.8,84-19,84-19,0,0-76.2,46.9-119.6,103.4-41.5,54-66.2,114.7-47,144.5,18.3,28.4,82.9,28.9,154-73.8,70.2-101.3,52.5-161.6,52.5-161.6,0,0,8.5-2.8,14.2-3.5,34.2-4.6,61.6,4.5,104.1,26.2,44.5,22.8,87.1,59.4,145.6,89.3,17.6-19.3,37.2-39.8,57.8-59.8-78.8-38.4-138.6-93-215.9-98.3-67.3-4.6-120.3,20-120.3,20,0,0-20.5-27.9-83.8-18.8-63.3,9.1-258.4,90.7-424.3,356.4-150,240.3-79.3,378,28.5,376.4,116.9-1.7,228.1-131.7,265.8-239s-6.8-136.3-41.1-133.5h0ZM1718.9,169c-19.6,47.9-48.6,81.4-77,106.9-36.5,32.8-56.5,31.7-65.2,25.1-22.7-17.3,7.7-82.3,60.5-140.5,52.5-57.9,97.8-76,97.8-76,0,.7,7.5,27-16,84.4ZM2370,99.2c-53.5,34.4-127.7,65.6-198.9,58.7-18,18.7-37.3,40.2-56.7,63.8,123.6,24.4,231.6-52.2,289.2-117.4,35.9-40.7,53.6-77,53.6-77,0,0-34.3,37.8-87.3,71.9h0Z"/>
        <path class="cls-1" d="M2311.5,401.2h-76.1l-12.4,19.1s-15.5-28-41.8-27.6c-45.1.8-90.2,35.2-142.6,94.9-38.4,43.7-102.1,141.1-102.1,141.1,0,0-48.9,75.3-73.6,69.4-42.1-10.1,35.4-166,35.4-166,0,0,40.7-25.2,93.5-69.6,33.2-28,71.5-66.4,106.6-102.1,32-32.4,69.6-76.5,105.5-124.7-9.2,1.5-18.6,2.4-28.2,2.9-32.1,42.4-66.4,80.3-95.6,110.4-43.4,44.8-83.3,81.5-112.3,104.9-27.8,22.4-45.6,32.5-45.6,32.5,0,0,53-108.9,141.4-229.3,88.4-120.3,212.2-232.1,202.5-179.1-2.8,15.2-12.2,37.1-26.5,63,10.1-2.1,19.8-4.7,29.2-7.7,21.3-44,28.6-80.2,12.7-90.7C2216.7,0,2051.7,176.7,1969,279.4c-82.7,102.7-157.5,259.5-157.5,259.5,0,0-12.9,5.4-27.2,8.1-9,1.7-12.9,1.3-14.4.8-.7-.3-.8-.8-.8-.8,0,0,72.7-136-1.7-154-71.9-17.4-196.4,115.6-240.7,208.1-30.4,63.5-47.5,143.3,4.6,162.4,56.4,20.6,152.3-82.4,174.8-112.3,22.5-29.9,50.7-79.7,50.7-79.7,0,0,13.8-.7,21.3-1.8,14.4-2.1,21.1-3.9,21.1-3.9,0,0-9.3,24.4-19.4,55.4-18.8,57.8-35.8,140.4,31.9,144.3,43.1,2.5,106.5-75.5,106.5-75.5,0,0-17,69.3,39,75.5,41.3,4.6,101.5-59.3,101.5-59.3,0,0-13.1,55,28.8,59.9,35.9,4.2,86.8-37.9,128.6-84.2,45.6-50.5,80.6-105.9,80.6-105.9h-26.5s-58.7,89.1-99.9,112.9c-33.8,19.6-22.2-11.8-12-28.2,11.3-18.1,153.3-259.3,153.3-259.3h0ZM1731.4,568.9c-1,2.4-20.1,35.5-40.5,61.6-22,28.1-62.2,70.4-86.3,61.4-37.8-14,3.8-96.3,31-136.2s30.3-42.6,31-43.7,1.5-2,2.2-.8,9.3,17.6,26.4,31.9c17.2,14.3,33.7,21.8,35,22.3s2.3,1,1.2,3.4h0ZM1748.4,539.3c-2.4,4-4.1,4.2-9,2.8-8.7-2.4-44.9-19.1-44.6-56.1.3-36.1,51.2-71.5,71.1-56.4,18.6,14.1,9.7,50.2,2.7,68.5-7,18.4-18.6,38.5-20.2,41.1h0ZM2094.3,628.6c-10.1,13.8-18.5,26.2-26,35-16.2,18.7-26.8,27.4-36.2,29.7-4.7,1.2-10.6.9-14.5-1.5-13.8-8.4-4.1-41.2,19.9-85.3,22-40.3,47.5-80.6,89.4-127,42-46.6,58.1-48.8,69.9-48.3,9.9.4,11.3,10.8,11.3,10.8,0,0-.7,2.4-2.3,5.1-13.9,24-83.7,143.4-111.4,181.3h0ZM971.3,686.9c-46.2-28.5-105.4-46.8-173.4-47.4-175.3-1.5-366.1,83.6-495.4,84.8-152.5,1.3-160.1-116-148.8-180.4,24.3-138.8,122.8-271.1,186-340.9,63.3-69.8,129.6-124,184.8-137.8s50,28.1,43.2,33.8c-7,.1-20.3,1.6-27.9,6.9-11.9,8.2-27.7,23.2-28.7,47-1.7,36.6,45.6,43.1,79.9-33.7,23.3-52.3-13.7-87.8-44.4-91.2-42.2-4.7-106.6,10-183.5,59.4C229,173.3,50,364.4,45.4,576.3c-2.6,120.9,76.4,189,184.8,189s255.5-66.4,399.2-68.1c89-.8,146.5,30.4,175.7,81.2,0,0,29-48.2,93.5-50.8,63.8-2.6,134.1,15.3,191.8,55.9-19.2-27.8-73.7-68.6-119.2-96.7h0Z"/>
        <path class="cls-1" d="M572.1,210.7c-73.5-18.7-195.5,106.4-246.9,208.2-31.7,62.8-45.6,141.7,10.8,162.3s152.3-82.4,174.8-112.3c22.5-29.9,59.4-89.9,59.4-89.9,0,0,11.3-2.2,18.7-3.9s19.4-5.1,19.4-5.1c0,0-13.9,24.8-26.4,50.1-14.9,30.1-55.3,130.3,22.7,160.3,74.5,28.7,180.6-91,186.1-93.2,0,0-31.6,81.6,17.5,94.1,53.8,13.8,112.8-55.2,112.8-55.2,0,0-12.4,51.8,29.5,56.6,75.1,8.7,207.9-183.4,207.9-183.4h-26.5s-67.6,87-100.1,104.9-20.8-14-12-28.2c11.3-18.2,154.8-258.1,154.8-258.1h-76.1l-8.8,14s-15.7-23.9-41.9-22.2c-76.3,5-167.1,126.6-207,180.2-39.9,53.6-126,156-171.4,137.7-49.4-19.9-.3-111.2,32.2-164.8,35.4-58.4,98.1-116.2,122.9-116.6,30.5-.6,18.5,27.1,18.5,27.1,0,0-22.8-2.8-39.3,18-11.7,14.7-21.4,36.2-10.3,47.9,18,18.9,41.4-.3,55.3-21.7,43.5-66.7,11.7-101.8-22.5-106.9-72.9-10.9-140,82.7-191,117.5-35.4,24.1-50.2,22.2-50.2,22.2,0,0,61.4-120.5-12.8-139.4h0ZM902,426.2c22-40.3,52.1-79.2,91.1-127.9s58.5-52.7,70.3-52.2c9.9.4,11.3,10.8,11.3,10.8,0,0-84.9,147.9-115.7,190.1-10.1,13.8-18.7,25.5-26.2,34.2-16.2,18.7-28,27.8-37.1,30-4.7,1.2-10.6.9-14.5-1.5-13.8-8.4-3.3-39.5,20.8-83.5h0ZM541.7,378.2c-1.1,2.4-25.3,42.5-45.7,68.5-22,28.1-62.5,70.5-86.7,61.6-37.8-14,2.5-95.7,29.7-135.6,27.2-39.9,31.2-45.1,31.9-46.1.8-1.1,1.5-2,2.2-.8.7,1.2,9.3,19,28,31,18.7,12,37.9,17.5,39.3,18s2.3,1.1,1.2,3.4h0ZM573.4,315.8c-7,18.4-13.3,30-14.6,32.7-2.1,4.4-7.3,3-7.3,3-5.9-.3-52.2-10.8-51.9-47.9.3-36.1,51.2-71.5,71.1-56.4,18.6,14.1,9.7,50.2,2.7,68.5h0ZM2254.2,721.3c-4.4-2.5-9.4-3.8-14.8-3.8s-10.4,1.3-14.8,3.8c-4.4,2.5-7.9,5.9-10.5,10.3-2.5,4.3-3.8,9.1-3.8,14.1s1.3,9.9,3.8,14.2c2.5,4.3,6,7.7,10.5,10.2,4.4,2.5,9.4,3.8,14.8,3.8s10.4-1.3,14.8-3.8,7.9-5.9,10.5-10.2c2.5-4.3,3.8-9,3.8-14.2s-1.3-9.8-3.8-14.1c-2.5-4.3-6-7.8-10.5-10.3ZM2259.4,757.4c-1.9,3.4-4.6,6.1-8.1,8.1-3.5,2-7.5,2.9-11.9,2.9s-8.5-1-11.9-2.9-6.2-4.7-8.1-8.1c-1.9-3.4-2.9-7.3-2.9-11.7s1-8.1,2.9-11.6,4.7-6.1,8.2-8.1,7.5-2.9,11.9-2.9,8.4,1,11.9,2.9,6.2,4.7,8.2,8.1c1.9,3.4,2.9,7.3,2.9,11.6s-1,8.2-2.9,11.7h0Z"/>
        <path class="cls-1" d="M2250.3,745.3c.8-1.3,1.2-2.8,1.2-4.5s-.7-4.2-2.2-5.7-3.5-2.3-5.9-2.3h-14.8v25.5h6.5v-9.3h5l6,9.3h7.4l-6.7-9.9c1.5-.7,2.7-1.7,3.5-3.1ZM2244.1,742.6c-.5.4-1.1.7-2,.7h-7v-5h7c.8,0,1.5.2,2,.7.5.4.7,1.1.7,1.8s-.2,1.4-.7,1.8h0Z"/>
      </g>
    </g>
  </g>
</svg>