<?xml version="1.0" encoding="UTF-8"?>
<svg xmlns="http://www.w3.org/2000/svg" version="1.1" viewBox="0 0 192.8 192.8">
  <defs>
    <style>
      .cls-1 {
        fill: #fff;
      }

      .cls-1, .cls-2, .cls-3 {
        fill-rule: evenodd;
      }

      .cls-2 {
        fill: #a7a8aa;
      }

      .cls-3 {
        fill: #292929;
      }
    </style>
  </defs>
  <!-- Generator: Adobe Illustrator 28.7.1, SVG Export Plug-In . SVG Version: 1.2.0 Build 142)  -->
  <g>
    <g id="Capa_1">
      <g>
        <polygon class="cls-3" points="166.5 119 8.5 119 8.5 73.7 184.2 73.7 166.5 119 166.5 119"/>
        <polygon class="cls-2" points="63.4 105.3 70.5 105.3 80.2 80.8 73.1 80.7 63.4 105.3 63.4 105.3"/>
        <path class="cls-2" d="M95.6,87.2l-.3.8c-1.5-1-3.7-1.2-4.6-1.2-7.1,0-13.7,5.2-14.7,11.6-.3,2,.2,3.8,1.4,5.1,1.1,1.2,2.8,1.8,5.1,2,2.5.1,4.8-.3,6.9-1.3-2.7,3.5-7.3,3.8-8.8,3.7-1.6,0-3.4,0-4.8-.8l-.5-.2-1.9,4.6.5.2c1.5.4,3.8.7,5.7.7,8.8,0,14.4-3.1,16.8-9.3l6.1-16h-7.1ZM85.6,101.4c-1,0-1.7-.3-2-.9-.7-1.1-.2-3.1.5-4.6,1.6-3.4,4.8-4.7,6.5-4.8,1.5,0,2.5.2,3.2.8-2.4,8.7-6.9,9.4-8.2,9.4h0Z"/>
        <path class="cls-2" d="M63.9,89.9c-1.6-2-4.7-3.2-8.5-3.2-6.1,0-13.3,3.5-14.7,10.2-.5,2.3-.1,4.3,1,5.8,2.1,2.6,6.1,2.9,7.7,2.9,8.9.2,14.2-5.2,15.4-10.5.5-2,.1-3.8-1-5.2h0ZM57.7,94.1c-1.5,7.2-5.8,7.6-6.6,7.6-1.3,0-2.2-.3-2.8-.9-.6-.7-.7-1.8-.4-3.2.6-2.8,3-6.9,7.3-6.9,1,0,1.7.3,2.1.8.5.6.7,1.6.4,2.7h0Z"/>
        <path class="cls-2" d="M33.2,100.5c-2.5,0-4.4-.7-5.4-2-.9-1.1-1.2-2.6-.9-4.3,1-5.4,6.3-9.4,12.3-9.4,1.8,0,3.5.3,5.1,1l.4.2,2.3-4.5-.5-.2c-1.7-.8-3.9-1.2-6.1-1.2-10.6,0-20,6-21.4,13.9-.5,2.8,0,5.3,1.7,7.2,2.1,2.6,6,4,10.5,4.1,1.8,0,4-.2,6-.7h.2c0,0,2.6-5.8,2.6-5.8l-1.2.6c-1.1.5-3.7,1.3-5.7,1.2h0Z"/>
        <path class="cls-2" d="M137.6,86.9l2-5.2-7.6,1.3-1.5,3.9h-2.8s-1.4,3.8-1.4,3.8h2.8l-3.2,7.7c-.9,2.3-1,4,0,5.2.9,1.2,2.5,1.8,5,1.8,1.3,0,3.1-.2,4.6-.6h.2c0,0,1.9-4.7,1.9-4.7l-1.1.4c-.7.3-1.9.6-2.9.6-.7,0-.9-.1-1-.3-.1-.1-.4-.7.3-2.4,0,0,3.2-7.8,3.2-7.8h4.2s1.5-3.8,1.5-3.8h-4.3s0,0,0,0Z"/>
        <path class="cls-2" d="M159.5,89.5c-1.3-1.7-3.6-2.6-6.7-2.6-6.8,0-12.6,3.8-14.2,9.2-.8,2.8-.4,5.3,1.2,7.2,1.7,2.1,4.6,3.2,8.3,3.2,2.1,0,4.6-.4,6.8-1h.2c0,0,2.5-5.2,2.5-5.2l-1.2.5c-1.6.8-4.5,1.2-6.4,1.2-1.6,0-2.8-.5-3.6-1.4-.6-.7-.8-1.7-.6-2.8h13.9c0,0,.2-.4.2-.4,1.2-3.2,1-6-.4-7.9h0ZM154,93.9h-6.8c.7-1.5,2.3-3,4.8-3,.9,0,1.6.2,1.9.7.4.5.4,1.3,0,2.3h0Z"/>
        <path class="cls-2" d="M124.2,89.8c-1.3-1.9-4.4-2.9-8.9-3-3.9,0-6,.3-8.1.6h-.7c0,.1-2,5.3-2,5.3l1-.3c1.8-.6,4.9-1.2,9.1-1.2,2.1,0,2.9.5,3.2.8.1.2.2.4.2.7h-.1c-1.6-.1-4-.2-6.8,0-2,.1-3.9.4-5.8,1.2-.7.3-1.3.6-1.8,1,0,0-.6.4-.8.7h0c-.8.7-1.4,1.6-1.8,2.6h0c-.2.7-.4,1.3-.5,1.9-.1,1.4.3,2.7,1.2,3.7,1.2,1.3,3.3,2.1,6,2.1,2.5,0,5-.6,6.5-1.2,0,0,0,.9,0,.9h.2c0,0,.5-.2.5-.2v.2h7s-.1-.6-.1-.6c-.2-.9-.4-1.8.6-4.2l.6-1.6,1.8-4.6c.7-1.9.7-3.5-.2-4.8h0ZM115.1,100.2c-1.2.6-3,1-4.6,1-1.8,0-2.5-.3-2.8-.7-.2-.3-.3-.6-.2-1,.2-1.1,1-2,4.2-2.3,1.3-.1,2.6-.2,4.6,0l-1.2,3.1h0Z"/>
        <polygon class="cls-1" points="73.4 81.2 64.1 104.8 70.2 104.8 79.4 81.3 73.4 81.2 73.4 81.2"/>
        <path class="cls-1" d="M55.4,87.2c-6.2,0-12.9,3.6-14.2,9.8-1.3,6.6,4.5,8.1,8.3,8.1,8.5.1,13.7-4.9,14.9-10.1,1.2-5-3.2-7.8-9-7.8h0ZM51.1,102.1c-1.5,0-2.5-.4-3.1-1.1-.7-.8-.8-2-.5-3.6.6-2.9,3.2-7.3,7.8-7.3,1.1,0,1.9.3,2.5.9.6.7.8,1.8.5,3.1-1.6,7.6-6.2,7.9-7.1,7.9h0Z"/>
        <path class="cls-1" d="M106.9,88c2.2-.3,4.3-.7,8.4-.7,6.5,0,10.5,2.2,8.7,7.1-.8,2.1-1.7,4.3-2.4,6.2-1,2.6-.8,3.6-.6,4.5h-6.4c0-.4,0-.8,0-1.2-.9.5-4.1,1.5-7.2,1.5-5.1,0-6.9-2.6-6.7-5.2.2-2.3,1.5-4.4,4.4-5.5,1.9-.8,3.8-1,5.8-1.2,3.1-.2,5.8,0,7.3,0,.3-.9.7-2.7-3.7-2.7-4.6,0-7.8.7-9.2,1.2l1.6-4h0ZM111.6,96.7c-3.2.3-4.4,1.2-4.7,2.7-.2,1.2.6,2.4,3.6,2.3,1.8,0,3.7-.5,5-1.2l1.5-3.9c-2.2-.1-3.8,0-5.4,0h0Z"/>
        <path class="cls-1" d="M95.9,87.7l-.4,1.1c-1.2-1.1-3.3-1.4-4.8-1.4-7.3,0-13.3,5.3-14.2,11.2-.3,1.9.2,3.5,1.3,4.7,1.1,1.2,2.8,1.7,4.8,1.8,3,.1,5.7-.4,8.3-2.1-2.1,4.3-6.7,5.6-10.2,5.6-1.7,0-3.6,0-5-.8l-1.5,3.6c1.5.4,3.8.7,5.6.7,8.5,0,14-3,16.3-9l5.9-15.3h-6.1s0,0,0,0ZM85.6,101.9c-3.6,0-3.2-3.5-1.9-6.2,1.6-3.4,4.8-5,6.9-5.1,1.5,0,2.8.2,3.8,1.2-2.4,9.3-7.3,10.1-8.8,10.1h0Z"/>
        <path class="cls-1" d="M39.2,99.7c-1.1.5-3.8,1.3-5.9,1.3-5.7,0-7.5-3.5-6.8-6.9,1-5.6,6.4-9.8,12.8-9.8,2,0,3.7.4,5.3,1.1l1.9-3.6c-1.6-.7-3.8-1.2-5.9-1.2-10.2,0-19.6,5.7-21,13.5-1.2,6.8,4.5,10.7,11.7,10.7,2,0,4.1-.3,5.9-.7l2-4.4h0Z"/>
        <path class="cls-1" d="M136.9,87.4l1.9-5.1-6.5,1.1-1.5,3.9h-2.8l-1,2.8h2.8l-3.4,8.4c-.9,2.1-.9,3.7-.2,4.8.8,1.1,2.3,1.6,4.6,1.6,1.3,0,3.1-.3,4.5-.6l1.4-3.3h0c-.8.3-2,.6-3.1.7-.7,0-1.1-.1-1.4-.5-.4-.5-.3-1.5.3-2.9,0,0,2.8-6.9,3.3-8.1h4.2s1.1-2.8,1.1-2.8h-4.2s0,0,0,0Z"/>
        <path class="cls-1" d="M156.6,101.3c-1.7.8-4.6,1.2-6.6,1.2-1.7,0-3.1-.6-3.9-1.6-.8-.9-.9-2.2-.6-3.6h13.9c0,0,0-.1,0-.1,1.1-3,1-5.7-.4-7.4-1.2-1.6-3.4-2.4-6.3-2.4-6.6,0-12.2,3.6-13.7,8.9-.7,2.7-.4,5,1.1,6.8,1.6,1.9,4.4,3,7.9,3,2,0,4.4-.3,6.7-1l1.8-3.7h0ZM152,90.4c1.1,0,1.9.3,2.3.8.5.7.5,1.7,0,3.1h-7.9c.6-1.9,2.4-4,5.6-3.9h0Z"/>
        <path class="cls-1" d="M166.1,87c0,.4-.1.8-.4,1s-.6.4-1,.4-.8-.1-1-.4c-.3-.3-.4-.6-.4-1s.1-.8.4-1c.3-.3.6-.4,1-.4s.8.1,1,.4.4.6.4,1h0ZM165.8,87c0-.3-.1-.6-.3-.8-.2-.2-.5-.3-.8-.3s-.6.1-.8.3c-.2.2-.3.5-.3.8s.1.6.3.8c.2.2.5.3.8.3s.6-.1.8-.3c.2-.2.3-.5.3-.8h0ZM164.8,87.8v-.3c0-.1,0-.2,0-.3,0,0-.1-.1-.2-.1h-.1v.7h-.4v-1.6h.6c.2,0,.3,0,.4,0s.1.2.1.2h0c0,.2,0,.3,0,.3,0,0-.1,0-.2.1.1,0,.2.1.2.2,0,0,0,.2,0,.3v.3h-.4,0ZM164.9,86.7h0c0,0,0-.1,0-.2,0,0,0,0-.1,0h-.2v.4h.2c0,0,0,0,.1,0s0,0,0-.1h0Z"/>
      </g>
    </g>
  </g>
</svg>