<?xml version="1.0" encoding="UTF-8"?>
<svg xmlns="http://www.w3.org/2000/svg" version="1.1" viewBox="0 0 163 25">
  <defs>
    <style>
      .cls-1 {
        fill: #a7a8aa;
      }

      .cls-1, .cls-2 {
        fill-rule: evenodd;
      }

      .cls-2 {
        fill: #292929;
      }
    </style>
  </defs>
  <!-- Generator: Adobe Illustrator 28.7.1, SVG Export Plug-In . SVG Version: 1.2.0 Build 142)  -->
  <g>
    <g id="Capa_1">
      <g id="Symbols">
        <g id="Header_x2F_Pre-login---Compact">
          <g id="Header_x2F_Logo">
            <g id="Group-26">
              <path id="Combined-Shape" class="cls-2" d="M16.3,13.3s.1-.9-.9-.9h-7.7c-1.1,0-.9-.9-.9-.9l.3-1.8s0-.9,1.2-.9h8.7c.8,0,.9-.9.9-.9l.3-1.5s.1-.9-.9-.9H4.1c-1.1,0-1.2.9-1.2.9L0,21.6s-.2.9.9.9h2.9c.8,0,.9-.9.9-.9l1-5s0-.9,1.2-.9h8.2c.8,0,.9-.9.9-.9l.3-1.5ZM79.4,19.1c-1.1,0-.9-.9-.9-.9l.4-1.9s0-.9,1.2-.9h8.6c.8,0,.9-.9.9-.9l.3-1.5s.1-.9-.9-.9h-8.2c-1.1,0-.9-.9-.9-.9l.3-1.5s0-.9,1.2-.9h9.2c.8,0,.9-.9.9-.9l.3-1.5s.1-.9-.9-.9h-13.6c-1.1,0-1.2.9-1.2.9l-3,15.2s-.2.9.9.9h14.4c.8,0,.9-.9.9-.9l.3-1.5s.1-.9-.9-.9h-9.3ZM104.1,12.2c-1.1,0-1.2.9-1.2.9l-.3,1.5s-.2.9.9.9h2.7s.8,0,.6.8l-.2,1.3s-.1,1.1-.8,1.3c0,0-1.8.6-4.5.6s-6.3-1.1-6.3-4.9,4.9-6.2,8.5-6.2c0,0,3.1,0,5,1.2,0,0,.6.5,1.1.1l2.5-1.6s1.1-.5.3-1.1c0,0-2.4-1.9-8.3-1.9s-13.3,2.8-14.1,9.7c0,0-1.2,7.9,10.8,8.1,0,0,4.1,0,8.4-1.2,0,0,1.5-.4,1.7-1.5l1.3-6.8s.2-1.1-1-1.1h-7.2ZM60.1,22.4c-.8,0-1.1-.9-1.1-.9l-6.1-15.2s-.4-.9.5-.9h3.6s1,0,1.3,1l3.8,10s.3,1,1,0l7.1-10s.7-.9,1.6-.9h3s1.3,0,.6.9l-11.4,15.2s-.6.9-1.6.9h-2.3ZM134.2,21.5l-6.1-15.1c-.4-.9-1.3-.9-1.3-.9h-2.2c-.8,0-1.5.9-1.5.9l-12,15.2c-.8,1,.5.9.5.9h3.3s.9,0,1.5-.9l1.6-2.1s.5-.8,1.3-.8h7.6s.9,0,1.2.9l.7,2s.3.9,1.1.9h3.6s1.1.1.7-.9ZM125.6,15.6h-3.5c-1.2,0-.7-.8-.7-.8l2.5-3.4c1.1-1.5,1.4,0,1.4,0l1.1,3.4c.3.9-.9.8-.9.8ZM46.2,5.5c-.8,0-1.4.9-1.4.9l-11,13.8c-.8,1-1.5,0-1.5,0l-2.4-3.7c-.7-1.1.8-1.6.8-1.6,1.8-.6,4.2-2,4.3-5.2,0-4.5-8-4.1-8-4.1h-7c-1.1,0-1.2.9-1.2.9l-3,15.2s-.2.9.9.9h2.9c.8,0,.9-.9.9-.9l1-5.1s0-.9,1.2-.9h.9c.7,0,1.1.8,1.1.8l2.9,5.1s.4.9,1.3.9h7.7s.9,0,1.5-.9l1.6-2.1s.5-.8,1.3-.8h7.7s.9,0,1.2.9l.7,2s.3.9,1.1.9h3.6s1.1.1.7-.9l-6.1-15.1c-.4-.9-1.3-.9-1.3-.9h-2.3ZM47.3,15.6h-3.5c-1.2,0-.7-.8-.7-.8l2.5-3.4c1.1-1.5,1.4,0,1.4,0l1.1,3.4c.3.9-.9.8-.9.8ZM26.4,12.4h-2.8c-1.1,0-.9-.9-.9-.9l.4-1.9s0-.9,1.2-.9h2.4s2.6-.1,3.2.7c0,0,.4.4.2,1.2-.2.8-1,1.7-3.7,1.7ZM51.7,0h-2.3c-.8,0-1.3.7-1.3.7l-1.7,2.2c-.6.8.5.8.5.8h2.3c.8,0,1.3-.7,1.3-.7l1.7-2.2c.6-.8-.5-.8-.5-.8Z"/>
              <path id="Fill-17" class="cls-2" d="M144.9,24c8.6-2.3,17.7-5.8,17.8-10.9,0,0,1.2-6.6-17.3-10.2,0,0-3.4-.7-4.1,0-.6.7,2,1.6,2,1.6,4.9,1.9,10.4,5,10.6,8.8,0,0,1.2,4.8-10.5,9.4,0,0-2.4.9-2.1,1.6.2.5,2.7-.1,3.6-.3"/>
              <path id="Fill-19" class="cls-1" d="M142.8,21.9c5-1.9,9.7-4.7,9.8-8.3,0,0,.8-4.3-9.6-8.4-.3-.1-1.7-.6-2.3.1-.5.6,1,1.6,1,1.6,2,1.6,3.9,3.9,3.9,6.5,0,2.3-1.9,4.4-4.3,6.2,0,0-2.3,1.5-1.8,2.4.7,1,2.5.3,3.4,0"/>
            </g>
          </g>
        </g>
      </g>
    </g>
  </g>
</svg>