<?xml version="1.0" encoding="UTF-8"?>
<svg xmlns="http://www.w3.org/2000/svg" version="1.1" viewBox="0 0 2500 183">
  <defs>
    <style>
      .cls-1 {
        fill: #292929;
      }
    </style>
  </defs>
  <!-- Generator: Adobe Illustrator 28.7.1, SVG Export Plug-In . SVG Version: 1.2.0 Build 142)  -->
  <g>
    <g id="Capa_1">
      <path class="cls-1" d="M2261.5,179.2h53.7V51.8h.5l101,127.4h83.3V3.8h-53.8v127.4h-.5l-101-127.4h-83.3M2043.5,82.1c0-21.8,5.4-35.1,33.7-35.1h62.9c28.3,0,33.7,13.3,33.7,35.1v18.9c0,25.4-5.4,35.1-30.8,35.1h-68.8c-25.4,0-30.8-9.7-30.8-35.1v-18.9ZM1988.3,117.7c0,51.3,28.8,63.4,77.2,63.4h86.3c48.4,0,77.2-12.1,77.2-63.4v-52.3c0-51.4-28.8-63.5-77.2-63.5h-86.3c-48.4,0-77.2,12.1-77.2,63.5M1763.8,47.4h75.5v131.8h53.8V47.4h75.6V3.8h-204.9M1525.5,179.2h53.8v-45.6h84.5c16.8,0,22,6.1,22,24.5v21.1h53.8v-29.8c0-28.8-13.3-35.8-29.3-38.7v-.5c24.7-5.8,30-19.6,30-43.1v-11.1c0-31.5-11.2-52.1-52.6-52.1h-162.3v175.4ZM1579.3,47.4h84c17,0,24.7,2.9,24.7,18.4v5.8c0,12.6-5.3,18.4-19.8,18.4h-88.9M1268.3,116.7c0,43.6,22.5,64.4,72,64.4h77c49.4,0,72-20.8,72-64.4V3.8h-53.8v101.3c0,22.2-8,31-30.1,31h-53.2c-22,0-30.1-8.7-30.1-31V3.8h-53.8M1064.9,46h95.2c10,0,15.7,3.6,15.7,13.8s-5.8,13.6-15.7,13.6h-95.2v-27.3ZM1064.9,109.7h96.4c11.6,0,19.4,2.6,19.4,14.5s-7.8,12.8-19.4,12.8h-96.4v-27.3ZM1011.2,179.2h171.2c30.7,0,53.5-8,53.5-46.5s-8.7-39-32.2-41.9v-.7c15-4.4,25.9-10.2,25.9-40.2s-20.8-46-63.7-46h-154.8M918.2,179.2h53.7V3.8h-53.7v175.4ZM717.8,179.2h174.6v-45h-120.9V3.8h-53.8M520.4,179.2h174.6v-45h-120.9V3.8h-53.8M369.8,44.5l34.9,65.9h-68.8l33.9-65.9ZM239.9,179.2h60.1l15.7-31h109l16.8,31h59.7L404.9,3.8h-70M0,179.2h53.8v-66.4h113.3v66.4h53.8V3.8h-53.8v62.5H53.8V3.8H0"/>
    </g>
  </g>
</svg>