<?xml version="1.0" encoding="UTF-8"?>
<svg xmlns="http://www.w3.org/2000/svg" version="1.1" viewBox="0 0 2500 1000">
  <defs>
    <style>
      .cls-1 {
        fill: #292929;
      }
    </style>
  </defs>
  <!-- Generator: Adobe Illustrator 28.7.1, SVG Export Plug-In . SVG Version: 1.2.0 Build 142)  -->
  <g>
    <g id="Capa_1">
      <path class="cls-1" d="M0,0v68.4h486.6V0H0ZM555.6,0v68.4h693.5S1178.2,0,1084.4,0h-528.8ZM1385.1,0v68.4h419.5L1779.7,0h-394.6ZM2105.4,0l-24.9,68.4h415.7V0h-390.8ZM0,133.1v68.4h486.6v-68.4H0ZM555.6,133.2v68.3h773.9s-9-52.7-24.8-68.3h-749.1ZM1385.1,133.2v68.3h465.5l-23-68.3h-442.5ZM2055.6,133.2l-23,68.3h463.7v-68.3h-440.6ZM139.8,266.1v68.5h210.7v-68.5h-210.7ZM695.4,266.1v68.5h210.7v-68.5h-210.7ZM1111.1,266.1v68.5h210.7s13.4-36.2,13.4-68.5h-224.1ZM1524.9,266.1v68.5h373.6l-24.9-68.5h-348.7ZM2009.7,266.1l-25,68.5h375.5v-68.5h-350.5ZM139.8,399.3v68.4h210.7v-68.4h-210.7,0ZM695.4,399.3v68.4h538.3s45-35.1,59.4-68.4h-597.7ZM1524.9,399.3v68.4h210.7v-38.1l13.4,38.1h386l14.4-38.1v38.1h210.7v-68.4h-395.6l-21,57.9-21.1-57.9h-397.6ZM139.8,532.3v68.4h210.7v-68.4h-210.7ZM695.4,532.3v68.4h597.7c-14.3-33.2-59.4-68.4-59.4-68.4h-538.3ZM1524.9,532.3v68.4h210.7v-68.4h-210.7ZM1773.9,532.3l25.5,68.4h289.5l24.2-68.4h-339.2ZM2149.4,532.3v68.4h210.7v-68.4h-210.7ZM139.8,665.4v68.4h210.7v-68.4h-210.7ZM695.4,665.4v68.4h210.7v-68.4h-210.7ZM1111.1,665.4v68.4h224.1c0-32.3-13.4-68.4-13.4-68.4h-210.7ZM1524.9,665.4v68.4h210.7v-68.4h-210.7ZM1821.8,665.4l24.7,68.4h194l24.9-68.4h-243.7ZM2149.4,665.4v68.4h210.7v-68.4h-210.7ZM3.8,798.4v68.5h486.6v-68.5H3.8ZM555.6,798.4v68.5h749.1c15.8-15.7,24.8-68.5,24.8-68.5h-773.9ZM1388.9,798.4v68.5h346.8v-68.5h-346.8ZM1869.7,798.4l25.4,68.5h98.7l23.8-68.5h-147.9ZM2149.4,798.4v68.5h350.6v-68.5h-350.6ZM3.8,931.6v68.4h486.6v-68.4H3.8ZM555.6,931.6v68.3h528.8c93.8,0,164.6-68.3,164.6-68.3h-693.5ZM1388.9,931.6v68.4h346.8v-68.4h-346.8ZM1917.9,931.6l24.4,68.2h4.2c0,0,24.8-68.2,24.8-68.2h-53.4ZM2149.4,931.6v68.4h350.6v-68.4h-350.6Z"/>
    </g>
  </g>
</svg>