<?xml version="1.0" encoding="UTF-8"?>
<svg width="100" height="100" xmlns="http://www.w3.org/2000/svg" version="1.1" viewBox="0 0 2500 2263">
  <defs>
    <style>
      .cls-1 {
        fill: #fff;
      }

      .cls-2 {
        fill: #292929;
      }

      .cls-3 {
        fill: #a7a8aa;
      }
    </style>
  </defs>
  <!-- Generator: Adobe Illustrator 28.7.1, SVG Export Plug-In . SVG Version: 1.2.0 Build 142)  -->
  <g>
    <g id="Capa_1">
      <path class="cls-2" d="M656.2,1796.1h23.3v466.4h-88.3v-409.7c0-13.3,28.3-56.6,65-56.6ZM1139.2,1899.3c-43.3,0-76.6,18.3-99.9,55v-158.2h-10c-43.3,0-66.6,23.3-78.3,43.3v-3.3,268.2c0,104.9,55,158.2,164.9,158.2,109.9-1.7,163.2-61.6,163.2-178.2s-46.6-181.5-139.9-184.9h0ZM1112.6,2185.8c-50,0-75-36.6-73.3-106.6,3.3-68.3,26.6-101.6,75-101.6s71.6,33.3,75,101.6c0,71.6-26.6,106.6-76.6,106.6ZM1330.8,2079.2c3.3-113.3,58.3-176.5,176.5-176.5h26.6v91.6h-41.6c-50,0-71.6,31.6-71.6,83.3v183.2h-89.9v-181.5ZM1673.9,2170.8c15,13.3,35,20,61.6,20s35-5,48.3-15,21.7-20,25-30h83.3c-13.3,41.6-33.3,70-61.6,88.3s-60,26.6-99.9,26.6-51.6-5-73.3-13.3-40-21.7-55-36.6c-15-16.7-26.6-35-35-56.6s-11.7-46.6-11.7-73.3,5-50,13.3-71.6,20-41.6,35-56.6c15-16.7,33.3-28.3,55-38.3s45-13.3,71.6-13.3,55,5,76.6,16.7,40,26.6,53.3,45,23.3,40,30,65c6.7,23.3,8.3,50,6.7,76.6h-248.2c3.3,31.6,11.7,53.3,25,66.6h0ZM1780.5,1990.9c-11.7-11.7-28.3-18.3-51.6-18.3s-28.3,3.3-38.3,8.3-18.3,11.7-23.3,18.3c-6.7,8.3-10,15-13.3,23.3s-3.3,16.7-5,23.3h153.2c-1.7-25-10-43.3-21.7-55h0ZM774.5,1796.1h88.3v79.9h-88.3v-79.9ZM774.5,1916h88.3v344.8h-88.3v-344.8ZM2385.1,1611.2c-15,16.7-35,26.6-60,26.6s-45-10-60-26.6-20-45-20-78.3,6.7-60,20-76.6c15-16.7,35-26.6,60-26.6s45,10,60,26.6,20,45,20,76.6-5,58.3-20,78.3ZM2455,1404.6c-26.6-35-71.6-55-129.9-55s-103.3,16.7-129.9,55c-26.6,35-43.3,78.3-43.3,126.6s15,93.3,43.3,126.6c26.6,35,71.6,53.3,129.9,53.3s103.3-16.7,129.9-53.3c26.6-35,43.3-78.3,43.3-126.6,1.7-46.6-13.3-89.9-43.3-126.6M2022,1611.2c-11.7,16.7-31.6,26.6-56.6,26.6s-45-10-55-26.6c-11.7-20-16.7-45-16.7-78.3s5-53.3,16.7-71.6c11.7-20,30-30,56.6-30s31.6,5,45,15c20,16.7,31.6,50,31.6,93.3-5,30-8.3,55-21.7,71.6h0ZM2125.2,1248.1s-89.9-10-89.9,61.6v94.9c-10-15-21.7-26.6-40-38.3-15-10-35-11.7-55-11.7-45,0-79.9,16.7-108.3,50-26.6,31.6-40,79.9-40,139.9s11.7,93.3,40,121.6c26.6,31.6,79.9,45,126.6,45,164.9,0,161.6-139.9,161.6-139.9l5-323.1ZM1682.2,1569.5c0,30-10,50-25,61.6-16.7,10-35,16.7-53.3,16.7s-21.7-1.7-30-10-11.7-16.7-11.7-31.6,6.7-30,20-38.3c6.7-5,21.7-10,40-11.7l20-5c10-1.7,16.7-5,25-5,5-1.7,11.7-5,16.7-6.7l-1.7,30ZM1727.2,1374.7c-30-15-61.6-21.7-99.9-21.7-56.6,0-98.3,15-121.6,45-15,20-21.7,43.3-25,71.6h84.9c1.7-11.7,6.7-21.7,11.7-30,10-10,25-15,45-15s31.6,1.7,43.3,6.7c10,5,15,15,15,30s-6.7,20-20,25c-6.7,1.7-20,5-35,6.7l-30,1.7c-35,5-60,11.7-78.3,21.7-31.6,16.7-48.3,50-48.3,89.9s10,56.6,30,75c20,16.7,45,25,76.6,26.6,194.9,6.7,193.2-103.3,193.2-124.9v-126.6c1.7-36.6-11.7-66.6-41.6-81.6M1285.8,1429.6c21.7,0,38.3,6.7,50,20,6.7,10,11.7,21.7,11.7,35h94.9c-5-48.3-21.7-83.3-50-99.9-26.6-20-65-26.6-109.9-26.6s-94.9,15-124.9,48.3-45,78.3-45,134.9,11.7,93.3,40,124.9c26.6,31.6,70,48.3,126.6,48.3s99.9-20,129.9-56.6c16.7-25,26.6-50,30-78.3h-94.9c-1.7,16.7-6.7,31.6-16.7,43.3-10,10-25,16.7-48.3,16.7s-53.3-15-61.6-43.3c-5-15-10-35-10-60s1.7-48.3,10-61.6c15-30,35-45,68.3-45M1087.6,1354.7c-198.2,0-184.9,174.9-184.9,174.9v176.5h89.9v-164.9c0-26.6,1.7-48.3,10-60,11.7-21.7,35-35,71.6-35h10c5,0,10,0,15,1.7v-89.9h-6.7q-1.7-3.3-5-3.3M641.2,1446.3c11.7-11.7,30-20,53.3-20s38.3,5,53.3,16.7,21.7,30,21.7,53.3h-153.2c5-20,11.7-36.6,25-50ZM761.2,1611.2c-1.7,5-6.7,10-11.7,11.7-11.7,10-30,11.7-50,11.7s-35-1.7-48.3-11.7c-21.7-11.7-35-38.3-35-70h246.5c0-30,0-53.3-1.7-66.6-5-26.6-11.7-50-26.6-70-15-21.7-35-40-56.6-50s-50-15-79.9-15c-50,0-89.9,15-119.9,48.3-30,31.6-48.3,76.6-48.3,134.9s16.7,108.3,53.3,134.9c35,26.6,75,43.3,119.9,43.3s98.3-16.7,126.6-50c16.7-16.7,26.6-35,30-53.3l-98.3,1.7ZM491.3,1704.5h-83.3v-204.9c0-20-5-61.6-60-61.6s-61.6,25-61.6,61.6v204.9h-83.3v-204.9c0-20-5-61.6-60-61.6s-60,25-60,61.6v204.9H0v-203.2c0-84.9,55-149.9,141.6-149.9s78.3,16.7,103.3,48.3c25-30,60-48.3,103.3-48.3,89.9,0,141.6,61.6,141.6,149.9l1.7,203.2ZM2045.3,518.6C2045.3,233.8,1690.5.6,1252.5.6S459.7,233.8,459.7,518.6v30c0,303.1,309.8,548,792.8,548s792.8-244.8,792.8-548v-30Z"/>
      <path class="cls-3" d="M2017,518.6c0,268.2-341.4,486.3-761.2,486.3s-761.2-218.2-761.2-486.3S836.1,32.2,1255.8,32.2s761.2,218.2,761.2,486.3Z"/>
      <g>
        <path class="cls-1" d="M1002.7,365.3s-8.3,8.3-3.3,15c11.7,15,48.3,23.3,86.6,15,21.7-5,51.6-28.3,78.3-50,30-23.3,60-48.3,89.9-56.6,31.6-10,51.6-5,65-1.7,15,5,31.6,15,60,35,51.6,38.3,261.5,221.5,298.1,253.2,28.3-13.3,158.2-68.3,334.8-108.3-15-93.3-71.6-179.9-158.2-249.8-119.9,50-268.2,76.6-413.1,6.7,0,0-78.3-36.6-156.6-35-114.9,3.3-163.2,51.6-216.5,104.9l-65,71.6Z"/>
        <path class="cls-1" d="M1668.9,595.2c-1.7-1.7-246.5-214.9-301.5-256.5-31.6-23.3-50-30-68.3-33.3-10-1.7-23.3,0-33.3,3.3-25,6.7-60,30-89.9,53.3-31.6,25-60,48.3-86.6,53.3-35,8.3-76.6-1.7-94.9-15-8.3-5-13.3-11.7-16.7-18.3-6.7-16.7,6.7-30,8.3-31.6l66.6-73.3,23.3-23.3c-21.7,3.3-41.6,8.3-61.6,13.3-25,6.7-48.3,13.3-71.6,13.3s-63.3-8.3-73.3-11.7c-61.6-16.7-114.9-33.3-194.9-70-94.9,71.6-159.9,159.9-178.2,258.2,13.3,3.3,36.6,10,45,11.7,216.5,48.3,283.1,98.3,296.5,108.3,13.3-15,31.6-23.3,53.3-23.3s45,11.7,58.3,30c11.7-10,30-18.3,51.6-18.3s20,1.7,31.6,5c25,8.3,36.6,25,43.3,40,8.3-3.3,18.3-6.7,30-6.7s23.3,3.3,36.6,8.3c40,16.7,46.6,56.6,43.3,86.6h8.3c48.3,0,86.6,38.3,86.6,86.6s-3.3,28.3-10,40c13.3,6.7,45,23.3,75,20,23.3-3.3,31.6-10,35-15,1.7-3.3,5-6.7,1.7-10l-61.6-68.3s-10-10-6.7-13.3,10,1.7,15,5c31.6,26.6,68.3,65,68.3,65,0,0,3.3,5,16.7,8.3,11.7,1.7,33.3,0,48.3-11.7,3.3-3.3,8.3-6.7,10-10,15-20-1.7-40-1.7-40l-71.6-79.9s-10-10-6.7-13.3,10,1.7,15,5c23.3,18.3,55,51.6,84.9,81.6,6.7,5,33.3,21.7,68.3-1.7,21.7-15,26.6-31.6,25-45-1.7-16.7-15-30-15-30l-96.6-98.3s-10-8.3-6.7-13.3c3.3-3.3,10,1.7,15,5,31.6,26.6,114.9,103.3,114.9,103.3,1.7,0,30,21.7,66.6-1.7,13.3-8.3,21.7-20,21.7-35,1.7-21.7-16.7-36.6-16.7-36.6Z"/>
        <path class="cls-1" d="M1197.5,720.1c-15,0-31.6,8.3-33.3,8.3s0-6.7,1.7-10,21.7-63.3-26.6-84.9c-36.6-16.7-60,1.7-66.6,10-1.7,1.7-3.3,1.7-3.3,0,0-10-5-40-38.3-50-46.6-15-75,18.3-83.3,30-3.3-26.6-25-46.6-53.3-46.6s-53.3,23.3-53.3,53.3,23.3,53.3,53.3,53.3,26.6-5,36.6-15v1.7c-1.7,13.3-6.7,61.6,43.3,79.9,20,8.3,36.6,1.7,51.6-8.3,5-3.3,5-1.7,5,1.7-1.7,11.7,0,38.3,38.3,53.3,28.3,11.7,45,0,55-10,5-5,6.7-3.3,6.7,3.3,1.7,35,31.6,63.3,66.6,63.3s66.6-30,66.6-66.6-30-66.6-66.6-66.6h0Z"/>
      </g>
      <path class="cls-2" d="M1678.9,570.2c-75-65-248.2-216.5-296.5-251.5-26.6-20-45-31.6-61.6-35-6.7-1.7-16.7-5-30-5s-25,1.7-38.3,6.7c-30,10-60,33.3-89.9,56.6l-1.7,1.7c-26.6,21.7-55,43.3-76.6,48.3-10,1.7-18.3,3.3-28.3,3.3-23.3,0-45-6.7-53.3-16.7-1.7-1.7,0-5,3.3-8.3l66.6-71.6c51.6-51.6,99.9-99.9,213.2-103.3h5c70,0,139.9,31.6,148.2,35,66.6,31.6,133.2,48.3,201.5,48.3s144.9-18.3,221.5-53.3c-8.3-6.7-18.3-15-26.6-21.7-68.3,30-131.6,43.3-194.9,43.3s-126.6-15-188.2-45c-3.3-1.7-79.9-38.3-161.6-38.3h-6.7c-94.9,1.7-148.2,35-183.2,65-35,0-65,10-91.6,16.7-23.3,6.7-45,11.7-65,11.7h-25c-23.3,0-139.9-28.3-231.5-65-10,6.7-18.3,13.3-28.3,20,96.6,40,214.9,70,251.5,73.3,10,0,21.7,1.7,33.3,1.7,25,0,48.3-6.7,73.3-13.3,15-3.3,30-8.3,45-11.7l-13.3,13.3-66.6,73.3c-5,5-16.7,20-10,36.6,3.3,6.7,10,13.3,18.3,20,16.7,10,45,18.3,71.6,18.3s20-1.7,28.3-3.3c28.3-6.7,58.3-30,88.3-55,25-20,60-45,86.6-53.3,8.3-1.7,16.7-3.3,25-3.3h6.7c18.3,1.7,35,8.3,66.6,31.6,55,41.6,299.8,254.8,301.5,256.5,0,0,15,13.3,15,36.6s-8.3,23.3-20,31.6c-10,6.7-21.7,10-31.6,10-16.7,0-28.3-8.3-28.3-8.3,0,0-84.9-76.6-114.9-103.3-5-5-10-8.3-15-8.3s-5,1.7-6.7,3.3c-5,6.7,0,15,6.7,20l98.3,98.3s11.7,11.7,13.3,26.6c0,16.7-6.7,30-23.3,40-11.7,8.3-23.3,11.7-35,11.7s-25-6.7-28.3-8.3l-15-13.3c-25-25-51.6-51.6-71.6-66.6-5-3.3-10-8.3-15-8.3s-5,0-6.7,3.3c-1.7,1.7-3.3,6.7,1.7,15,1.7,3.3,5,5,5,5l71.6,79.9s15,18.3,1.7,33.3l-3.3,3.3-6.7,6.7c-11.7,10-28.3,11.7-35,11.7h-10c-6.7-1.7-11.7-3.3-15-6.7-3.3-5-40-40-70-65-3.3-3.3-8.3-6.7-13.3-6.7s-5,1.7-6.7,3.3c-5,6.7,3.3,16.7,6.7,20l61.6,66.6s0,1.7-1.7,5-10,10-31.6,13.3h-8.3c-23.3,0-46.6-11.7-60-18.3,5-11.7,8.3-25,8.3-38.3,0-50-40-89.9-89.9-89.9h-3.3c1.7-23.3-1.7-66.6-46.6-84.9-13.3-5-25-8.3-38.3-8.3s-18.3,1.7-28.3,5c-10-18.3-25-31.6-45-38.3-11.7-3.3-21.7-5-33.3-5-18.3,0-35,5-50,16.7-14.7-18-36.7-28.5-60-28.3-20,0-40,8.3-53.3,21.7-18.3-15-93.3-61.6-294.8-108.3-10-1.7-31.6-8.3-45-13.3-1.7,10-3.3,21.7-5,33.3,0,0,36.6,8.3,45,10,204.9,45,273.2,93.3,284.8,101.6-3.3,10-5,20-5,30,0,43.3,35,76.6,76.6,76.6s10,0,15-1.7c6.7,31.6,26.6,55,58.3,66.6,10,3.3,18.3,5,26.6,5s11.7,0,18.3-1.7c5,15,18.3,33.3,48.3,45,10,5,20,6.7,30,6.7s16.7-1.7,23.3-5c13.3,33.3,46.6,56.6,83.3,56.6s48.3-10,65-28.3c15,8.3,45,23.3,76.6,23.3h11.7c31.6-3.3,45-16.7,51.6-25,1.7-1.7,1.7-3.3,3.3-5,6.7,1.7,15,3.3,25,3.3,16.7,0,33.3-5,50-18.3,16.7-11.7,28.3-28.3,28.3-43.3,5,1.7,11.7,1.7,16.7,1.7,16.7,0,35-5,51.6-16.7,31.6-20,36.6-48.3,36.6-65,5,1.7,11.7,1.7,16.7,1.7,16.7,0,33.3-5,48.3-15,20-13.3,31.6-31.6,33.3-53.3,1.7-15-3.3-30-10-43.3,53.3-23.3,173.2-66.6,316.5-99.9,0-11.7-1.7-21.7-5-33.3-171.6,36.6-299.8,91.6-331.4,106.6h0ZM1197.5,848.4c-33.3,0-60-26.6-61.6-60,0-3.3,0-10-6.7-10s-5,1.7-8.3,3.3c-6.7,6.7-16.7,13.3-30,13.3s-13.3-1.7-20-5c-35-15-36.6-38.3-35-48.3,0-3.3,0-5-1.7-6.7l-1.7-1.7h-1.7c-1.7,0-3.3,0-6.7,3.3-10,6.7-20,10-30,10s-11.7-1.7-16.7-3.3c-46.6-18.3-43.3-61.6-40-75,0-3.3,0-5-1.7-6.7l-3.3-3.3-3.3,3.3c-10,8.3-21.7,13.3-33.3,13.3-26.6,0-48.3-21.7-48.3-48.3s21.7-48.3,48.3-48.3,45,18.3,48.3,41.6l1.7,13.3,6.7-11.7c0-1.7,20-31.6,56.6-30,6.7,0,13.3,1.7,21.7,3.3,28.3,8.3,33.3,35,33.3,45s5,6.7,5,6.7c1.7,0,5-1.7,5-3.3,5-5,16.7-15,35-15s16.7,1.7,26.6,6.7c45,20,25,76.6,25,78.3-3.3,10-5,13.3,0,16.7h3.3c1.7,0,5,0,8.3-1.7,6.7-1.7,15-5,23.3-5,33.3,0,61.6,28.3,61.6,61.6,1.7,36.6-26.6,63.3-60,63.3h0Z"/>
    </g>
  </g>
</svg>