<?xml version="1.0" encoding="UTF-8"?>
<svg xmlns="http://www.w3.org/2000/svg" version="1.1" viewBox="0 0 2500 2500">
  <defs>
    <style>
      .cls-1 {
        fill: #a7a8aa;
      }

      .cls-1, .cls-2 {
        fill-rule: evenodd;
      }

      .cls-2 {
        fill: #292929;
      }
    </style>
  </defs>
  <!-- Generator: Adobe Illustrator 28.7.1, SVG Export Plug-In . SVG Version: 1.2.0 Build 142)  -->
  <g>
    <g id="Capa_1">
      <g id="Capa_1-2" data-name="Capa_1">
        <g>
          <path class="cls-1" d="M1235.6,856.3c-15.5,103.2-100.1,110.4-150.7,12.4-199.2-355-494.3-141.4-179.6,154.8,55.7,44.4,46.4,79.5-21.7,75.3-337.4-122.8-271.4,82.6,74.3,167.2,51.6-7.2,89.8,24.8,46.4,56.7-45.4,68.1,217.7,114.5,290,10.3,287.9,70.2,443.7-76.4,277.6-82.6-70.2-10.3-44.4-64,9.3-70.2,346.7-117.6,343.6-393.2,7.2-186.8-82.6,53.7-142.4,26.8-106.3-45.4,221.9-335.4-161-535.6-246.6-91.9h0v.2ZM1327.5,1372.3c-79.5,78.4-441.7,54.7-413.8-79.5-413.8-135.2-441.7-415.9-122.8-285.8-325-402.5,80.5-661.5,355-216.7,60.9-492.2,647-394.2,469.5,99.1,337.4-205.4,466.4,81.5,51.6,314.7,204.3,5.2-100.1,243.5-339.5,168.2h0Z"/>
          <path class="cls-2" d="M1664.9,1667.4h-77.4v189.9c-29.9,142.4-194,116.6-205.3,0l-1-191.9h-84.6l1,184.7c6.2,162,329.2,199.2,367.4,17.5v-200.2h0ZM210.9,1977h81.5v-188.9c4.1-133.1,207.4-130,201.2,9.3v182.6h85.7v-189.9c-39.2-177.5-317.8-177.5-367.4-21.7l-1.1,208.5h0ZM919.9,1983.2h80.5v-179.6c-13.4-226-470.6-176.4-340.5,111.5,48.5,78.4,169.2,93.9,238.4,45.4v-29.9c-73.3,16.5-127.9,34-168.2-52.6-71.2-207.4,191.9-250.7,187.8-73.3l2.1,178.5h0ZM2208.7,1995.6h80.5v-179.6c-13.4-226-470.6-176.5-340.5,111.5,48.5,78.4,169.2,92.9,238.4,45.4v-29.9c-73.3,16.5-127.9,34-168.2-52.6-71.2-207.4,191.9-250.8,187.8-73.3l2.1,178.5h-.1ZM1919.7,1671.6v27.9c-61.9-5.2-94.9,20.6-99.1,77.4l-5.2,212.6h-75.3v-215.7c20.6-92.9,88.8-123.8,179.6-102.2h0ZM1161.4,1662.3h75.3l-2.1,53.7h-69.1v214.6c4.1,57.8,39.2,74.3,87.7,71.2v28.9c-92.9,11.4-161-12.4-175.4-115.6v-392.1h83.6v139.3h0Z"/>
        </g>
      </g>
    </g>
  </g>
</svg>