<?xml version="1.0" encoding="UTF-8"?>
<svg xmlns="http://www.w3.org/2000/svg" version="1.1" viewBox="0 0 564.3 164.2">
  <defs>
    <style>
      .cls-1 {
        fill: #fff;
      }

      .cls-1, .cls-2, .cls-3 {
        fill-rule: evenodd;
      }

      .cls-2 {
        fill: #a7a8aa;
      }

      .cls-3 {
        fill: #292929;
      }
    </style>
  </defs>
  <!-- Generator: Adobe Illustrator 28.7.1, SVG Export Plug-In . SVG Version: 1.2.0 Build 142)  -->
  <g>
    <g id="Layer_1">
      <path class="cls-1" d="M123,47.1c-12.6,1.4-22.7,10.5-23.6,23.6-1.9,26,1.4,66.5,0,93.5h13.4v-39.9c0-4.1-.6-9.7.6-12.8,3-7.5,14.9-5.4,25.5-5.4h20.7v-59c-12.8,1-24.5-1.4-36.7,0h0Z"/>
      <path class="cls-3" d="M68.8,0h12.8v164.2c-4.2-.2-9.2.4-12.8-.3V0Z"/>
      <path class="cls-3" d="M87.5,0h12.8v164.2c-4.2-.2-9.2.4-12.8-.3,0,0,0-163.9,0-163.9Z"/>
      <path class="cls-2" d="M0,47.1c12.8,1.2,24.8-1.5,37,0,10,1.3,19.5,7.9,22.3,17.6,1.8,6.4,1,15.6,1,23.9v75.6c-4.3-.2-9.4.4-13.1-.3v-30.9c0-9.2,2-22.8-5.1-26.2-4.9-2.3-14-.6-20.7-.6H0v-59Z"/>
      <path class="cls-2" d="M165.9,47.1v59h-20.7c-10.6,0-22.6-2.1-25.5,5.4-1.2,3.1-.6,8.7-.6,12.8v39.9h-13.4c1.4-27-1.9-67.5,0-93.5,1-13.2,11-22.2,23.6-23.6,12.2-1.4,23.9,1,36.7,0h0Z"/>
      <g>
        <path class="cls-3" d="M234.7,47.4h10.9v58.4h-11.2c.2-19.4-.4-39.6.3-58.4h0Z"/>
        <path class="cls-3" d="M564.3,47.4v58.4c-3.6-.2-8.1.4-11.2-.3v-58.1h11.2Z"/>
        <path class="cls-3" d="M458.7,50.9v11.5h7v8.3h-6.7c-.5,7.9-.5,17.9,0,25.8,1.3,1.2,4.1.9,6.7.9-.1,2.9.1,6.7,0,8.6-8.5,0-16.9,1-18.2-6.1-1.4-7.6,1.1-20.6,0-29-1.4-.7-4.1-.1-6.1-.3v-8.3h6.1v-11.5h11.2Z"/>
        <path class="cls-3" d="M195.4,100.4v22.3h-11.5v-60.3h10.9v6.1c3.2-4.4,7.9-7.9,15.6-7,19.5,2.2,21.9,42.4.6,45.3-8.1,1.1-12.6-1.8-15.6-6.4h0ZM200.2,96.6c16.2,8.6,20.4-29.1,1.9-24.9-8.6,2-10.2,20.5-1.9,24.9Z"/>
        <path class="cls-3" d="M341.6,75.8h-10.5c-1.4-1.2-.9-3.4-2.9-4.8-3.8-2.6-12.5-1.2-12.1,3.2.4,4.9,16.4,5,21.7,8.3,2.2,1.4,4.3,3.9,4.8,5.4,7.6,23.4-40.2,26-39.2,4.2h11.2c1.3,1.5.9,3.4,2.9,4.8,4.5,3.1,14.4,1.3,14.4-2.9,0-3.9-7-4.4-10.2-5.1-6.6-1.4-13.8-3.1-16-8.3-7.1-16.8,19.8-25.2,31.6-15.3,2.7,2.3,4.1,5.3,4.5,10.5h0Z"/>
        <path class="cls-3" d="M362.6,100.7c-.7,6.7-.1,14.8-.3,22h-11.2v-60.3h10.9v5.7c1.8-1.4,2.9-3.6,4.8-4.8,7-4.4,16.2-1.2,20.1,2.6,11.9,11.6,5.6,38.9-8.9,40.8-6.4.8-13.1-1.4-15.3-6.1ZM374.8,97.2c9.6-3.1,9.4-29-5.8-25.5-11.5,2.7-9,30.3,5.8,25.5Z"/>
        <path class="cls-3" d="M438.6,87.3h-29.7c-1.6,10.4,14,14.2,17.5,5.8h11.5c-1.3,12.9-21.5,17.6-31.9,10.8-12.1-7.9-10.9-31.1-1.3-38.6,7.1-5.6,22.6-5.1,28.7,2.2,3.9,4.6,5.1,10.8,5.1,19.8h0ZM409.2,79.9c5.7,0,12.9,0,17.5,0,.8-11.9-18.4-11.9-17.5,0Z"/>
        <path class="cls-3" d="M498.3,61.4v11.5c-19-3.5-12.7,18.4-13.7,32.9h-11.5v-43.4h10.9v7c2.7-3.5,5.8-9.3,14.4-8Z"/>
        <path class="cls-3" d="M519,61.8c12.2-1.5,20.5,4.8,23.3,10.2,3.6,7.1,3.5,17.5,0,24.2-6.2,12-28.6,15.4-37.6,2.6-5.1-7.3-5-21.8-.6-28.4,2.6-4,7.4-7.7,15-8.6ZM518,96.6c18.3,7.7,21-29.1,2.2-25.2-9.6,2-11.1,21.5-2.2,25.2Z"/>
        <path class="cls-3" d="M267.9,62.4c1.9,9.5-4.1,31.5,4.1,34.5,4.1,1.4,9,0,10.9-3.5,4.1-7.4-.4-20.8,1.3-31h11.5v43.4h-11.2v-5.4c-1.4,1.1-2.9,3.3-4.8,4.5-6.3,3.7-15.6,2.2-19.5-1.9-7.1-7.6-1.9-27.1-3.5-39.6v-1h11.2Z"/>
      </g>
    </g>
  </g>
</svg>