<?xml version="1.0" encoding="UTF-8"?>
<svg xmlns="http://www.w3.org/2000/svg" version="1.1" viewBox="0 0 482.5 201.5">
  <defs>
    <style>
      .cls-1 {
        fill: #292929;
      }
    </style>
  </defs>
  <!-- Generator: Adobe Illustrator 28.7.1, SVG Export Plug-In . SVG Version: 1.2.0 Build 142)  -->
  <g>
    <g id="Capa_1">
      <path class="cls-1" d="M19.5,174c-6.7-2-9.6-3.3-9.6-7.1s4.6-4.6,8.5-4.6,7.1,1,9.6,2.6c1.1.7,2.7.4,3.4-.7.1-.1.1-.2.1-.2l1.1-2.3c.6-1.1.2-2.5-.9-3.2-4-2.5-8.6-3.8-13.3-3.8-9.7,0-16.2,5-16.2,12.4s8.1,12.1,14.7,14c6.8,2,9.8,3.4,9.8,7.4s-4.8,5.5-9.3,5.5-9-2.3-11.8-4.9c-.5-.5-1.3-.8-2.1-.7s-1.5.5-1.8,1.2l-1.3,2.2c-.6,1-.4,2.2.4,3,4.2,4.2,10.6,6.8,16.6,6.8,10.2,0,17-5.3,17-13.1s-8.2-12.5-14.9-14.5M64.3,156.2c-.4-.9-1.3-1.4-2.2-1.4h-2.7c-1,0-1.8.6-2.2,1.5l-19,41.8c-.6,1.2,0,2.7,1.2,3.3.3.1.7.2,1,.2h2.8c1,0,1.8-.6,2.3-1.4l4.7-10.4h21.3l4.8,10.5c.4.9,1.3,1.4,2.2,1.4h2.8c1.4,0,2.5-1.1,2.5-2.5s0-.7-.2-1l-19.3-42ZM53.5,182.1l7.2-16,7.3,16.1h-14.5ZM95.8,154.7h-2.5c-1.4,0-2.5,1.1-2.5,2.5v41.8c0,1.4,1.1,2.5,2.5,2.5h2.5c1.4,0,2.5-1.1,2.5-2.5v-41.8c0-1.3-1.1-2.5-2.5-2.5ZM148,154.7h-2.5c-1.4,0-2.5,1.1-2.5,2.5v30.4l-23.5-31.9c-.5-.6-1.2-1-2-1h-2.9c-1.4,0-2.5,1.1-2.5,2.5v41.8c0,1.4,1.1,2.5,2.5,2.5h2.5c1.4,0,2.5-1.1,2.5-2.5v-30.4l23.4,31.9c.5.6,1.2,1,2,1h2.9c1.4,0,2.5-1.1,2.5-2.5v-41.8c0-1.3-1.1-2.5-2.4-2.5ZM191,154.7h-30.7c-1.4,0-2.5,1.1-2.5,2.5v2.5c0,1.4,1.1,2.5,2.5,2.5h11.7v36.8c0,1.4,1.1,2.5,2.5,2.5h2.5c1.4,0,2.5-1.1,2.5-2.4v-36.8h11.5c1.4,0,2.5-1.1,2.5-2.5v-2.5c0-1.4-1.1-2.5-2.5-2.6q.1.1,0,0M209.4,177.5h-13.3c-1.4,0-2.5,1.1-2.5,2.5v2c0,1.4,1.1,2.5,2.5,2.5h13.3c1.4,0,2.5-1.1,2.5-2.5v-2c0-1.4-1.1-2.5-2.5-2.5ZM261.3,176h-9.8c-1.4,0-2.5,1.1-2.5,2.5v2.5c0,1.4,1.1,2.5,2.5,2.5h5v7.6c-2.9,2-6.4,3.1-10,3.1-9.2,0-16.7-7.2-16.7-16.1s7.5-16.1,16.7-16.1,8.5,1.6,11.6,4.3c1,.9,2.6.8,3.5-.2h.1c0-.1,1.5-2,1.5-2,.8-1,.7-2.5-.3-3.4-4.5-4-10.3-6.1-16.3-6.1-13.3,0-24.2,10.5-24.2,23.4s10.8,23.4,24.1,23.4,12-2.2,16.4-6c.5-.5.9-1.2.9-1.9v-15.1c0-1.3-1.1-2.4-2.5-2.4h0ZM296.4,154.7c-13.3,0-24.1,10.5-24.1,23.4s10.8,23.4,24.1,23.4,24.1-10.5,24.1-23.4-10.8-23.4-24.1-23.4M296.4,194.1c-9.2,0-16.6-7.2-16.6-16.1s7.4-16,16.6-16,16.6,7.2,16.6,16-7.5,16.1-16.6,16.1M360,176.8c2.5-2.2,3.9-5.4,3.9-9.2,0-7.9-5.9-12.8-15.5-12.8h-17.1c-1.4,0-2.5,1.1-2.5,2.5v41.7c0,1.4,1.1,2.5,2.5,2.5h17.2c10.9,0,17.5-5.1,17.5-13.7s-2.2-8.7-6-11M348.4,173.7h-12.1v-11.6h12.1c3.7,0,8.1,1,8.1,5.7s-2.7,5.9-8.1,5.9M336.3,181.1h12.1c3.8,0,10.2.8,10.2,6.4s-5.5,6.6-10.2,6.6h-12.1v-13ZM396.4,156.2c-.4-.9-1.3-1.4-2.2-1.4h-2.7c-1,0-1.9.6-2.3,1.5l-19,41.7c-.6,1.2-.1,2.7,1.2,3.3.3.2.7.2,1.1.2h2.8c1,0,1.8-.6,2.2-1.5l4.7-10.4h21.3l4.8,10.5c.4.9,1.3,1.4,2.2,1.4h2.8c1.4,0,2.5-1.1,2.5-2.5s-.1-.7-.2-1l-19.2-41.8ZM385.5,182.1l7.2-16,7.3,16.1h-14.5ZM427.9,154.7h-2.5c-1.4,0-2.5,1.1-2.5,2.5v41.8c0,1.4,1.1,2.5,2.5,2.5h2.5c1.4,0,2.5-1.1,2.5-2.5v-41.8c0-1.3-1.2-2.5-2.5-2.5M480,154.7h-2.5c-1.4,0-2.5,1.1-2.5,2.5v30.4l-23.5-31.9c-.5-.6-1.2-1-2-1h-2.9c-1.4,0-2.5,1.1-2.5,2.5v41.8c0,1.4,1.1,2.5,2.5,2.5h2.5c1.4,0,2.5-1.1,2.5-2.5v-30.4l23.4,31.9c.5.6,1.2,1,2,1h2.9c1.4,0,2.5-1.1,2.5-2.5v-41.8c.1-1.3-1-2.4-2.4-2.5Z"/>
      <path class="cls-1" d="M271.2,89.2v41.1h-7.6v-46.8l7.6,5.7ZM417.8,130.1h-29.7l-.2-.2-26.2-25.9c-1.1-1.1-2.7-1.4-4.1-.8s-2.3,2-2.3,3.5v23.5h-7.8v-58.2c0-1-.4-2-1.2-2.7l-21.7-20.5c-.7-.7-1.6-1-2.6-1h-10.9c-2.1,0-3.8,1.7-3.8,3.8v78.8h-7.7V3.8c0-1.5-.9-2.9-2.3-3.5s-3.1-.2-4.1.8l-36,36.5c-.7.7-1.1,1.7-1.1,2.6v28.2l-14.7-11c-1.4-1-3.3-1-4.6,0l-33.5,26.9c-.9.7-1.4,1.8-1.4,2.9v42.9h-7.6v-23.6c0-8.3-5.7-17.1-16.3-17.1s-16.3,8.9-16.3,17.2v23.5h-7.7v-16c0-6.5-4.5-13.4-12.8-13.4s-12.8,6.9-12.8,13.4v16h-7.7v-9.7c0-5.5-5.2-10.4-11.1-10.4s-11.1,4.8-11.1,10.3v9.8h-33.6c-2.1,0-3.8,1.7-3.8,3.8s.4,1.9,1.1,2.6,1.7,1.1,2.7,1.1h37.3c1,0,2-.4,2.7-1.1s1.1-1.7,1.1-2.7v-12.9c0-1.4,1.5-3.5,3.6-3.5s3.6,1.9,3.6,3.6v12.8c0,2.1,1.7,3.8,3.8,3.8h15.2c2.1,0,3.8-1.7,3.8-3.8v-19.8c0-2,1.1-5.9,5.2-5.9s5.2,3.8,5.2,5.9v19.9c0,2.1,1.7,3.8,3.8,3.8h15.2c1,0,2-.4,2.7-1.1s1.1-1.7,1.1-2.7v-27.3c0-3.3,1.8-9.7,8.8-9.7s8.8,5.7,8.8,9.6v27.4c0,2.1,1.7,3.8,3.8,3.8h15.1c2.1,0,3.8-1.7,3.8-3.8v-44.8l.3-.2,29.6-23.7,16.9,12.6v56.1c0,2.1,1.7,3.8,3.8,3.8h14.9c2.1,0,3.8-1.7,3.8-3.8v-46.7c0-1.2-.6-2.3-1.5-3l-13.6-10.1v-32.4l.2-.2,28.3-28.7v121.1c0,2.1,1.7,3.8,3.8,3.8h15.2c2.1,0,3.8-1.7,3.8-3.8V55.2h5.6l.2.2,19.2,18.2v60.4c0,2.1,1.7,3.8,3.8,3.8h15.3c2.1,0,3.8-1.7,3.8-3.8v-18.3l21.1,20.8c.7.7,1.7,1.1,2.6,1.1h31.3c2.1-.1,3.7-1.9,3.6-3.9-.2-1.9-1.7-3.5-3.7-3.6"/>
    </g>
  </g>
</svg>