<?xml version="1.0" encoding="UTF-8"?>
<svg xmlns="http://www.w3.org/2000/svg" version="1.1" viewBox="0 0 2500 2500">
  <defs>
    <style>
      .cls-1 {
        fill: #1f1f1f;
        fill-rule: evenodd;
      }
    </style>
  </defs>
  <!-- Generator: Adobe Illustrator 28.7.1, SVG Export Plug-In . SVG Version: 1.2.0 Build 142)  -->
  <g>
    <g id="Capa_1">
      <path class="cls-1" d="M684.1,960.1h76v449.6h-76v-449.6h0ZM387.6,1122.4c0-10.6-7.3-16.4-15.7-16.4s-15.9,5.6-15.9,16.4v216.5c0,10.8,7.5,16.4,15.9,16.4s15.7-5.9,15.7-16.4v-70.9h75.9v65.4c0,53.1-41.7,80.7-92,80.7s-91.4-26.7-91.4-80.7v-205.4c0-53.8,43.4-80.7,91.4-80.7s92,27.7,92,80.7v58.6h-75.9v-64.1h0ZM558,1132.2c0-10.8,7.5-16.4,15.8-16.4s15.7,5.8,15.7,16.4v277.6h76v-297.4c0-48.5-31.4-65.2-55.4-65.2s-45.6,19.4-50.8,29.2h-1.2v-116.3h-76v449.6h75.8v-277.5h.1ZM886.2,1332.5c0,10.6-7.3,16.4-15.7,16.4s-15.8-5.6-15.8-16.4v-281h-76v298.4c0,39.6,27.3,64.2,56.6,64.2s45.8-21.5,50.3-29.4h1.7l1.3,25h73.5v-358.3h-75.9v281h0ZM1056.6,1409.7h-75.9v-358.3h75.2l.8,25h1.5c5.6-11,23.6-29.2,51-29.2s46.6,21.9,50.5,34.7h1.1c5.7-13.1,25.6-34.7,54.3-34.7s56.9,19.7,56.9,68.5v294.1h-76v-281.1c0-10.8-7.4-16.5-15.8-16.5s-15.8,5.8-15.8,16.5v281.1h-76.4v-281c0-10.8-7.6-16.5-15.9-16.5s-15.6,5.8-15.6,16.5v281h.1ZM1416.6,1047.2c-25.4,0-43.7,21.5-48.5,29.4h-1.6v-116.4h-76v449.6h75.1l.9-25h1.6c3.8,9.6,20.1,29.2,47.9,29.3,32.2,0,58.3-27.7,58.3-69.6v-232.1c0-40.3-27.3-65.2-57.8-65.2h0ZM1398.2,1332.6c0,10.6-7.3,16.4-15.8,16.4s-15.9-5.7-15.9-16.4v-203.7c0-10.8,7.5-16.4,15.9-16.4s15.8,5.8,15.8,16.4v203.7h0ZM1568.9,1339.2c0,10.8,7.5,16.4,15.9,16.4s15.7-5.8,15.7-16.4v-71.1h75.9v65.3c0,54-44.4,80.8-91.9,80.8s-91.6-26.7-91.6-80.8v-205.3c0-53.9,43.5-80.8,91.6-80.8s92,27.6,92,80.8v115.8h-107.5v95.3h0ZM1600.5,1189.2v-66.7c0-10.6-7.3-16.4-15.7-16.4s-15.9,5.6-15.9,16.4v66.7h31.6ZM1787,1112.4c-8.3,0-15.9,5.6-15.9,16.5v280.9h-76v-358.3h74.5l1.5,24.9h1.7c7.2-10,25.5-29.2,50.9-29.2s55.1,23.9,55.1,61.8v134.5h-76v-117c0-8.6-8.2-14.1-15.9-14.1h.2,0ZM2175,1339.2c0,10.8,7.6,16.4,15.9,16.4s15.7-5.8,15.7-16.4v-71.1h75.9v65.3c0,54-44.6,80.8-92,80.8s-91.6-26.7-91.6-80.8v-205.3c0-53.9,43.4-80.8,91.5-80.8s92,27.6,92,80.8v115.8h-107.6v95.3h.2ZM2206.6,1189.2v-66.7c0-10.6-7.3-16.4-15.7-16.4s-15.9,5.6-15.9,16.4v66.7h31.6,0ZM2392.8,1112.4c-8.4,0-15.9,5.6-15.9,16.5v280.9h-76v-358.3h74.5l1.5,24.9h1.6c7.2-10,25.6-29.2,50.9-29.2s55.1,23.9,55.1,61.8v134.5h-76.1v-117c0-8.6-8.2-14.1-15.8-14.1h.2ZM2004.6,1310.2c0,10.6-7.3,16.4-15.7,16.4s-15.9-5.6-15.9-16.4v-181.2c0-10.8,7.5-16.4,15.9-16.4s15.7,5.8,15.7,16.4v181.2ZM2004.6,1436c0,10.6-7.3,16.4-15.7,16.4s-15.9-5.6-15.9-16.4v-29.1h-75.8v19.7c0,56,38.6,80.9,91.5,80.9s92-24.9,92-80.9v-375.2h-74.9l-1.1,25.1h-1.8c-4-8.2-21.8-29.4-50.1-29.4s-55.5,21-55.5,60v214c0,41,26.3,64.9,55.9,64.9s44.6-18.8,49.2-26.3h2.2v76.2h0ZM143.6,1333.3c0,10.8,7.5,16.5,15.9,16.5s15.7-5.8,15.7-16.5v-42.5c0-33.9-7.3-46.2-32.4-69.9-21.5-20.2-32.3-30.6-46.1-43.6-17.7-16.8-38.2-40.1-38.2-83.8v-53.9c0-59.1,49.2-81.1,101-81.1s100.5,22.5,100.5,80.7v69.4h-84.7v-67.4c0-10.6-7.3-16.4-15.7-16.4s-15.9,5.6-15.9,16.4v32.4c0,28,8.8,40.3,32,62.5,9.3,8.9,30.5,29.5,46.8,45.4,29.1,28.5,39.2,54.2,39.2,89.6v60.2c0,62.6-50.4,84.6-102.1,84.6s-101.3-22-101.3-81.6v-86.2h85.5v85.1h-.2Z"/>
    </g>
  </g>
</svg>