<?xml version="1.0" encoding="UTF-8"?>
<svg xmlns="http://www.w3.org/2000/svg" version="1.1" viewBox="0 0 1275.4 382">
  <defs>
    <style>
      .cls-1 {
        fill: #292929;
      }
    </style>
  </defs>
  <!-- Generator: Adobe Illustrator 28.7.1, SVG Export Plug-In . SVG Version: 1.2.0 Build 142)  -->
  <g>
    <g id="Capa_1">
      <g>
        <path class="cls-1" d="M101.8,322.1c-3.8-4.8-9.3-8.9-16.6-12.1-7.1-3.2-19.2-6-30.7-8.6-11-2.5-18.8-5.2-23.5-8-4.7-2.9-7-7.1-7-12.5s2.6-11.5,7.8-15.1,12.4-5.4,21.3-5.4,24.7,3.3,36.8,9v-20.4c-2.9-1.4-6.3-2.7-9.2-3.7-8.6-2.9-18-4.4-27.6-4.4s-19.9,1.8-27.9,5.4-14.3,8.5-18.7,14.8C2.2,267.5,0,274.6,0,282.6s1.8,14.1,5.5,19.1c3.6,4.9,9.1,9.2,16.2,12.4,7.1,3.2,16.6,6,28,8.5,11.1,2.5,21.5,5.1,26.3,7.8s7.3,6.9,7.3,12.1-2.6,10.8-7.8,14.1-15.1,4.9-24.7,4.9-16.7-1.2-24.1-3.6c-7-2.2-18.5-8.8-25.4-13.9v23.3c4.9,3.2,12.2,7,19.5,9.3,9.2,2.9,19.2,4.2,29.6,4.2s23.5-1.6,31.7-4.9,14.5-8,18.9-14.1c4.2-6,6.4-13.3,6.4-21.3.1-7.4-1.8-13.6-5.6-18.5h0Z"/>
        <polygon class="cls-1" points="225.9 349.7 198.6 269.5 183 269.5 154.9 349.1 128.1 269.5 105.9 269.5 145.4 380.8 163.1 380.8 190.3 303.8 217.3 380.8 235 380.8 274.6 269.5 253.5 269.5 225.9 349.7"/>
        <rect class="cls-1" x="290.5" y="269.5" width="22" height="111.2"/>
        <path class="cls-1" d="M401.5,323.3c-5.8-2.6-13.4-4.9-22.8-7-8.6-1.9-14.8-4-18.4-6.3-3.4-2.1-5.1-5.1-5.1-9s1.9-8.5,5.8-11.1c4-2.7,9.5-4.1,16.3-4.1s19.8,2.7,29.2,7.3l1.2.7v-18.8l-.5-.3c-2.3-1.1-5.2-2.3-7.7-3-7-2.3-14.5-3.6-22.4-3.6s-16.2,1.5-22.8,4.4-11.8,7-15.4,12.2c-3.7,5.2-5.5,11.1-5.5,17.7s1.5,11.7,4.5,15.9c3,4.1,7.5,7.5,13.3,10.3,5.8,2.6,13.3,4.9,22.5,6.9,8.8,1.9,15.1,4,18.8,6.2,3.6,2.1,5.2,4.8,5.2,8.6s-1.9,7.8-5.8,10.3c-4,2.5-9.7,3.8-17.1,3.8s-13-1.1-18.9-2.7c-7.5-2.1-19.9-9.6-19.9-9.6v20.2l.4.3c4,2.6,8.1,4.4,14.1,6.2,7.4,2.3,15.5,3.4,24,3.4s17-1.4,23.7-4c6.7-2.7,11.9-6.6,15.6-11.7,3.6-5.1,5.4-11,5.4-17.7s-1.6-11.4-4.8-15.5c-2.7-3.8-7.3-7.3-13.2-9.9h0Z"/>
        <path class="cls-1" d="M505.2,323.3c-5.8-2.6-13.4-4.9-22.8-7-8.6-1.9-14.8-4-18.4-6.3-3.4-2.1-5.1-5.1-5.1-9s1.9-8.5,5.8-11.1c4-2.7,9.5-4.1,16.3-4.1s19.8,2.7,29.2,7.3l1.2.7v-18.8l-.5-.3c-2.3-1.1-5.2-2.3-7.7-3-7-2.3-14.5-3.6-22.4-3.6s-16.2,1.5-22.8,4.4-11.8,7-15.4,12.2c-3.7,5.2-5.5,11.1-5.5,17.7s1.5,11.7,4.5,15.9c3,4.1,7.5,7.5,13.3,10.3,5.8,2.6,13.3,4.9,22.5,6.9,8.8,1.9,15.1,4,18.8,6.2,3.6,2.1,5.2,4.8,5.2,8.6s-1.9,7.8-5.8,10.3c-4,2.5-9.7,3.8-17.1,3.8s-13-1.1-18.9-2.7c-7.5-2.1-19.9-9.6-19.9-9.6v20.2l.4.3c4,2.6,8.1,4.4,14.1,6.2,7.4,2.3,15.5,3.4,24,3.4s17-1.4,23.7-4c6.7-2.7,11.9-6.6,15.6-11.7,3.6-5.1,5.3-11,5.3-17.7s-1.7-11.4-4.8-15.5c-2.7-3.8-7.3-7.3-13.2-9.9h0Z"/>
        <polygon class="cls-1" points="638.4 340.1 601.1 269.5 583.7 269.5 583.7 380.8 603.3 380.8 603.2 311.8 631 363.1 645.5 363.1 673.1 311.1 673.1 380.8 692.7 380.8 692.7 269.5 675.6 269.5 638.4 340.1"/>
        <polygon class="cls-1" points="714.4 380.8 790 380.8 790 363.1 735.8 363.1 735.8 332.9 786.8 332.9 786.8 315.5 735.8 315.5 735.8 287.1 790 287.1 790 269.5 714.4 269.5 714.4 380.8"/>
        <path class="cls-1" d="M849.8,269.5h-41.6v111.2h41.6c18.2,0,32.5-4.9,42.7-14.7,10.2-9.7,15.2-23.6,15.2-41s-5.1-31.3-15.2-40.9c-10.2-9.7-24.4-14.7-42.7-14.7h0ZM830.2,287.7h18.4c25,0,37.2,12.2,37.2,37.5s-12.1,37.6-37.2,37.6h-18.4v-75h0Z"/>
        <rect class="cls-1" x="925.2" y="269.5" width="22" height="111.2"/>
        <path class="cls-1" d="M1019.2,286.1c5.4,0,12.8,1.4,17.6,2.9,9.1,2.9,13.8,5.4,13.8,5.4v-19.3c-.1,0-5.8-2.6-10.4-4-7.7-2.3-13.7-3-21.1-3-11,0-20.7,2.3-28.8,7-8.2,4.7-14.5,11.4-18.9,19.9-4.4,8.5-6.6,18.7-6.6,30s2.2,21.5,6.6,30c4.4,8.6,10.7,15.4,18.9,20s17.8,7,28.8,7c18.9,0,31.6-7,31.6-7v-19.3c.1,0-16.5,8.2-31.3,8.2s-18.4-3.3-24-9.9c-5.6-6.6-8.5-16.5-8.5-29.1s2.9-22.2,8.5-28.9c5.5-6.5,13.6-9.9,23.9-9.9h0Z"/>
        <path class="cls-1" d="M1130.3,269.5h-17.6l-50.8,111.2h22.4l11.1-25.6h52.5l11.1,25.6h21.9l-50.8-111.2h0ZM1140.5,337.9h-37.6l18.8-43.5,18.8,43.5h0Z"/>
        <polygon class="cls-1" points="1216.7 245.4 1195.2 245.4 1195.2 380.8 1275.4 380.8 1275.4 362.1 1216.7 362.1 1216.7 245.4"/>
      </g>
      <g>
        <rect class="cls-1" x="535.7" y="131.8" width="73.2" height="73.2"/>
        <rect class="cls-1" x="535.7" width="73.2" height="73.2"/>
        <rect class="cls-1" x="667.5" y="131.8" width="73.2" height="73.2"/>
        <rect class="cls-1" x="667.5" width="73.2" height="73.2"/>
      </g>
    </g>
  </g>
</svg>