<?xml version="1.0" encoding="UTF-8"?>
<svg xmlns="http://www.w3.org/2000/svg" version="1.1" viewBox="0 0 2500 2500">
  <defs>
    <style>
      .cls-1 {
        fill: #a7a8aa;
      }

      .cls-1, .cls-2 {
        fill-rule: evenodd;
      }

      .cls-2 {
        fill: #292929;
      }
    </style>
  </defs>
  <!-- Generator: Adobe Illustrator 28.7.1, SVG Export Plug-In . SVG Version: 1.2.0 Build 142)  -->
  <g>
    <g id="Capa_1">
      <g>
        <path class="cls-2" d="M271.5,1079.8h-6.8c-15.9-10-29.6-16.2-41.1-18.7-11.6-2.5-21.6-4-30.3-4.4-3.7,0-7.3.5-10.9,1.4-4.5.9-8.8,3.1-12.2,6.1-3.6,3.2-5.4,8.4-5.4,15.7,0,10.4,3.3,18.1,9.9,23.1,6.8,5.1,13.9,9.7,21.4,13.6.5,0,.9.1,1.4.4.5.3,1,.6,1.4,1,.5,0,.8.1,1,.4.2.2.6.3,1,.3,10,5,18.8,10,26.5,15,7.1,4.6,13.9,9.6,20.4,14.9,16.8,14.1,27.2,28,31.3,41.8,4.1,13.8,6.1,26.2,6.1,37.1s-.6,8.8-1.7,18.4c-1.1,9.5-4.6,20-10.5,31.3-6.7,12.7-18.2,24.1-34.3,34.3-16.1,10.2-39.7,12.2-70.4,15.3l-6.8.7c-26.6,2.7-48.3-2.2-64.6-5.1-16.3-2.9-30.8-7.4-43.5-13.2v-83.7h6.8l11.6,5.8c5.9,3,13,5.5,21.1,8.5,4.2,1.5,8.5,3.6,13.3,5.4,4.8,1.8,9.6,3.4,14.6,4.8,5.4,1.4,10.9,2.6,16.3,3.7,5.4,1.1,10.4,1.9,15,1.7,7.7-.3,13.5-2,17.3-4.8,3.9-2.7,6.2-5.8,7.8-8.8,1.1-2,2.2-3.6,2.4-5.4.2-1.8.3-3.4.3-4.8,0-7.7-3-14.6-8.8-20.8-5.8-6-12.5-11.2-19.7-15.3-1.4-.8-2.6-1.7-3.7-2.4s-2.3-1.5-3.7-2.4c-24.9-15-43.4-28.4-55.4-40.5-12-12-19.9-23.8-24.1-35-2.1-5.5-3.7-10.8-4.4-16-.7-5.3-1-10.6-1-16,0-30.8,10.5-53.7,31.6-68.7,21.1-15,44.3-24,69.7-27.9,4.6-.7,9.1-1.5,13.6-1.7,4.5-.2,9.1-.3,13.6-.3h6.8c6.8,0,14.2.5,22.1,1.4,7.9.9,16,2,24.1,3.4,10.5,1.8,21,4,31.3,6.8v83.7h0,0ZM478.2,1355.6c-10.1,29.7-23.5,51.9-40,66.4-16.5,14.6-39.8,21.9-69.6,21.9s-39.8-2.3-57.1-6.8v-74.8c15.3,5,28,7.5,38,7.5,30.7,0,52.5-18.8,65.4-56.5l-119-323.7h94.5l67.3,219,60.5-219h90.5l-130.5,366h0ZM737.8,1024.4c31.5-25.3,61.9-39.1,91.1-41.6,62.9,0,94.4,36.7,94.4,110.3v228.4h-86.9v-206.6c0-40.3-12.7-60.5-38-60.5s-37.9,11.8-60.6,35.4v231.8h-87.6v-331.9h87.6v34.8h0,0ZM1035,1339.3c0,22.7,26.3,54.2,79,54.2s95.9-7.7,95.9-48.1-5.7-14.4-16.9-16.3c-7.5-1.5-30.3-2.8-68.5-4.1-38.1-1.2-63.5-2.6-75.9-4-9.1,5.2-13.6,11.3-13.6,18.2h0ZM1192.3,1005.2c33.1,27.2,50.2,52.3,50.2,99.3s-5.9,39.6-17.7,56.4c-11.8,16.9-27.2,30-46.3,39.6-19,9.4-38.8,14.2-59.3,14.2s-12.1-.5-22.1-1.3c-7.3-.7-14.7-1.1-22.1-1.2-4.4,0-8.9,1.6-13.8,4.9-4.8,3.3-7.3,7-7.3,11.3s.5,3.4,1.4,4.9c4,6.6,16.1,10.3,36.5,11,20.3.7,47.5,1.9,81.6,3.7,34.2,1.8,60.9,8.7,80.1,20.9,19.3,12.1,28.9,32.7,28.9,61.6,0,68.1-57.3,120-172,120s-146.2-32.8-146.2-100.8,12-36.5,36.2-51c-17.2-14.9-26-30-26-45.7,0-22.4,14.3-43.3,42.8-62.7-27.2-29.6-40.8-58.7-40.8-87.6s6-45.7,18.1-63.8c12.1-18.2,28.5-32.1,49-41.6,20.6-9.5,42.9-14.3,66.9-14.3s57.5,2.5,81.8,22.5h0ZM1109.9,1156.9c16,0,27.8-5.6,35.5-16.8,7.7-11.1,11.6-25.3,11.6-42.5,0-38.4-15.6-57.7-47-57.7s-27.9,5.7-35.8,16.9c-7.9,11.2-11.9,24.8-11.9,40.8,0,39.6,15.9,59.3,47.7,59.3h0ZM1460.3,1048.8c-34,0-52.8,23.6-56.5,70.6h110.1c-1.2-21.5-5.7-38.6-13.2-51.5-7.6-12.8-21.1-19.1-40.4-19.1ZM1401,1175.8c0,22.2,5.1,41.9,15.3,59.2,10.3,17.1,25.8,27.7,46.6,28.7,25.5,1.2,54.1-6.5,73.9-41l58.7,31.2c-23.4,46.8-90.5,74.4-136.9,74.4s-59.5-7.4-81.6-22.2c-22.1-14.9-38.4-35.1-49.2-60.8-10.6-25.7-16-54.8-16-87.1s5.4-59.2,16.3-86c10.8-26.7,27.2-48.3,49.1-64.7,22-16.4,48.4-24.7,79.4-24.7s54.7,5,74.2,15.1c19.4,10,34.3,23.7,44.8,41.2,10.4,17.3,17.8,37.4,21.9,60.1,4.1,22.6,6.1,48.2,6.1,76.8h-202.7ZM1741,1024.4c31.5-25.3,61.9-39.1,91.1-41.6,62.9,0,94.4,36.7,94.4,110.3v228.4h-86.9v-206.6c0-40.3-12.7-60.5-38-60.5s-37.8,11.8-60.6,35.4v231.8h-87.6v-331.9h87.6v34.8h0,0ZM2093.9,989.6h68.8v73.5h-68.8v144.2c0,15.3,2,27.4,6,36.3,4,9,12.5,13.8,25.4,14.7,11.6,0,24-2.3,37.4-6.8v68.7c-20,4.9-36.4,7.6-49,8.2-26.8,0-48.3-4.9-64.1-14.7-15.8-9.8-27-23.9-33.6-42.3-6.5-18.5-9.8-41.1-9.8-68.2v-140h-40.8v-73.5h40.8v-52.9l87.6-32.8v85.7h0,0ZM2279.9,1230.2c0,8.5,2.4,15.4,7.3,20.8,4.9,5.3,11.6,8.2,20,8.5,28.1,0,52.6-13.2,73.4-39.3v-43.5c-27.2,3.5-50.8,9-70.7,16.3-19.9,7.3-29.9,19.7-29.9,37.3ZM2479.7,1321.5h-84.9c-.9-2.2-1.8-4.8-2.9-7.8-1.3-4-2.5-8-3.7-12-1.6-5-2.7-8.5-3.4-10.8-17.8,12.8-33.1,22.3-46,28.4-12.8,6-27.5,9.1-43.9,9.1-18.3,0-36.4-3.9-53-11.6-16.5-7.7-30-18.7-40.3-33-10.3-14.4-15.4-31-15.4-50s6.1-42.6,18.5-58.4c12.2-15.8,28.1-28.2,47.6-37.4,18.9-8.9,38.6-15.7,58.9-20.4,19.8-4.7,43.1-9,69.5-13.2,0-18.5-2.6-32.4-7.7-41.7-5.2-9.3-16.4-13.9-33.8-13.9s-26.9,2.9-35.6,8.8c-8.7,6-14.7,16.1-18.1,30.5l-84.4-12.9c7.6-23.7,17.7-42.3,30.2-55.8,12.1-13.4,27.7-23.3,45-28.5,17.7-5.4,39.3-8.2,65-8.2,20.6,0,41.2,3.2,60.8,9.6,19.2,6.5,34.9,16.5,46.7,30.5,12.6,15.6,18.9,42.6,18.9,80.9v140.8c0,28.8,4.1,54.4,12.3,76.9h0Z"/>
        <path class="cls-1" d="M1355.8,947.3c45.8-54.4,57.8-144.2,82.7-205.7-90.8,14.2-250,59.4-248.7,176.4.3,23.4,1.4,56.5,4.8,74.5,51.8,6.1,124.7-1.9,161.2-45.2h0Z"/>
      </g>
    </g>
  </g>
</svg>