<?xml version="1.0" encoding="UTF-8"?>
<svg xmlns="http://www.w3.org/2000/svg" version="1.1" viewBox="0 0 2500 2500">
  <defs>
    <style>
      .cls-1 {
        fill: #292929;
      }
    </style>
  </defs>
  <!-- Generator: Adobe Illustrator 28.7.1, SVG Export Plug-In . SVG Version: 1.2.0 Build 142)  -->
  <g>
    <g id="Capa_1">
      <path class="cls-1" d="M1823.8,635.8c7.4,54.3,89.8,127.5,112.1,125.8,14.9,0,20.6-70.9,20.6-125.8s1.8-56.1-14.9-61.8c-26.3,53.2-95.5,64.1-117.8,61.8ZM1828.4,611.8c59.5,0,113.8-47.5,113.8-89.2s-9.2-35.4-32.6-38.3c4,5.1,5.7,9.2,5.7,18.3,0,31.5-48,66.4-100.1,66.4s-24.6,13.1-24.6,20c0,16,15.4,22.9,37.8,22.9ZM1815.8,547.2c-8,0-19.5,0-25.7-12.6-5.2-10.3-3.5-26.9-13.2-34.3,9.7,2.9,20,2.9,28,2.9,25.8,0,50.4-17.7,69.2-17.7s16.6,8,16.6,16c0,25.2-50.8,45.8-74.9,45.8ZM536.4,995.5c19.4,0,15.4-119,46.9-119s9.7,7.4,9.7,16.6c0,26.9-13.2,66.4-13.2,88.1s2.9,14.3,8,14.3c13.7,0,37.8-131,61.2-131s10.9,7.4,10.9,14.9c0,27.4-34.9,106.4-34.9,128.6s1.2,6.3,4,6.3c14.3,0,42.9-61.8,52.1-92.6,5.1-16,12-24.6,18.3-24.6s10.9,6.3,10.9,19.4c0,30.9-28.6,103.5-53.8,152.1-19.5,37.7-49.8,92.1-49.8,122.4s2.9,31.4,25.1,50.9c-36.6-2.3-51.5-5.7-65.2-34.3-61.2,121.8,112.7,109.8,53.2,217.9-10.8-19.4-96.7-39.5-96.7-152.7s85.8-155,85.8-195.6-2.9-14.9-10.3-21.1c-18.9-16-19.5-29.2-34.3-29.2s-24,25.2-10.3,47.5c4.6,7.4,8.6,12,8.6,18.9,0,16-25.1,58.9-42.9,58.9s-31.5-44-31.5-114.9,14.3-126.4,32-126.4,6.9,3.4,6.9,8c0,7.4-2.3,22.3-2.3,47.5,0,26.9,6.3,29.2,11.5,29.2h0ZM1412.5,433.3c9.2,0,10.9,22.3,12.6,35.5,1.1,6.9,2.3,7.4,5.2,7.4,6.9,0,17.7-26.3,25.1-26.3,10.9,0,40.1,30.3,88.7,30.3,69.2,0,134.4-48.6,134.4-134.4s-58.4-131.6-139-131.6-66.3,18.9-81.2,18.9c-9.1.6-22.9-22.3-29.8-22.3s-5.7,5.7-5.7,15.4,0,26.3-6.9,26.3c-13.7,0-66.9-39.5-66.9-25.2s35.5,53.2,35.5,63.5-34.9,20-34.9,26.9c0,12.6,37.2,14.9,37.2,30.9s-38.9,28.6-38.9,40.6,38.9,2.9,38.9,14.9-28.6,52-28.6,63.5.6,2.9,2.9,2.9c10.8,0,43.5-37.2,51.4-37.2h0ZM678.8,1278.7c-.6-11.4,7.4-22.3,19.4-23.5,12-1.7,22.9,7.4,24,19.4,1.2,12-7.4,22.3-19.5,24-12,.6-22.8-8-24-20h0ZM615.3,1296.4c2.3,19.5,20.6,34.3,41.2,32,7.4-.6,14.3-2.9,18.9-5.7,4.6,18.3,18.9,29.8,40,27.5,21.2-1.7,36.1-19.5,33.8-40.6,0-5.7-1.7-9.1-3.4-13.2l4-.6c20-2.3,35.4-20.6,33.7-40.6-2.3-20.6-21.1-35.5-40.6-33.8-7.4,1.7-13.7,4-18.3,8-5.2-17.1-20-30.9-41.2-28.6-20,1.1-35.5,20.6-33.2,41.7,0,2.9,1.1,7.5,2.9,11.5l-4,.6c-20,2.9-35.4,19.5-33.7,41.8h0ZM1889.6,247.5c0,7.8,6.2,14.2,14,14.3.1,0,.2,0,.3,0,8,0,14.3-6.3,14.3-14.3s-6.3-14.3-14.3-14.3-14.3,6.3-14.3,14.3ZM1570.4,789.7c0,13.2,10.9,24,24,24,13.2,0,23.9-10.8,24-24,0-13.2-10.8-23.9-24-24-13.1,0-24,10.9-24,24ZM1572.1,861.7c0,14.8,12,26.9,26.8,26.9s26.9-12,26.9-26.8h0c0-14.9-12-26.9-26.9-26.9-14.8,0-26.9,12-26.9,26.8ZM1489.8,910.3c0,21.8,17.7,39.4,39.5,39.5,21.8,0,39.4-17.7,39.4-39.5,0-21.8-17.7-39.4-39.4-39.4-21.8,0-39.4,17.7-39.5,39.4ZM1510.9,829.7c0,12.6,10.3,22.9,22.9,22.9s22.9-10.3,22.9-22.9-10.3-22.9-22.9-22.9-22.9,10.3-22.9,22.9h0ZM1436,875.4c0,12.6,10.3,22.9,22.9,22.9,12.6,0,22.9-10.2,22.9-22.9-.4-12.6-11-22.5-23.7-22.1-12,.4-21.7,10.1-22.1,22.1ZM1494.9,741.6c.1,20.2,16.4,36.5,36.6,36.6,20.2-.1,36.5-16.5,36.6-36.6-.1-20.2-16.4-36.5-36.6-36.6-20.2.1-36.5,16.4-36.6,36.6ZM1537.8,671.3c-.3,12,9.2,22,21.2,22.3s22-9.2,22.3-21.2c0-.4,0-.7,0-1.1-.3-12-10.2-21.5-22.2-21.2-11.6.3-20.9,9.6-21.2,21.2ZM1434.3,726.2c0,12,9.8,21.7,21.8,21.7,12,0,21.7-9.7,21.7-21.7,0-12-9.7-21.7-21.8-21.7s-21.7,9.7-21.7,21.7h0ZM1431.4,800.5c0,19.5,15.4,34.9,34.9,34.9,19.2.1,34.8-15.3,34.9-34.5,0-.1,0-.3,0-.4.1-19.1-15.3-34.8-34.4-34.9-.1,0-.3,0-.4,0-19.2-.1-34.8,15.3-34.9,34.5,0,.1,0,.3,0,.4ZM1359.4,837.1c0,17.7,14.9,32.6,32.6,32.6s32.6-14.9,32.6-32.6-14.9-32.6-32.6-32.6-32.6,14.9-32.6,32.6ZM1378.8,756.5c0,12.6,10.3,22.9,22.9,22.9,12.6,0,22.8-10.3,22.9-22.9,0-12.6-10.3-22.9-22.9-22.9-12.6,0-22.9,10.3-22.9,22.9ZM1302.7,1599.6c0,12.5,10.3,22.8,22.9,22.8s22.9-10.3,22.9-22.8c0-12.6-10.2-22.9-22.9-22.9-12.6,0-22.9,10.3-22.9,22.9ZM687.4,651.8c0,12.6,10.3,22.9,22.8,22.9,12.6,0,22.9-10.3,22.9-22.9,0-12.6-10.3-22.8-22.9-22.9-12.6,0-22.8,10.3-22.8,22.9ZM657.6,600.3c0,12.6,10.3,22.9,22.9,22.9,12.6,0,22.8-10.3,22.8-22.9s-10.3-22.9-22.8-22.9c-12.6,0-22.9,10.3-22.9,22.9ZM682.2,1163.1c24,0,44-17.7,44-57.2v-58.3c0-22.3,1.7-47.5,16.6-65.2-1.7,7.4-1.7,15.4-1.7,22.9,0,49.2,27.4,83,27.4,130.4s-5.1,27.4-18.9,27.4-12-12-14.9-12-5.7,7.4-5.7,15.4c0,12,8.6,30.9,32.6,30.9s37.2-18.9,37.2-40.1c0-51.5-40-108.6-40-163.5s6.2-40,11.4-52.6c0,113.8,96.7,196.8,96.7,244.2s-8,19.5-20,19.5-19.4-10.3-19.4-18.3-.6-5.1-2.3-5.1c-3.4,0-13.7,11.4-13.7,26.3s15.4,41.7,44,41.7,50.4-27.5,50.4-52c0-60-117.3-151-117.3-248.2s2.9-43.5,14.9-64c-75.5,48.6-99,113.3-99,169.9s-1.7,73.8-26.9,73.8-16.6-12-21.2-12-5.2,10.3-5.2,13.2c0,21.1,15.4,33.2,30.9,33.2h0ZM1673.4,591.8c25.1,0,44-11.5,44-18.3s-3.5-4-10.9-4-22.3-.6-50.3-5.2c-24-4-42.4-13.1-49.2-13.1s-3.4,1.1-3.4,2.8c0,14.9,27.5,37.7,69.8,37.7h0ZM1548.7,519.1c7.4-4.6,39.4,2.9,81.2-17.7,4.5-2.6,9.6-3.9,14.8-4,20.1,0,14.9,22.9,33.2,22.9s32.6-12,43.5-12c17.1,0,41.7,53.8,41.7,78.9s-44,46.9-96.1,46.9c-76.1,0-121.8-66.4-121.8-109.3s1.7-4.6,3.4-5.7h0ZM694.2,1378.7c-18.9,4.6-49.2,34.3-49.2,81.3s60.1,142.4,159,142.4,104.1-57.8,104.1-96.7c0-86.3-53.2-147-122.4-147s-71.5,27.5-71.5,68.1,28.6,94.4,96.7,94.4,50.9-22.9,50.9-49.2-23.5-61.2-57.8-61.2-17.7,6.9-17.7,17.7,18.9,27.5,42.3,27.5,10.3-1.1,12.6-2.3c1.1,1.7,1.7,4.6,1.7,6.9,0,13.1-12.6,21.1-32,21.1-29.2,0-57.2-21.7-57.2-56s17.7-35.5,43.5-35.5c50.9,0,81.2,45.2,81.2,90.4s-22.3,64.1-68.1,64.1c-91.5,0-136.1-82.3-116.1-165.9h0ZM637,757.1c-13.2,3.4-40.6,19.5-40.6,48s16,33.8,36,33.8,17.7-2.3,22.3-5.7c-16-15.4-21.7-32.6-21.7-49.7s1.7-19.5,4-26.3ZM496.9,765.1c-.6,2.9-.6,5.7-.6,8.6,0,26.9,14.3,41.7,33.2,41.7s30.9-8.6,45.7-27.5c-6.8,1.2-13.7,1.7-20.6,1.7-21.2,0-44-5.7-57.8-24.6h0ZM476.9,816c0,43.5,13.1,64,36.6,64s42.9-13.2,72.1-38.3c-22.3,5.1-39.5,8.6-54.9,8.6s-36.6-8-53.8-34.3h0ZM1347.3,1713.9c27.5,0,25.7-2.3,34.3-2.3s9.1,5.1,9.1,8.6c0,12.6-28,28-77.8,28s-46.9-15.4-52-32.6c-28.6,18.3-72.1,34.9-114.9,34.9-117.3,0-147-50.9-183.6-67.5-28-12.6-70.9,12-131-54.9,8,1.7,18.8,2.3,27.4,2.3,52.6,0,80.6-25.7,80.6-66.9s-.6-10.9-1.1-16c16,6.3,52.6,33.8,61.2,82.3,1.2,5.7,24.6,10.9,39.5,10.9s46.9-8.6,50.9-42.3c68.6-5.7,114.9-46.3,124.7-97.8,24.6,8,52.6,30.3,59.5,41.8,9.7-3.4,21.2-5.1,34.3-5.1s38.9,3.4,63.5,10.9c1.1-7.4,2.3-16.6,13.8-16.6,17.1,0,12.6,18.9,18.3,29.8,2.9,5.7,17.1,9.1,17.1,20.6s-9.2,14.9-14.9,14.9-5.2-.6-6.9-1.1c-11.4,4-12,86.3-60.1,86.3s-68.1-29.2-82.3-65.8c-4-10.8-12.6-17.7-20.6-17.7s-14.3,1.8-25.2,13.7c-30.9,33.7-82.3,62.9-145.8,62.9s-34.9-1.7-38.9-1.7-2.3.6-2.3,1.1c0,4,19.5,19.4,61.8,19.4,100.6,0,125.2-56.6,141.2-56.6s9.2,0,13.2,9.2c23.4,54.9,74.4,67.5,106.4,67.5h.5s0,0,0,0ZM1022.5,564.3c37.7,0,54.9,32.6,54.9,69.2s-4.6,39.5-12,39.5-6.3-13.2-7.4-25.2c-1.1-15.4-4-18.8-9.1-18.8-9.7,0-16,22.9-16,44s2.3,28,12.6,28,10.9-2.9,14.3-6.3c-2.3,26.3-21.7,49.2-49.2,49.2-50.3,0-69.2-58.9-74.9-93.2-30.3,32-58.3,55.5-108.7,55.5s-68-34.3-68-66.9,3.4-34.9,15.4-34.9,1.7,46.9,29.8,46.9,19.4-5.7,26.3-24.6c4-11.4,6.3-23.5,6.3-33.8,0-15.4-3.4-25.1-14.9-25.1s-21.8,7.4-25.7,11.4c13.7-41.2,46.9-62.3,83.5-62.3s69.2,40.1,69.2,84.7c0,6.5-.6,13-1.7,19.4,19.5-32,46.4-56.6,75.5-56.6h0ZM878.9,223.4c0-3.4-17.1-6.9-40.6-6.9-37.2,0-32,30.9-60.6,30.9s-22.3-32-60.1-32-44,4-44,9.2,26.9,4,26.9,22.9-57.8,25.8-57.8,37.7,4.6,5.7,10.3,5.7c12.6,0,32.6-5.7,46.9-5.7s15.5,1.7,15.5,9.2c0,14.3-30.9,40-30.9,51.5s2.9,4.6,5.7,4.6c11.4,0,30.9-29.2,49.2-29.2,30.3,0,10.3,64.6,26.9,64.6s9.7-63.5,34.3-63.5,34.9,44,48.6,44,6.3-2.9,6.3-6.9c0-12-17.2-36.6-17.2-52.6s6.9-14.3,16-14.3c13.2,0,30.9,8,40.6,8s6.9-1.1,6.9-5.1c0-13.7-50.9-28.6-50.9-46.3,0-17.8,28-17.8,28-25.8h0ZM1694,1349.6c-12,0-78.4,88.7-121.3,88.7s-18.9-19.5-18.9-34.3,5.1-13.8,23.5-17.7c98.3-22.3,76.6-96.1,160.6-96.1s97.9,31.5,97.9,102.4-107.5,169.3-123.5,169.3-27.5-18.9-27.5-31.5,1.7-9.1,13.2-13.7c54.9-21.8,86.3-72,86.3-97.8s-2.8-11.4-10.3-11.4-51.5,94.9-97.8,94.9-64.7-29.2-64.7-42.9c0-22.9,92.7-65.2,92.7-97.3,0-12-5.7-12.6-10.3-12.6ZM1755.7,1314.1c-8,0-16.6,6.3-16.6,21.7s13.2,28,20.6,31.5c5.1,2.9,10.8,4.4,16.6,4.6,16.6,0,29.7-4.6,29.7-18.3s-25.7-39.4-50.3-39.4h0ZM1013.3,281.8c0,10.3,36.1,32.6,52.6,32.6s12.6-13.2,12.6-26.9-7.5-17.7-22.3-17.7-42.9,5.2-42.9,12ZM1072.8,395c0-34.3-93.8-97.8-93.8-123.5s0-1.7.5-2.9c6.9-18.9,84.6-32,84.6-47.5s-13.7-7.4-20.6-7.4c-53.2,0-131,19.5-131,38.4s69.8,66.9,69.8,90.4-4,8.6-10.3,8.6c-19.4,0-61.8-23.5-81.8-23.5s-12.6,6.3-12.6,15.4c0,27.4,32.6,79.5,32.6,94.9s-.6,4-2.8,4c-10.3,0-58.9-57.2-76.1-57.2s-6.9,8.6-6.9,21.2v19.5c0,13.1-.6,21.1-6.9,21.1-14.9,0-21.8-41.7-36-41.7s-17.7,74.4-32,74.4-2.3-81.8-18.3-81.8-37.8,54.3-50.3,54.3-5.7-4.6-5.7-8.6c0-16.5,9.7-43.4,9.7-59.5s-2.3-12.6-9.2-12.6c-17.7,0-56.6,28.6-71.5,28.6s-5.1-1.1-5.1-3.4c0-13.7,62.3-57.2,62.3-76.6s-85.8-6.3-85.8-28,61.2-37.2,61.2-56.1-72.6-24-100.6-24-52.1,4-52.1,13.7c0,14.9,76.6,19.5,76.6,32.6s-79.5,46.3-79.5,65.8,112.1,1.1,112.1,18.9-97.8,103.5-97.8,131.5,4.6,9.2,10.9,9.2c29.8,0,107-56.6,128.1-56.6s8,9.1,8,17.1c0,14.9-5.1,37.8-5.1,54.4s3.4,22.3,14.9,22.3c21.2,0,40.6-36,54.9-36s7.4,105.8,34.9,105.8,33.1-114.4,48-114.4,26.9,33.2,40.6,33.2,9.1-57.8,27.4-57.8,77.2,68.6,102.9,68.6,10.9-6.3,10.9-14.3c0-30.3-42.3-98.9-42.3-120.7s1.7-7.4,8-7.4c22.3,0,87.5,30.9,118.4,30.9,10.3,0,16.6-5.7,16.6-13.1h0ZM1853.6,1053.3c9.1-28.6,20.5-48.7,39.4-79.5-18.8-9.7-68.6-30.3-68.6-64s49.2-70.3,59.4-70.3,5.7,4,5.7,11.4c0,20.6-9.8,53.7-9.8,71.5s10.3,31.5,19.4,31.5,36.6-34.3,36.6-68c0-60.6-53.2-78.9-69.7-78.9s-43.5,25.2-109.3,25.2c-123,0-151-121.8-151-175s.5-2.9,1.1-2.9c2.9,0,14.9,14.9,53.8,14.9s38.4-5.1,67.5-5.1c68.6,0,98.9,47.5,141.3,108.1,25.7,16,86.9,41.7,86.9,114.4s-68.1,99.5-84.6,168.1c26.3-2.8,41.7-49.8,68.6-49.8s20,10.9,20,28c0,25.2-14.3,62.9-41.8,86.4.6-2.3.6-5.2.6-8.6,0-16-6.3-38.9-24.6-38.9-28.5,0-37.7,30.9-53.7,56.6-16.6-58.3-38.9-111-78.9-143-40.6-32.6-110.4-14.9-110.4-74.3s10.3-38.9,10.3-57.2-1.1-12-4.6-16.6c54.9,20.6,35.5,57.2,69.2,94.9,21.1,24,79.5,46.9,113.3,145.8.5-2.8,1.1-10.3,1.1-15.4,0-84.6-112.1-167.6-121.8-201.9,65.1,7.4,76.6,23.4,107.5,109.2,6.3,17.7,26.9,61.8,26.9,83.5h0ZM625,587.2c3.4-10.7,5.1-21.9,5.1-33.2,0-27.5-12.6-69.2-51.5-69.2s-38.3,17.7-38.3,38.9c0,45.2,45.2,63.5,84.6,63.5h0ZM576.4,731.3c-18.9,0-39.4-23.4-39.4-44.6s8.6-25.8,14.8-25.8,3.4,1.7,4,5.7c3.4,28.1,21.7,44.1,38.9,52,1.7,1.2,2.9,1.7,2.9,2.9,0,4-10.9,9.7-21.2,9.7h0ZM643.9,677.6c0,8-4.6,18.3-13.7,18.3-20,0-36-30.3-36-47.5s6.3-12,14.9-12,5.7.6,8.6,2.3c5.1,2.9,5.1,14.3,11.4,22.9,3.4,5.7,14.9,12,14.9,16h0ZM623.8,617.5c-3.4-.6-8-.6-12.6-.6-18.9,0-44.1,3.4-66.3,18.3-50.4,32.6-42.4,84-50.4,97.2-1.2,1.9-1.8,4.1-1.7,6.3,0,5.1,5.7,10.8,10.9,10.8s7.5-1.1,9.7-1.1c13.7,0,29.2,9.7,51.5,9.7s28.6-4,48.1-13.7c41.2-20.6,57.2-71.5,57.2-80.1s-8.6-9.2-16-19.5c-8-12-4-16.5-9.2-23.4-3.5-2.9-10.9-2.9-21.2-4h0ZM684.5,709.6c-12.6,14.8-25.8,40-25.8,65.8s18.9,56.6,48,56.6,41.2-24,41.2-48.6c0-38.3-34.9-65.2-63.5-73.8h0ZM562.1,599.8s-16.5,12.6-37.2,12.6-44-18.3-44-44,9.1-36,30.3-45.2c-.6,3.4-.6,6.3-.6,9.7,0,32.6,18.3,57.2,51.5,66.9ZM1579.6,932.6c0-11.4,10.3-21.2,21.7-21.2s22.3,9.7,22.3,21.2-9.8,22.3-22.3,22.3-21.7-9.2-21.7-22.3ZM1594.4,1590.4c2.9,0,6.3,1.7,6.3,12s-5.7,29.1-26.2,42.3c-14.3,9.7-33.8,17.7-62.4,18.3,4.6-13.7,8-28,8-41.8s-.6-8-1.1-13.1h7.4c45.2,0,64.6-17.7,68.1-17.7ZM1599,1533.7c4.6-4,5.7-10.3,5.7-16.6v-13.2c0-16.6-25.1-26.3-59.4-26.3s-64.1,18.9-64.1,26.9v26.3c0,10.9,25.2,21.7,56.1,21.7s46.9-6.3,61.7-18.9ZM1628.7,1540c-14.9,11.4-49.8,37.2-107.5,37.2s-44.6-9.7-49.2-9.7-12,5.7-18.3,13.2c-13.7,16-31.5,45.7-31.5,78.3s17.7,45.8,50.9,45.8c107,0,187-66.9,187-121.2s-18.3-43.5-31.5-43.5h0ZM1648.7,1059c0,14.3,4.6,30.9,18.9,30.9s22.3-18.3,22.3-38.3-4-40.6-4-49.8,1.7-5.7,4-5.7c8.6.6,16.6,24,25.7,24s25.7-18.9,32-18.9,2.3,2.3,2.3,2.9c0,8.6-13.2,27.5-13.2,34.9s33.2,7.4,33.2,13.2c0,8.6-34.9,8.6-51.5,16-16,6.8-25.8,15.4-25.8,26.9s11.4,13.7,27.5,13.7c38.3,0,65.2-20.6,73.8-20.6s2.9,1.1,2.9,2.9c0,5.7-19.5,24.6-19.5,33.2s35.5,21.1,34.9,26.9c-.6,1.7-2.8,2.3-6.9,2.3-6.3,0-16-1.7-23.5-1.7s-8.6.5-10.3,2.8c-4,4.6,1.1,34.9-6.9,34.9s-26.9-67.5-70.9-67.5-10.9,5.1-10.9,13.7c0,22.9,22.3,49.2,43.5,61.8,9.7,6.3,25.7,12.6,25.7,16,0,6.8-36.6.6-36.6,12s4.6,25.8,4.6,34.9-.5,6.3-4,6.3c-6.8,0-23.5-31.5-31.5-31.5s-21.7,18.9-28,18.9-2.9-1.7-2.9-3.4c0-13.2,21.2-42.9,21.2-72.1s-1.7-43.5-18.3-43.5-29.2,21.7-36.1,43.5c-4,12.6-1.1,61.2-10.3,61.2s-6.3-32.6-17.7-32.6-26.8,15.4-33.1,15.4-2.3-.6-2.3-1.7c0-6.8,16.6-29.2,16.6-33.7,0-8.6-37.8-9.7-37.8-16.6s14.9-6.9,28.6-9.2c29.2-5.1,72-26.3,72-56s-32.1-47.5-53.2-61.2c-10.9-6.9-22.9-12.6-22.9-17.2s13.8-4.6,19.5-4.6c8.5,0,17.1-.6,17.1-7.4s-1.2-15.4-1.2-23.4.6-10.3,2.9-10.3c8.6,0,20.6,28,26.3,28,9.1,0,21.7-22.9,30.3-22.9s4,1.7,4,6.8c0,21.2-10.9,45.2-10.9,65.8h0ZM1375.9,891.5c6.3,48.6,71.5,24,71.5,82.9s-2.3,21.2-2.3,32,1.1,23.5,10.9,23.5,12-6.9,12-16-2.3-20.6-2.3-26.9c0-20,14.3-24.6,22.9-24.6,21.7,0,38.3,22.3,71,22.3-7.4,36.6-82.9,26.9-82.9,66.9s20,24.6,33.2,24.6,16-1.7,16-12-1.1-12-1.1-16,1.7-4.6,4.6-4.6c12.6,0,74.3,46.9,74.3,61.2s-65.2,26.3-84.1,26.3-6.8-4-6.8-6.3c0-4,9.7-16,9.7-22.9s-8.6-8.6-31.5-8.6-18.9,1.1-18.9,9.7c0,15.4,25.1,34.3,25.1,48.6s-6.8,18.3-25.1,18.3-38.9-12-38.9-32,16.6-32,16.6-41.8-2.3-7.4-9.2-7.4c-21.2,0-26.9,56-101.8,62.3,12-10.9,22.3-22.9,22.3-47.5s-2.9-21.8-2.9-34.9,8-25.7,19.4-25.7c21.2,0,31.5,29.7,45.2,29.7s15.4-6.8,15.4-17.1c0-43.5-83.5-37.2-83.5-98.4,0-16.6,5.7-37.2,21.2-65.8ZM1484.6,1263.2c0,8,5.7,14.3,13.7,14.3s14.9-8,14.9-17.2-10.9-28.6-21.2-28.6-2.8,6.8-4,14.3c-.5,5.7-3.4,12.6-3.4,17.2h0ZM1454.9,1187.1c60.1,11.4,92.7,56.6,92.7,98.9s-18.3,56-50.4,56-50.3-20-50.3-52,18.9-49.2,18.9-73.8c0-9.7-2.8-19.4-10.9-29.1h0ZM1378.8,1284.4c5.7,5.7,7.4,11.4,7.4,17.1,0,8.6-4,17.7-4,27.4,0,13.7,10.3,25.7,25.2,25.7s26.8-12.6,26.8-27.4c0-21.7-22.3-42.8-55.5-42.8ZM1568.1,1247.8c4,6.3,5.7,12.6,5.7,18.3,0,16-10.9,30.9-10.9,47.5s14.3,34.3,36,34.3,39.5-18.9,39.5-41.1c0-30.3-27.4-56.1-70.3-58.9h0ZM1392.5,1217.4c26.3,3.4,32.6,12.6,32.6,20,0,12.6-11.4,16.6-22.3,16.6s-17.1-1.7-26.9-1.7-25.1,2.9-35.5,14.9c7.4,1.1,18.3,6.3,18.3,17.7,0,33.2-92.1,5.7-92.1,90.9s46.9,94.3,117.8,94.3,60-12,60-25.7-19.4-3.4-19.4-12.6,6.9-11.5,6.9-17.7-2.3-8-6.9-8c-10.3,0-29.7,16.6-69.2,16.6s-61.2-17.7-61.2-41.8,2.3-8,5.7-8,8,2.3,12,2.3,4-2.3,4-8.6,0-24,10.9-24,31.4,40.1,110.4,40.1,77.2-5.1,96.1-22.3c-.6,63-49.8,145.8-152.7,145.8s-164.1-85.8-164.1-164.7,71.5-167,169.3-167,46.3,8.6,46.3,19.4c0,14.9-37.2,5.7-40.1,23.5h0ZM978.5,631.8c0-9.7-2.3-12-4.6-12-5.7,0-12,6.9-21.2,22.3,1.1,20.6,4.6,29.8,10.3,29.8,6.3,0,15.5-20,15.5-40h0ZM900.1,655.2c6.3,0,14.3-6.9,29.2-23.4,1.1-7.4,1.1-14.3,1.1-22.9s-4.6-24-11.5-24c-17.1,0-25.7,45.8-25.7,57.8s3.4,12.6,6.8,12.6h0ZM993.3,706.2c14.3,0,30.3-54.9,30.3-89.2s-1.1-15.4-4.6-15.4c-12,0-32.1,56.6-32.1,87.5,0,12,2.9,17.1,6.3,17.1ZM853.2,674.7c19.5,0,41.8-105.2,41.8-123s-1.7-8-5.7-8c-17.7,0-42.4,100.1-42.4,122.4,0,4,1.1,8.6,6.3,8.6ZM915.5,718.2c-24.6,0-25.7,29.8-25.7,89.8-18.3-39.5-48.6-81.8-84.1-81.8s-33.2,16-33.2,44,.6,14.3,1.7,19.5c2.9-9.7,12-13.7,23.5-13.7,24.6,0,54.3,18.8,73.8,44.6-22.3-4-44-8-62.3-8s-21.7,1.1-30.3,5.1c-16.6,7.4-38.9,32-38.9,69.2s.6,12,1.8,18.8c20-44.6,73.2-64.6,107.5-64.6s12,.6,16,1.2c-17.7,16-21.7,44-22.9,62.9-.6,9.2-4,9.7-10.3,9.7,0,18.8,14.8,46.9,14.8,61.2s-2.9,9.7-5.7,10.9c0,25.1,25.1,43.4,25.1,59.5s-1.1,7.4-2.9,9.2c1.7,10.3,29.2,28,32.6,35.4,5.7,12,9.7,13.2,12.6,13.2,9.7,0,25.2-11.4,25.2-21.8s-2.9-7.4-5.1-9.1c-10.9-8-16.6-25.2-21.2-36.6-5,0-9.4-3.2-10.9-8-2.3-7.4-3.5-34.3-8-47.5-7.5-1.7-10.9-4.6-10.9-20s4.6-36.6,4.6-46.9c-3.4,0-8-2.3-8-9.2,0-18.3,18.3-32.6,23.5-56,32.6,24,40.6,48.6,40.6,70.3s-1.7,22.3-4,32.6c24-12,60-29.7,60-65.7s-9.7-44.6-74.4-53.8c20-7.4,45.2-11.4,66.4-11.4,36.6,0,57.8,11.4,62.4,37.2,7.4-11.4,13.1-24.6,13.1-36.6,0-28-23.4-46.3-53.2-46.3s-65.8,18.3-99,40.6c14.9-30.9,25.2-49.2,43.5-49.2s5.7.5,8.6,1.1c-6.8-25.2-32.6-49.8-46.3-49.8h0ZM550.6,361.8c0,11.4-43.5,49.8-58.9,49.8s-7.4-6.9-7.4-13.2c0-11.5,5.1-27.5,11.4-32.6,7.4-6.9,24.6-10.3,37.8-10.3,8,0,17.2,1.7,17.2,6.3h0ZM1879.3,1130.5c28.6,0,51.5,37.2,51.5,80.7s-21.7,96.7-60.6,130.9c-.6-77.2-95-52.6-95-108.6s17.1-40,37.8-40,32.6,5.2,42.9,15.5c-10.3-9.7-15.5-23.4-15.5-36.6,0-21.7,13.7-41.8,38.9-41.8h0ZM1454.9,545.4c-4.6-7.4-21.7-11.4-29.7-11.4-25.1,0-42.3,17.7-45.7,33.7-2.5-6.2-3.9-12.8-4-19.4,0-25.2,17.2-56.1,58.9-56.1s50.9,19.4,56.1,19.4,11.5-5.7,16-5.7,6.3,9.7,6.3,16.6c0,22.9-10.3,62.3-36,76.7-4.6-9.7-13.7-20.6-28.6-27.5-3.5-1.4-5.8-4.8-5.7-8.5,0-6.3,5.7-14.3,12.6-17.8ZM1368.5,587.2c14.9,14.3,28,20.6,44,20.6s13.7-1.7,17.8-1.7,8.6,2.3,8.6,6.3c0,6.3-5.7,16.6-12.6,22.3,6.9,2.9,14.3,4,22.3,4,32.6,0,69.8-20.6,69.8-72,6.9,9.1,10.9,28,10.9,36.6,0,62.3-45.8,86.4-88.1,86.4s-41.2-9.1-44.6-9.1c-10.8,0-10.3,21.7-17.7,21.2-13.2-2.3-25.1-31.5-25.1-62.3,0-18.3,4.6-37.7,14.9-52h0ZM971,420.8c0,20,71.5,117.8,85.2,117.8s20-20,20-37.2-1.1-9.1-3.4-12.6c-10.3-14.3-83-71.5-98.9-71.5-1.7,0-2.9,1.7-2.9,3.4ZM1796.3,373.8c0-40.6-97.2-50.9-97.2-60.1s54.3-20,82.4-20.6c-42.9-54.9-104.1-49.2-104.1-58.9s45.8-17.2,88.1-17.2,68.7,8,68.7,34.9-12,30.3-12,53.2,6.3,23.5,22.9,23.5,21.7-18.9,21.7-38.9-2.9-29.2-2.9-37.2c0-24,16.5-40,40-40s24,8.6,52.6,8.6c-15.4,9.2-21.2,25.8-21.2,33.8,0,24,15.5,40.6,15.5,89.8,0,90.3-84.6,122.4-188.2,122.4s-58.9-2.3-88.6-6.9c-4.6-.6-5.7-1.7-5.7-4.6,0-7.4,40.6-11.4,40.6-48.1s-4.6-28-4.6-33.2c0-2.5,2-4.6,4.5-4.6,0,0,0,0,.1,0,8.6,0,25.7,33.2,57.7,33.2,8.6,0,29.8-2.9,29.8-29.2h0ZM1893,316.1c0,50.9-37.1,89.8-104.1,100.7,7.4.6,14.3.6,21.2.6,78.3,0,106.9-35.5,106.9-65.2s-9.1-31.5-24-36.1h0ZM1838.7,776c0-12-30.3-13.2-33.2-46.9-.6-5.1-2.3-14.3-8.6-14.3-10.3,0-2.3,31.5-13.7,31.5-26.3,0-34.9-51.5-44.6-51.5s-5.1,1.7-5.1,8.6,1.1,10.3,1.1,17.7-1.7,12.6-8.5,12.6c-15.4,0-29.2-36-42.4-36s-5.7,1.7-5.7,4.6c0,6.9,11.4,19.4,11.4,25.7,0,13.7-37.2,6.3-37.2,17.7s5.2,6.9,12,6.9c12,0,30.9-5.2,40.6-5.2s14.3,1.2,14.3,8.6-20.6,18.3-20.6,25.7,3.5,5.1,6.3,5.1c15.4,0,42.9-26.9,62.3-26.9s12.1,1.7,12.1,6.9c0,7.4-19.5,20.6-19.5,31.4s1.7,6.3,5.1,6.3c10.3,0,24-26.9,43.5-26.9s18.3,2.9,24,2.9,6.3-2.9,6.3-4.6h0ZM1429.1,339.5c0-6.3-22.3-18.3-22.3-25.2s1.2-1.7,2.8-1.7c6.3,0,17.1,2.3,25.8,2.3s8.6-32,14.3-32,10.9,30.3,17.1,30.3,21.1-8.6,26.9-8.6,2.3.6,2.3,1.7c0,4-14.3,19.4-14.3,24s32.1,11.4,32.1,16-32.7,5.1-32.7,10.3,12,20,12,25.2-.6,1.7-1.7,1.7c-4.6,0-22.3-8-27.4-8s-16.6,23.5-21.7,23.5-2.9-2.3-2.9-5.2l-1.2-22.9c0-2.3-1.1-4.6-4-4.6-6.9,0-20-.6-24-.6s-4-.6-4-1.7c0-4.6,22.9-20.6,22.9-24.6h0ZM1540.7,448.2c-40.1,0-66.4-20-66.4-30.3s3.4-8.6,8-8.6c12.6,0,40.1,19.4,49.2,19.4s4-1.1,4-4.6c0-10.3-9.7-27.5-9.7-36s1.7-4,5.2-4c15.4,0,38.3,6.3,50.3,6.3s5.1-2.3,5.1-4.6c0-12.6-37.2-37.2-37.2-44.6s46.3-17.2,46.3-28-62.9-3.4-62.9-14.3,12-21.7,12-28-2.3-4-6.3-4-32.6,10.9-44,10.9-12.6-1.1-12.6-9.2c0-13.2,22.3-27.5,57.2-27.5,56.6,0,90.4,38.9,90.4,104.1s-57.8,102.9-88.6,102.9h0ZM1153.5,1437.7c0,5.1-1.7,10.9-6.3,16.6-6.3-11.5-24-17.2-32-17.2-58.9,0-36.6,85.2-99.6,85.2s-28.6-3.4-38.3-3.4-6.3,1.7-6.3,5.1c0,14.9,21.2,51.5,80,51.5s115.5-36.1,115.5-80.7c-.1-8.1-1.9-16.1-5.2-23.4,2.3-3.4,8-5.7,13.2-5.7,9.2,0,14.3,10.3,22.9,10.3s16-6.9,16-16-4-12.6-10.9-16.1c4.6-3.4,8-9.1,8-15.4,0-9.7-6.9-18.9-18.3-18.9s-8.6,1.7-12.6,5.7c-1.2-10.3-6.9-20-17.7-20s-14.9,6.3-14.9,16,6.3,16.6,6.3,26.3h0ZM999.6,1459.4c-17.1,0-42.9-18.3-42.9-28.6s8-13.2,14.3-13.2c14.3,0,40,17.7,40,32.6s-2.9,9.2-11.5,9.2h0ZM840.1,1331.2c45.8,11.5,68.6,36,73.2,65.2,4.6,28,10.3,50.9,21.2,62.4,14.3,16,42.3,30.3,66.9,30.3s37.2-6.8,37.2-25.7-28-66.9-69.2-66.9-9.2.6-14.9.6-12.6-1.2-17.2-5.1c-9.2-8-12-50.9-29.2-76.6-18.8-28.6-39.4-36.6-67.5-36.6s-42.3,10.9-42.3,26.9c0,9.7,5.2,16.5,41.7,25.7h0ZM1127.2,1261.5c0-25.7-53.2-26.3-53.2-65.2s6.3-26.3,18.9-44.1c5.1,29.8,17.2,45.2,42.9,54.9,50.9,18.9,57.8,47.4,57.8,77.8,0,51.4-36,115.5-128.7,115.5s-127.6-66.4-127.6-122.4,4-32.6,13.7-32.6,11.4,6.9,18.3,13.7c25.7,25.7,53.8,32.6,94.4,32.6,36.6,0,63.5-14.9,63.5-30.3h0ZM1129.4,1302.7c-20,8-27.4,7.4-27.4,27.4s-1.7,17.2-1.7,22.3,1.1,10.9,9.2,10.9c20.6,0,53.2-34.9,53.2-64.6s-4.6-11.4-9.7-11.4-9.8,9.1-23.5,15.4ZM947,1013.8c0-36.6,86.9-56,86.9-101.2s-2.9-20.6-8-30.3c30.3,16.6,52.6,44.6,52.6,67.5,0,39.5-41.2,57.8-41.2,82.4s44,33.2,44,68.6-41.7,62.9-41.7,100.7,20.5,53.2,52,57.2c-10.3,2.3-19.5,4-29.2,4-57.8,0-117.2-47.5-117.2-104.1s12-52.6,30.3-70.3c16,13.7,32,22.9,42.3,22.9s13.2-4.6,13.2-11.4c0-21.2-84.1-40.6-84.1-85.8h0ZM1065,2237.4c16.2,0,43.9-5.3,65.8-40.3-12.5-27.7-21.4-83.9-22.7-104.3-6.4-104.4,33.8-202.7,77.9-205.4,32.3-1.9,58.1,28.6,61.1,78.1,8,130.2-35.4,184.6-57.1,231.4,3.7,18.2,34.4,49.2,63.6,49.2s23.7-5.4,27-9.7c-3-10.1-4.5-20.7-4.4-31.2,0-75.4,48.6-139.1,90.6-139.1s52.8,44.2,52.8,73.4-29.1,62.5-72.2,89.4c7.6,7.5,21.5,12.9,33.5,12.9,61.4,0,93.7-74.3,117.5-142.3,4.3-12.9,11.9-31.2,26.9-31.2,25.9,0,36.7,170.3,79.7,170.3s33.4-37.7,33.4-66.7-7.5-23.7-7.5-55,18.3-63.6,43.2-63.6,20.5,15.1,20.5,33.4c0,69-49.6,197.3-122.8,197.3s-50.8-94.9-70.1-94.9-51.8,96-158.5,96-35.6-8.6-50.6-26c-25.9,17.3-47.5,24.9-72.3,24.9-39.8,0-57.1-41-73.2-41s-40.9,42.1-105.7,42.1-60.4-69-78.7-69-41,69-67.9,69c-45.4,0-55-119.6-94.9-119.6s-130,121.5-156.9,118.7c-10.8-1.1-15.3-9.2-14.2-20,1.5-14.9,14.3-54.8,19.6-73.7,8.7-32.7,16.7-68.7,21.2-80.2,4.4-11.5,16.4-19.8,26-18.9,4.8.5,6.3,9.5,7.8,16.9,5.4,26.7,13.1,53.9,21.6,53.9,15.1,0,65.1-96,94.2-96s39.9,151,88.4,151,28.1-19.4,38.8-43.1c1.1-39.9,11.9-97,44.2-97s33.4,50.6,17.2,94.9c0,52.7,34.5,65.7,57.1,65.7h0ZM1869.1,2136.1c0-26.9-24.7-64.7-61.4-64.7s-95.9,52.8-95.9,126.1,40.9,87.4,81.8,87.4c71.2,0,114.3-58.3,136.9-106.8,10.8,32.3,17.2,106.8,44.2,106.8s18.3-5.4,31.3-34.5c32.2-72.2,63.5-155.2,106.7-155.2s6.5,29.1,45.2,29.1,31.2-15.1,31.2-32.4c0-24.8-22.6-44.2-57.1-44.2-101.3,0-122.8,152-139,152-27,0-18.3-121.8-37.7-121.8s-25.9,20.5-28,30.2c-14,56.1-53.9,136.9-114.3,136.9s-38.8-5.4-38.8-19.4,94.9-17.2,94.9-89.4h0ZM1212.2,1994.6c-1.9-30.1-9.2-43.7-25.3-42.6-21.5,1.3-31.4,68.8-27,139.8,2.8,46.3,9.7,53.4,16.1,53,11.9-.7,40.3-83.4,36.2-150.2h0ZM1036.9,1931.4c-1-17.3-15-29.1-33.4-29.1s-39.9,21.5-37.7,48.5c0,16.1,11.8,32.3,32.4,32.3s40.9-26.9,38.7-51.7h0ZM1372.2,2151.2c0-18.3-9.7-33.4-21.6-33.4s-32.3,10.8-32.3,45.3,9.6,39.8,14,45.3c31.2-9.8,39.8-35.6,39.8-57.2ZM1793.6,2114.6c22.6,0,29.2,26.9,23.8,43.1-5.4,16.1-24.8,34.5-55,39.9-6.5-16.2-9.7-82.9,31.2-82.9ZM311.1,2131.8c-1.1-44.3,1.1-88.4,19.4-150.9,9.7-33.4,18.3-45.3,48.5-51.7,23.7-4.3,21.6,20.4,16.2,49.5-11.8,64.6-17.3,95.9-12.9,169.2,4.2,77.6,39.9,107.8,78.6,107.8,58.2,1.1,84.1-47.4,94.9-117.5,8.6-56.1,2.1-83.1-3.3-100.2-3.2-9.7-11.8-31.3-15.1-47.4-4.3-41,15.1-60.3,31.3-65.7,19.4-5.4,27,4.3,34.5,27,9.7,34.5,10.8,79.7,7.6,144.3-4.3,88.4-48.5,195.2-158.4,193-94.9-2.1-136.8-63.6-141.2-157.3h0Z"/>
    </g>
  </g>
</svg>