<?xml version="1.0" encoding="UTF-8"?>
<svg xmlns="http://www.w3.org/2000/svg" version="1.1" viewBox="0 0 2500 2500">
  <defs>
    <style>
      .cls-1 {
        fill: #a7a8aa;
        stroke: #a7a8aa;
        stroke-miterlimit: 33.9;
        stroke-width: 15.1px;
      }

      .cls-1, .cls-2 {
        fill-rule: evenodd;
      }

      .cls-2 {
        fill: #292929;
      }
    </style>
  </defs>
  <!-- Generator: Adobe Illustrator 28.7.1, SVG Export Plug-In . SVG Version: 1.2.0 Build 142)  -->
  <g>
    <g id="Capa_1">
      <g>
        <path class="cls-1" d="M470.4,762.9l-108.4-109-108.4,109-108.4-109-108.4,109,325.2,328.3,326.4-328.3-109.6-109-108.4,109h0Z"/>
        <path class="cls-2" d="M329.7,1694.4h-102.6l-50.7-429.2h91.1l18.5,306.2h1.1l34.6-306.2h98l24.2,306.2,28.8-306.2h79.6l-50.8,429.2h-104.9l-34.6-330.6h-1.2l-31.1,330.6h0ZM644.5,1429.9c11.5,0,17.3,5.8,17.3,18.6v44.1h-34.6v-44.1c0-12.8,5.8-18.6,17.3-18.6ZM644.5,1371.9c-31.1,0-55.4,8.1-72.7,23.2-17.3,16.2-25.4,38.3-25.4,66.1v152c0,27.8,9.2,49.9,30,65,17.3,13.9,40.4,20.9,68.1,20.9,65.7,0,99.2-27.8,99.2-83.5v-46.4h-81.9v40.6c0,20.9-5.8,31.3-17.3,31.3s-17.3-10.4-17.3-31.3v-65h116.5v-83.5c0-59.2-33.5-89.3-99.2-89.3h0ZM855.6,1550.6c8.1-5.8,15-11.6,23.1-17.4v55.7c0,15.1-1.1,25.5-3.5,31.3-2.3,5.8-8.1,9.3-16.1,9.3s-15-5.8-15-16.2v-34.8c0-11.6,4.6-19.7,11.5-27.8h0ZM960.5,1458.9c0-30.1-10.4-52.2-31.1-67.3-17.3-12.7-40.4-19.7-68.1-19.7s-49.6,7-66.9,19.7c-20.8,15.1-31.1,37.1-31.1,67.3v29h80.7v-34.8c0-15.1,5.8-23.2,17.3-23.2s17.3,8.1,17.3,23.2-10.4,30.2-30,41.8c-18.5,10.4-36.9,22-55.4,32.5-19.6,15.1-30,34.8-30,58v47.5c0,20.9,4.6,37.1,15,48.7,10.4,11.6,24.2,17.4,41.5,17.4,26.5,0,46.1-13.9,57.7-41.7h1.1v37.1h81.9v-235.5h0ZM999.7,1628.3v-194.9h-26.5v-58h26.5v-56.8h81.9v56.8h35.7v58h-35.7v174c0,11.6,1.2,18.5,2.3,22,3.5,4.6,9.2,6.9,17.3,6.9h16.1v58h-66.9c-19.6,0-32.3-5.8-40.4-17.4-6.9-9.3-10.4-26.7-10.4-48.7h0ZM1211.9,1478.7v215.8h-81.9v-396.7h81.9v117.2c9.2-29,28.8-42.9,57.7-42.9s57.7,25.5,57.7,75.4v247.1h-81.9v-215.8c0-23.2-5.8-34.8-17.3-34.8s-16.1,11.6-16.1,34.8h0ZM1444.9,1429.9c11.5,0,17.3,5.8,17.3,18.6v44.1h-33.5v-44.1c0-12.8,5.8-18.6,16.2-18.6ZM1444.9,1371.9c-31.2,0-55.4,8.1-72.7,23.2-17.3,16.2-25.4,38.3-25.4,66.1v152c0,27.8,10.4,49.9,30,65,17.3,13.9,40.3,20.9,68,20.9,65.7,0,99.2-27.8,99.2-83.5v-46.4h-81.9v40.6c0,20.9-5.8,31.3-17.3,31.3s-16.2-10.4-16.2-31.3v-65h115.3v-83.5c0-59.2-33.4-89.3-99.2-89.3h0ZM1726.3,1371.9v88.2c-8.7-3.8-18.1-5.8-27.7-5.8-13.9,0-26.5,3.5-36.9,11.6-10.4,8.1-16.2,18.6-16.2,29v199.5h-81.9v-320.2h81.9v41.8h1.2c12.7-31.3,32.3-46.4,57.7-46.4s15,1.2,21.9,2.3h0ZM1751.7,1694.4v-261h-18.5v-58h18.5v-20.9c0-13.9,4.6-26.7,12.7-37.1,9.2-12.8,23-19.7,40.3-19.7h51.9v58c-16.2,0-23.1,7-23.1,19.7h23.1v58h-23.1v261h-81.9s0,0,0,0ZM1970.8,1429.9c11.5,0,17.3,7,17.3,22.1v165.9c0,15.1-5.8,23.2-17.3,23.2s-17.3-8.1-17.3-23.2v-165.9c0-15.1,5.8-22.1,17.3-22.1ZM2043.5,1395.1c-17.3-15.1-41.5-23.2-72.7-23.2s-56.5,8.1-72.7,23.2c-17.3,16.2-25.4,38.3-25.4,66.1v152c0,27.8,9.2,49.9,30,65,17.3,13.9,40.3,20.9,68,20.9s50.7-7,68-20.9c20.8-15.1,30-37.1,30-65v-152c0-27.8-8.1-49.9-25.4-66.1h0ZM2252.2,1371.9v88.2c-9.2-3.5-18.4-5.8-27.7-5.8-15,0-27.7,3.5-38.1,11.6-10.4,8.1-15,18.6-15,29v199.5h-81.9v-320.2h81.9v41.8h1.1c11.5-31.3,31.1-46.4,57.7-46.4s13.9,1.2,21.9,2.3h0ZM2365.2,1443.8c11.5,0,17.3,8.1,17.3,22v138c0,15.1-5.8,22-17.3,22s-17.3-6.9-17.3-22v-138c0-13.9,5.8-22,17.3-22ZM2463.2,1297.7h-80.7v121.8h-1.2c-8.1-31.3-27.7-47.5-57.7-47.5s-56.5,23.2-56.5,70.8v176.3c0,22,3.5,40.6,11.5,53.3,10.4,17.4,25.4,26.7,46.1,26.7,33.5,0,53.1-15.1,56.5-44.1h1.2v39.4h80.7v-396.7h0Z"/>
      </g>
    </g>
  </g>
</svg>