<?xml version="1.0" encoding="UTF-8"?>
<svg xmlns="http://www.w3.org/2000/svg" version="1.1" viewBox="0 0 1288 508">
  <defs>
    <style>
      .cls-1 {
        fill: #fff;
      }

      .cls-1, .cls-2 {
        fill-rule: evenodd;
      }

      .cls-2 {
        fill: #292929;
      }
    </style>
  </defs>
  <!-- Generator: Adobe Illustrator 28.7.1, SVG Export Plug-In . SVG Version: 1.2.0 Build 142)  -->
  <g>
    <g id="Capa_1">
      <g>
        <path class="cls-2" d="M0,0h1288v508H0V0h0ZM115.4,126.9h0c13.7,8,24.5,20,34.3,32.4,31.8,39.6,63.6,79.3,95.4,118.9,0,24.3,0,48.6,0,72.9,0,10.1-1.8,20.6-7.7,29,41,0,81.9,0,122.9,0-5.3-7.9-7.2-17.6-7.4-27,0-25,0-49.9,0-74.9,29.6-36.8,59.1-73.6,88.7-110.4,12.1-15.1,24-31.5,41.5-40.7-41.6,0-83.2,0-124.8,0-5.4,15.7-14.8,29.6-24,43.4-11.2,17-22.5,34-33.7,51.1-.4.5-1.3,1.5-1.7,1.9-11.2-16.4-21.7-33.1-32.7-49.7-9.8-15-20.2-29.8-26.1-46.9h-124.8ZM525.2,127h0c5.5,7.8,7.6,17.6,7.7,27v199c-.1,9.4-2.1,19.2-7.7,27,41,0,82,0,123,0-5.3-7.9-7.2-17.6-7.4-27v-62.3c29.8,0,59.5,0,89.3,0,16.5-.1,33.3-2.6,48.7-8.9,15.6-6.3,29.8-16.9,38.7-31.3,9.1-14.6,12.2-32.4,10.8-49.4-1.2-16.3-7.5-32.4-18.6-44.6-13-14.4-31.5-22.8-50.4-26.6-19.1-4.1-38.7-2.6-58.1-2.8-58.6,0-117.3,0-175.9,0h0ZM877.3,127h0c6.6,9.2,8,21,7.8,32,0,61,0,122,0,183,.3,12.8.2,26.8-7.7,37.6,40.8,0,81.7,0,122.5,0-5.4-8.5-6.9-18.8-6.9-28.6v-60.3h96c11.8-.2,23.8,1.6,35,5.4,0-20.2,0-40.3,0-60.5-11.4,3.2-23.2,4.4-35,4.4h-96v-60.8h117c12.2-.4,24.7,1.2,35.6,7,0-19.8,0-39.5,0-59.3-89.4,0-178.9,0-268.3,0h0Z"/>
        <path class="cls-2" d="M641,174.1c12.3,0,24.6-.1,37,0,11.2.4,23.1,2.6,31.9,10,6.7,5.5,10.2,14.2,10.4,22.8.5,9.4-2.4,19.3-9.4,25.9-8.7,8.3-21.2,11.1-32.8,11.5-12.3,0-24.7,0-37,0v-70.4Z"/>
      </g>
      <g>
        <path class="cls-1" d="M115.4,126.9h124.8c5.8,17,16.3,31.9,26.1,46.9,10.9,16.5,21.5,33.3,32.7,49.6.4-.5,1.3-1.5,1.7-1.9,11.2-17,22.5-34,33.7-51.1,9.2-13.7,18.6-27.6,24-43.4,41.6,0,83.2,0,124.8,0-17.5,9.3-29.3,25.7-41.5,40.7-29.6,36.8-59.1,73.6-88.7,110.4,0,25,0,49.9,0,74.9.2,9.4,2.1,19.1,7.4,27-41,0-81.9,0-122.9,0,5.8-8.4,7.6-18.9,7.7-29,0-24.3,0-48.6,0-72.9-31.8-39.6-63.6-79.3-95.4-118.9-9.8-12.4-20.6-24.4-34.3-32.4h0Z"/>
        <path class="cls-1" d="M525.2,127c58.6,0,117.3,0,175.9,0,19.4.3,39-1.2,58.1,2.8,18.8,3.8,37.3,12.2,50.4,26.6,11.1,12.1,17.4,28.2,18.6,44.6,1.5,17-1.6,34.8-10.8,49.4-8.9,14.5-23.1,25.1-38.7,31.3-15.4,6.3-32.1,8.7-48.7,8.9-29.8,0-59.5,0-89.3,0v62.3c.1,9.4,2.1,19.1,7.4,27-41,0-82,0-123,0,5.6-7.8,7.6-17.5,7.7-27v-199.1c-.2-9.4-2.2-19.2-7.7-27h0ZM641,174.1h0v70.4c12.3,0,24.7,0,37,0,11.7-.4,24.1-3.2,32.8-11.5,7-6.6,9.9-16.5,9.4-25.9-.2-8.6-3.7-17.3-10.4-22.8-8.8-7.4-20.7-9.7-31.9-10-12.3-.2-24.6,0-37,0Z"/>
        <path class="cls-1" d="M877.3,127c89.4,0,178.9,0,268.3,0,0,19.8,0,39.5,0,59.3-10.9-5.8-23.4-7.4-35.6-7h-117c0,20.2,0,40.5,0,60.8h96c11.8,0,23.7-1.2,35-4.4,0,20.1,0,40.3,0,60.5-11.2-3.8-23.2-5.6-35-5.4h-96v60.3c0,9.9,1.5,20.2,6.9,28.6-40.8,0-81.7,0-122.5,0,7.9-10.8,8-24.8,7.7-37.6v-183c.2-11.1-1.2-22.8-7.8-32h0Z"/>
      </g>
    </g>
  </g>
</svg>