<svg width="40" height="40" viewBox="0 0 40 40" fill="none" xmlns="http://www.w3.org/2000/svg">
<g clip-path="url(#clip0_82_302)">
<rect width="40" height="40" rx="10" fill="#E0EDFF" fill-opacity="0.9"/>
<path d="M8.83325 29.9583V15.8333H11.3333V29.9583H8.83325ZM18.9166 29.9583V15.8333H21.4166V29.9583H18.9166ZM3.33325 13.3333V11.125L19.9999 1.625L36.6666 11.125V13.3333H3.33325ZM8.91659 10.8333H31.0833L19.9999 4.5L8.91659 10.8333ZM3.33325 34.9583V32.4583H24.1666C24.2221 32.8472 24.2708 33.2431 24.3124 33.6458C24.3541 34.0486 24.4583 34.4861 24.6249 34.9583H3.33325ZM28.6666 22.8333V15.8333H31.1666V21.5833L28.6666 22.8333ZM33.3333 40C31.4166 39.5278 29.8263 38.4236 28.5624 36.6875C27.2985 34.9514 26.6666 33.0278 26.6666 30.9167V26.6667L33.3333 23.3333L39.9999 26.6667V30.9167C39.9999 33.0278 39.368 34.9514 38.1041 36.6875C36.8402 38.4236 35.2499 39.5278 33.3333 40ZM32.4583 35L38.3749 29.0833L37.2083 27.9167L32.4583 32.6667L29.9999 30.2083L28.8333 31.375L32.4583 35Z" fill="#321D71"/>
</g>
<defs>
<clipPath id="clip0_82_302">
<rect width="40" height="40" rx="10" fill="white"/>
</clipPath>
</defs>
</svg>
