<svg width="40" height="40" viewBox="0 0 40 40" fill="none" xmlns="http://www.w3.org/2000/svg">
<rect width="40" height="40" rx="10" fill="#E0EDFF" fill-opacity="0.9"/>
<path d="M26.4912 18C26.9137 18 27.2708 17.8571 27.5625 17.5713C27.8542 17.2854 28 16.9313 28 16.5088C28 16.0863 27.8571 15.7292 27.5713 15.4375C27.2854 15.1458 26.9313 15 26.5088 15C26.0863 15 25.7292 15.1429 25.4375 15.4287C25.1458 15.7146 25 16.0687 25 16.4912C25 16.9137 25.1429 17.2708 25.4287 17.5625C25.7146 17.8542 26.0688 18 26.4912 18ZM14 15H22V12H14V15ZM8 34C7.11111 30.5556 6.22222 27.4028 5.33333 24.5417C4.44444 21.6806 4 18.8333 4 16C4 13.4908 4.87278 11.3636 6.61833 9.61833C8.36361 7.87278 10.4908 7 13 7H21.2917C22.125 6.02778 23.125 5.28472 24.2917 4.77083C25.4583 4.25694 26.6944 4 28 4C28.5556 4 29.0278 4.19444 29.4167 4.58333C29.8056 4.97222 30 5.44444 30 6C30 6.22222 29.9722 6.44444 29.9167 6.66667C29.8611 6.88889 29.7778 7.11111 29.6667 7.33333C29.5278 7.61111 29.3958 7.88194 29.2708 8.14583C29.1458 8.40972 29.0556 8.69444 29 9L33 13H36V24L31.5 25L29 34H20V31H17V34H8ZM10.25 31H14V28H23V31H26.7083L29.0833 22.4583L33 21.5833V16H31.75L26 10.25C26 9.71639 26.0347 9.20278 26.1042 8.70917C26.1736 8.21556 26.2778 7.71528 26.4167 7.20833C25.6944 7.43056 25.0208 7.76389 24.3958 8.20833C23.7708 8.65278 23.2361 9.25 22.7917 10H13C11.3428 10 9.92847 10.5857 8.75708 11.7571C7.58569 12.9285 7 14.3428 7 16C7 18.3056 7.36806 20.6875 8.10417 23.1458C8.84028 25.6042 9.55556 28.2222 10.25 31Z" fill="#321D71"/>
</svg>
