<svg width="40" height="40" viewBox="0 0 40 40" fill="none" xmlns="http://www.w3.org/2000/svg">
<rect width="40" height="40" rx="10" fill="#E0EDFF" fill-opacity="0.9"/>
<path d="M3.33325 33.3332V29.5832H6.66658V9.1665C6.66658 8.479 6.91145 7.89039 7.40117 7.40067C7.89061 6.91123 8.47908 6.6665 9.16658 6.6665H34.9999V9.1665H9.16658V29.5832H19.1666V33.3332H3.33325ZM22.9166 33.3332C22.5624 33.3332 22.2656 33.2133 22.0262 32.9736C21.7864 32.7341 21.6666 32.4373 21.6666 32.0832V12.9165C21.6666 12.5623 21.7864 12.2654 22.0262 12.0257C22.2656 11.7862 22.5624 11.6665 22.9166 11.6665H35.4166C35.7707 11.6665 36.0677 11.7862 36.3074 12.0257C36.5469 12.2654 36.6666 12.5623 36.6666 12.9165V32.0832C36.6666 32.4373 36.5469 32.7341 36.3074 32.9736C36.0677 33.2133 35.7707 33.3332 35.4166 33.3332H22.9166ZM24.1666 29.5832H34.1666V14.1665H24.1666V29.5832Z" fill="#321D71"/>
</svg>
