<svg width="40" height="40" viewBox="0 0 40 40" fill="none" xmlns="http://www.w3.org/2000/svg">
<rect width="40" height="40" rx="10" fill="#E0EDFF" fill-opacity="0.9"/>
<path d="M36.2499 32.125L34.1666 30.0417V11.6667H18.9999L16.4999 9.16667H13.2916L10.7916 6.66667H17.5416L20.0416 9.16667H34.1666C34.8055 9.16667 35.3819 9.42361 35.8958 9.9375C36.4096 10.4514 36.6666 11.0278 36.6666 11.6667V30.8333C36.6666 31.0556 36.6319 31.2778 36.5624 31.5C36.493 31.7222 36.3888 31.9306 36.2499 32.125ZM35.9166 38.8333L30.4166 33.3333H5.83325C5.16659 33.3333 4.58325 33.0764 4.08325 32.5625C3.58325 32.0486 3.33325 31.4722 3.33325 30.8333V9.16667C3.33325 8.52778 3.58325 7.95139 4.08325 7.4375C4.58325 6.92361 5.16659 6.66667 5.83325 6.66667H7.24992L9.74992 9.16667H5.83325V30.8333H27.9166L2.33325 5.25L4.08325 3.5L37.6666 37.0833L35.9166 38.8333Z" fill="#321D71"/>
</svg>
