<svg width="24" height="24" viewBox="0 0 24 24" fill="none" xmlns="http://www.w3.org/2000/svg">
<path d="M11.999 7.37695C10.7726 7.37695 9.59651 7.86412 8.72934 8.73129C7.86217 9.59846 7.375 10.7746 7.375 12.001C7.375 13.2273 7.86217 14.4034 8.72934 15.2706C9.59651 16.1378 10.7726 16.625 11.999 16.625C13.2254 16.625 14.4015 16.1378 15.2687 15.2706C16.1358 14.4034 16.623 13.2273 16.623 12.001C16.623 10.7746 16.1358 9.59846 15.2687 8.73129C14.4015 7.86412 13.2254 7.37695 11.999 7.37695ZM11.999 15.004C11.6045 15.004 11.2139 14.9263 10.8494 14.7753C10.485 14.6243 10.1538 14.403 9.87485 14.1241C9.5959 13.8452 9.37463 13.514 9.22367 13.1495C9.0727 12.7851 8.995 12.3944 8.995 12C8.995 11.6055 9.0727 11.2148 9.22367 10.8504C9.37463 10.4859 9.5959 10.1548 9.87485 9.8758C10.1538 9.59686 10.485 9.37558 10.8494 9.22462C11.2139 9.07365 11.6045 8.99595 11.999 8.99595C12.7957 8.99595 13.5598 9.31245 14.1231 9.8758C14.6865 10.4392 15.003 11.2032 15.003 12C15.003 12.7967 14.6865 13.5607 14.1231 14.1241C13.5598 14.6875 12.7957 15.004 11.999 15.004Z" fill="#CAC4D0"/>
<path d="M16.806 8.28491C17.4014 8.28491 17.884 7.80227 17.884 7.20691C17.884 6.61154 17.4014 6.12891 16.806 6.12891C16.2107 6.12891 15.728 6.61154 15.728 7.20691C15.728 7.80227 16.2107 8.28491 16.806 8.28491Z" fill="#CAC4D0"/>
<path d="M20.533 6.11088C20.3017 5.51291 19.948 4.96987 19.4946 4.51661C19.0412 4.06335 18.498 3.70988 17.9 3.47888C17.2003 3.21613 16.4611 3.07411 15.714 3.05888C14.751 3.01688 14.446 3.00488 12.004 3.00488C9.56195 3.00488 9.24895 3.00488 8.29395 3.05888C7.54744 3.07433 6.80895 3.21635 6.10995 3.47888C5.51189 3.70988 4.96872 4.06335 4.51529 4.51661C4.06186 4.96987 3.70818 5.51291 3.47695 6.11088C3.21454 6.81057 3.07286 7.54975 3.05795 8.29688C3.01495 9.25888 3.00195 9.56388 3.00195 12.0069C3.00195 14.4499 3.00195 14.7599 3.05795 15.7169C3.07295 16.4649 3.21395 17.2029 3.47695 17.9039C3.70829 18.502 4.06212 19.0451 4.51573 19.4983C4.96934 19.9516 5.5127 20.305 6.11095 20.5359C6.80848 20.8088 7.54736 20.961 8.29595 20.9859C9.25895 21.0279 9.56395 21.0409 12.006 21.0409C14.448 21.0409 14.761 21.0409 15.716 20.9859C16.4631 20.971 17.2023 20.8293 17.902 20.5669C18.5001 20.3358 19.0433 19.9821 19.4968 19.5287C19.9502 19.0753 20.3038 18.532 20.535 17.9339C20.798 17.2339 20.939 16.4959 20.954 15.7479C20.997 14.7859 21.01 14.4809 21.01 12.0379C21.01 9.59488 21.01 9.28488 20.954 8.32788C20.9419 7.57019 20.7995 6.82023 20.533 6.11088ZM19.315 15.6429C19.3094 16.2193 19.2041 16.7903 19.004 17.3309C18.8531 17.7193 18.6229 18.0721 18.3282 18.3667C18.0334 18.6613 17.6805 18.8912 17.292 19.0419C16.7571 19.24 16.1923 19.3452 15.622 19.3529C14.672 19.3969 14.404 19.4079 11.968 19.4079C9.52995 19.4079 9.28095 19.4079 8.31295 19.3529C7.74296 19.3451 7.17849 19.2399 6.64395 19.0419C6.25411 18.8921 5.89984 18.6625 5.60384 18.3678C5.30783 18.0732 5.0766 17.72 4.92495 17.3309C4.72877 16.7958 4.62364 16.2317 4.61395 15.6619C4.57095 14.7119 4.56095 14.4439 4.56095 12.0079C4.56095 9.57188 4.56095 9.32188 4.61395 8.35288C4.61966 7.77683 4.72488 7.2061 4.92495 6.66588C5.22995 5.87688 5.85495 5.25588 6.64395 4.95388C7.17849 4.75583 7.74296 4.65065 8.31295 4.64288C9.26395 4.59988 9.53095 4.58788 11.968 4.58788C14.405 4.58788 14.655 4.58788 15.622 4.64288C16.1923 4.65054 16.7571 4.75572 17.292 4.95388C17.6806 5.10464 18.0336 5.33474 18.3283 5.62951C18.6231 5.92427 18.8532 6.27724 19.004 6.66588C19.2001 7.20093 19.3053 7.76508 19.315 8.33488C19.358 9.28588 19.369 9.55288 19.369 11.9899C19.369 14.4269 19.369 14.6879 19.326 15.6439L19.315 15.6429Z" fill="#CAC4D0"/>
</svg>
