<svg width="40" height="40" viewBox="0 0 40 40" fill="none" xmlns="http://www.w3.org/2000/svg">
<rect width="40" height="40" rx="10" fill="#E0EDFF" fill-opacity="0.9"/>
<path d="M8.04167 33.3335V31.5835C7.25 31.4446 6.60069 31.1425 6.09375 30.6772C5.58681 30.212 5.22222 29.6252 5 28.9168L6.16667 28.4377C6.40278 29.1043 6.74306 29.6009 7.1875 29.9272C7.63194 30.2536 8.16667 30.4168 8.79167 30.4168C9.45833 30.4168 10.0069 30.2502 10.4375 29.9168C10.8681 29.5835 11.0833 29.1252 11.0833 28.5418C11.0833 27.9307 10.8924 27.4585 10.5104 27.1252C10.1285 26.7918 9.40972 26.4516 8.35417 26.1043C7.35417 25.7849 6.60764 25.3613 6.11458 24.8335C5.62153 24.3057 5.375 23.646 5.375 22.8543C5.375 22.0904 5.62153 21.4516 6.11458 20.9377C6.60764 20.4238 7.25 20.1321 8.04167 20.0627V18.3335H9.29167V20.0627C9.91667 20.1321 10.4549 20.337 10.9062 20.6772C11.3576 21.0175 11.7014 21.4516 11.9375 21.9793L10.7708 22.4793C10.5764 22.0349 10.316 21.712 9.98958 21.5106C9.66319 21.3092 9.23611 21.2085 8.70833 21.2085C8.06944 21.2085 7.5625 21.3543 7.1875 21.646C6.8125 21.9377 6.625 22.3335 6.625 22.8335C6.625 23.3613 6.83333 23.7884 7.25 24.1147C7.66667 24.4411 8.4375 24.7779 9.5625 25.1252C10.5069 25.4168 11.2049 25.837 11.6562 26.3856C12.1076 26.9342 12.3333 27.6252 12.3333 28.4585C12.3333 29.3335 12.0764 30.0384 11.5625 30.5731C11.0486 31.1078 10.2917 31.4516 9.29167 31.6043V33.3335H8.04167Z" fill="#321D71"/>
<path d="M31.3749 33.3335V31.5835C30.5833 31.4446 29.9339 31.1425 29.427 30.6772C28.9201 30.212 28.5555 29.6252 28.3333 28.9168L29.4999 28.4377C29.736 29.1043 30.0763 29.6009 30.5208 29.9272C30.9652 30.2536 31.4999 30.4168 32.1249 30.4168C32.7916 30.4168 33.3402 30.2502 33.7708 29.9168C34.2013 29.5835 34.4166 29.1252 34.4166 28.5418C34.4166 27.9307 34.2256 27.4585 33.8437 27.1252C33.4617 26.7918 32.743 26.4516 31.6874 26.1043C30.6874 25.7849 29.9409 25.3613 29.4478 24.8335C28.9548 24.3057 28.7083 23.646 28.7083 22.8543C28.7083 22.0904 28.9548 21.4516 29.4478 20.9377C29.9409 20.4238 30.5833 20.1321 31.3749 20.0627V18.3335H32.6249V20.0627C33.2499 20.1321 33.7881 20.337 34.2395 20.6772C34.6909 21.0175 35.0346 21.4516 35.2708 21.9793L34.1041 22.4793C33.9096 22.0349 33.6492 21.712 33.3228 21.5106C32.9964 21.3092 32.5694 21.2085 32.0416 21.2085C31.4027 21.2085 30.8958 21.3543 30.5208 21.646C30.1458 21.9377 29.9583 22.3335 29.9583 22.8335C29.9583 23.3613 30.1666 23.7884 30.5833 24.1147C30.9999 24.4411 31.7708 24.7779 32.8958 25.1252C33.8402 25.4168 34.5381 25.837 34.9895 26.3856C35.4409 26.9342 35.6666 27.6252 35.6666 28.4585C35.6666 29.3335 35.4096 30.0384 34.8958 30.5731C34.3819 31.1078 33.6249 31.4516 32.6249 31.6043V33.3335H31.3749Z" fill="#321D71"/>
<path d="M19.1041 35V31.5C17.5208 31.2222 16.2221 30.6181 15.2083 29.6875C14.1944 28.7569 13.4652 27.5833 13.0208 26.1667L15.3541 25.2083C15.8263 26.5417 16.5069 27.5347 17.3958 28.1875C18.2846 28.8403 19.3541 29.1667 20.6041 29.1667C21.9374 29.1667 23.0346 28.8333 23.8958 28.1667C24.7569 27.5 25.1874 26.5833 25.1874 25.4167C25.1874 24.1944 24.8055 23.25 24.0416 22.5833C23.2777 21.9167 21.8402 21.2361 19.7291 20.5417C17.7291 19.9028 16.236 19.0556 15.2499 18C14.2638 16.9444 13.7708 15.625 13.7708 14.0417C13.7708 12.5139 14.2638 11.2361 15.2499 10.2083C16.236 9.18056 17.5208 8.59722 19.1041 8.45833V5H21.6041V8.45833C22.8541 8.59722 23.9305 9.00694 24.8333 9.6875C25.736 10.3681 26.4235 11.2361 26.8958 12.2917L24.5624 13.2917C24.1735 12.4028 23.6527 11.7569 22.9999 11.3542C22.3471 10.9514 21.493 10.75 20.4374 10.75C19.1596 10.75 18.1458 11.0417 17.3958 11.625C16.6458 12.2083 16.2708 13 16.2708 14C16.2708 15.0556 16.6874 15.9097 17.5208 16.5625C18.3541 17.2153 19.8958 17.8889 22.1458 18.5833C24.0346 19.1667 25.4305 20.0069 26.3333 21.1042C27.236 22.2014 27.6874 23.5833 27.6874 25.25C27.6874 27 27.1735 28.4097 26.1458 29.4792C25.118 30.5486 23.6041 31.2361 21.6041 31.5417V35H19.1041Z" fill="#321D71"/>
</svg>
