<svg width="40" height="40" viewBox="0 0 40 40" fill="none" xmlns="http://www.w3.org/2000/svg">
<rect width="40" height="40" rx="8" fill="#E0EDFF" fill-opacity="0.9"/>
<path d="M20.0001 36.6248C16.1112 35.6526 12.9167 33.3957 10.4167 29.854C7.91675 26.3123 6.66675 22.4304 6.66675 18.2082V8.2915L20.0001 3.2915L33.3334 8.2915V18.2082C33.3334 22.4304 32.0834 26.3123 29.5834 29.854C27.0834 33.3957 23.889 35.6526 20.0001 36.6248ZM20.0001 34.0415C23.1945 32.9859 25.7987 30.9929 27.8126 28.0623C29.8265 25.1318 30.8334 21.8471 30.8334 18.2082V10.0415L20.0001 5.95817L9.16675 10.0415V18.2082C9.16675 21.8471 10.1737 25.1318 12.1876 28.0623C14.2015 30.9929 16.8056 32.9859 20.0001 34.0415ZM16.2501 26.6665H23.7501C24.1112 26.6665 24.4098 26.5484 24.6459 26.3123C24.882 26.0762 25.0001 25.7776 25.0001 25.4165V19.5832C25.0001 19.2221 24.882 18.9234 24.6459 18.6873C24.4098 18.4512 24.1112 18.3332 23.7501 18.3332H23.3334V16.6665C23.3334 15.7498 23.007 14.9651 22.3542 14.3123C21.7015 13.6596 20.9167 13.3332 20.0001 13.3332C19.0834 13.3332 18.2987 13.6596 17.6459 14.3123C16.9931 14.9651 16.6667 15.7498 16.6667 16.6665V18.3332H16.2501C15.889 18.3332 15.5904 18.4512 15.3542 18.6873C15.1181 18.9234 15.0001 19.2221 15.0001 19.5832V25.4165C15.0001 25.7776 15.1181 26.0762 15.3542 26.3123C15.5904 26.5484 15.889 26.6665 16.2501 26.6665ZM17.9167 18.3332V16.6665C17.9167 16.1109 18.1251 15.6457 18.5417 15.2707C18.9584 14.8957 19.4445 14.7082 20.0001 14.7082C20.5556 14.7082 21.0417 14.8957 21.4584 15.2707C21.8751 15.6457 22.0834 16.1109 22.0834 16.6665V18.3332H17.9167Z" fill="#321D71"/>
</svg>
