<svg width="40" height="40" viewBox="0 0 40 40" fill="none" xmlns="http://www.w3.org/2000/svg">
<rect width="40" height="40" rx="10" fill="#E0EDFF" fill-opacity="0.9"/>
<path d="M36.0416 32.4583L34.1666 30.5833V19.0833H22.6666L17.2916 13.7083H34.1666V9.16667H12.7499L10.2499 6.66667H34.1666C34.8333 6.66667 35.4166 6.91667 35.9166 7.41667C36.4166 7.91667 36.6666 8.5 36.6666 9.16667V30.84C36.6666 31.1411 36.611 31.4306 36.4999 31.7083C36.3888 31.9861 36.236 32.2361 36.0416 32.4583ZM15.4999 19.0833H5.83325V30.8333H27.2499L15.4999 19.0833ZM33.8749 37.4583L29.7499 33.3333H5.83325C5.16659 33.3333 4.58325 33.0833 4.08325 32.5833C3.58325 32.0833 3.33325 31.5 3.33325 30.8333V9.16667C3.33325 8.5 3.58325 7.91667 4.08325 7.41667C4.58325 6.91667 5.16659 6.66667 5.83325 6.66667H6.66659L9.16659 9.16667H5.83325V13.7083H10.1249L1.08325 4.66667L2.87492 2.875L35.6666 35.6667L33.8749 37.4583Z" fill="#321D71"/>
</svg>
