<svg width="40" height="40" viewBox="0 0 40 40" fill="none" xmlns="http://www.w3.org/2000/svg">
<g clip-path="url(#clip0_82_284)">
<rect width="40" height="40" rx="8" fill="#E0EDFF"/>
<path d="M20 34.7082C19 34.7082 18.125 34.3332 17.375 33.5832C16.625 32.8332 16.25 31.9582 16.25 30.9582C16.25 29.9582 16.625 29.0832 17.375 28.3332C18.125 27.5832 19 27.2082 20 27.2082C21 27.2082 21.875 27.5832 22.625 28.3332C23.375 29.0832 23.75 29.9582 23.75 30.9582C23.75 31.9582 23.375 32.8332 22.625 33.5832C21.875 34.3332 21 34.7082 20 34.7082ZM9.66667 25.1248L7.04167 22.4998C8.98611 20.5554 11.0208 19.0971 13.1458 18.1248C15.2708 17.1526 17.5556 16.6665 20 16.6665C22.4444 16.6665 24.7292 17.1526 26.8542 18.1248C28.9792 19.0971 31.0139 20.5554 32.9583 22.4998L30.3333 25.1248C28.6389 23.4304 26.9306 22.2221 25.2083 21.4998C23.4861 20.7776 21.75 20.4165 20 20.4165C18.25 20.4165 16.5139 20.7776 14.7917 21.4998C13.0694 22.2221 11.3611 23.4304 9.66667 25.1248ZM2.625 18.0832L0 15.4582C2.58333 12.8193 5.59028 10.6943 9.02083 9.08317C12.4514 7.47206 16.1111 6.6665 20 6.6665C23.8889 6.6665 27.5486 7.47206 30.9792 9.08317C34.4097 10.6943 37.4167 12.8193 40 15.4582L37.375 18.0832C34.9306 15.7498 32.2569 13.8887 29.3542 12.4998C26.4514 11.1109 23.3333 10.4165 20 10.4165C16.6667 10.4165 13.5486 11.1109 10.6458 12.4998C7.74306 13.8887 5.06944 15.7498 2.625 18.0832Z" fill="#321D71"/>
</g>
<defs>
<clipPath id="clip0_82_284">
<rect width="40" height="40" rx="8" fill="white"/>
</clipPath>
</defs>
</svg>
